<svg width="28" height="37" viewBox="0 0 28 37" fill="none" xmlns="http://www.w3.org/2000/svg">
<path d="M1.00057 36.7904C1.30254 36.9461 1.64158 37.0173 1.98131 36.9964C2.32104 36.9756 2.64862 36.8634 2.92889 36.672L27.1964 20.0211C27.4443 19.8509 27.647 19.6236 27.7869 19.3587C27.9269 19.0939 28 18.7993 28 18.5003C28 18.2014 27.9269 17.9068 27.7869 17.642C27.647 17.3771 27.4443 17.1498 27.1964 16.9796L2.92889 0.328693C2.64884 0.13664 2.32111 0.0241766 1.98118 0.00348145C1.64126 -0.0172137 1.3021 0.0546477 1.00043 0.211285C0.698765 0.367922 0.446079 0.603365 0.269736 0.892122C0.0933939 1.18088 0.000114959 1.51194 2.5356e-08 1.84947V35.1512C-5.61276e-05 35.4889 0.0931554 35.8202 0.269532 36.1092C0.445908 36.3981 0.69872 36.6337 1.00057 36.7904Z" fill="white"/>
</svg>
