<svg width="28" height="37" viewBox="0 0 28 37" fill="none" xmlns="http://www.w3.org/2000/svg">
<path d="M26.9994 0.209593C26.6975 0.0539234 26.3584 -0.0173027 26.0187 0.00355778C25.679 0.0244182 25.3514 0.136576 25.0711 0.327997L0.803647 16.9789C0.555675 17.1491 0.353032 17.3764 0.21307 17.6413C0.0731087 17.9061 -5.82251e-07 18.2007 -5.82251e-07 18.4997C-5.82251e-07 18.7986 0.0731087 19.0932 0.21307 19.358C0.353032 19.6229 0.555675 19.8502 0.803647 20.0204L25.0711 36.6713C25.3512 36.8634 25.6789 36.9758 26.0188 36.9965C26.3587 37.0172 26.6979 36.9454 26.9996 36.7887C27.3012 36.6321 27.5539 36.3966 27.7303 36.1079C27.9066 35.8191 27.9999 35.4881 28 35.1505L28 1.84878C28.0001 1.51107 27.9068 1.17978 27.7305 0.890831C27.5541 0.601881 27.3013 0.366291 26.9994 0.209593Z" fill="white"/>
</svg>
