<svg width="87" height="87" viewBox="0 0 87 87" fill="none" xmlns="http://www.w3.org/2000/svg">
<path d="M64.4775 53.0569L63.5812 58.2715C63.4991 58.7487 63.6957 59.231 64.0881 59.5156C64.4804 59.8002 65.0004 59.8378 65.4301 59.6124L70.1225 57.1504L74.8146 59.6124C75.0011 59.7103 75.2047 59.7585 75.4074 59.7585C75.6718 59.7585 75.9347 59.6765 76.1566 59.5154C76.5491 59.2309 76.7457 58.7487 76.6635 58.2715L75.7675 53.0567L79.5635 49.3635C79.9109 49.0256 80.0357 48.5201 79.8859 48.0596C79.736 47.5992 79.3372 47.2636 78.8572 47.194L73.6112 46.433L71.2651 41.6886C71.0503 41.2545 70.6073 40.9796 70.1222 40.9796C69.637 40.9796 69.1941 41.2545 68.9793 41.6886L66.6328 46.433L61.387 47.194C60.9071 47.2636 60.5082 47.5994 60.3583 48.0596C60.2084 48.5199 60.3335 49.0255 60.6806 49.3635L64.4775 53.0569ZM67.6631 48.8544C68.078 48.7943 68.4369 48.534 68.6224 48.1585L70.1225 45.1253L71.6222 48.1585C71.808 48.534 72.1667 48.7941 72.5816 48.8544L75.9354 49.3408L73.5085 51.702C73.2081 51.9942 73.0712 52.4152 73.1422 52.8278L73.715 56.1614L70.7155 54.5875C70.5298 54.4902 70.3262 54.4415 70.1225 54.4415C69.9189 54.4415 69.7152 54.4902 69.5295 54.5875L66.5298 56.1614L67.1028 52.828C67.1738 52.4152 67.0367 51.9942 66.7365 51.7019L64.3096 49.3408L67.6631 48.8544Z" fill="#FEFBFB"/>
<path d="M10.7822 40.3125L9.88588 45.5271C9.80381 46.0043 10.0004 46.4866 10.3928 46.7712C10.7851 47.0558 11.3052 47.0936 11.7348 46.8681L16.4272 44.406L21.1192 46.8681C21.3058 46.9659 21.5094 47.0141 21.7121 47.0141C21.9765 47.0141 22.2394 46.9322 22.4613 46.7711C22.8538 46.4865 23.0504 46.0043 22.9682 45.5271L22.0722 40.3124L25.8682 36.6191C26.2155 36.2813 26.3404 35.7757 26.1906 35.3153C26.0407 34.8548 25.6419 34.5192 25.1619 34.4496L19.9159 33.6888L17.5697 28.9442C17.355 28.5101 16.912 28.2352 16.4269 28.2352C15.9417 28.2352 15.4987 28.5101 15.284 28.9442L12.9375 33.6887L7.69168 34.4496C7.21182 34.5192 6.81284 34.855 6.66297 35.3153C6.5131 35.7755 6.63817 36.2811 6.98532 36.6191L10.7822 40.3125ZM13.9677 36.1101C14.3827 36.0501 14.7416 35.7898 14.9271 35.4143L16.4272 32.3811L17.9269 35.4143C18.1126 35.7898 18.4714 36.0499 18.8863 36.1101L22.2401 36.5965L19.8132 38.9578C19.5128 39.25 19.3758 39.671 19.4469 40.0836L20.0197 43.4171L17.0202 41.8433C16.8345 41.746 16.6309 41.6973 16.4272 41.6973C16.2236 41.6973 16.0199 41.746 15.8342 41.8433L12.8345 43.4171L13.4075 40.0838C13.4785 39.671 13.3414 39.25 13.0412 38.9578L10.6143 36.5965L13.9677 36.1101Z" fill="#FEFBFB"/>
<path d="M36.1622 8.43803V9.98422C36.1622 13.6147 38.8066 16.6385 42.2733 17.2432V20.811C39.1503 21.3184 36.6746 23.7698 36.1356 26.8764H34.3519C32.7082 26.8764 32.7082 29.4203 34.3519 29.4203H52.6484C54.2921 29.4203 54.2921 26.8764 52.6484 26.8764H50.8126C50.2821 23.8189 47.8755 21.3968 44.8223 20.8373V17.2431C48.2891 16.6385 50.9334 13.6146 50.9334 9.98406V8.42463C52.5604 8.20619 53.8535 7.55393 54.786 6.47531C56.6728 4.29245 56.2414 1.21532 56.2222 1.08558C56.1294 0.461977 55.5932 0 54.9614 0H49.6588H49.5976H37.4368C37.4311 0 37.4256 0.000847975 37.4198 0.000847975C37.4141 0.000847975 37.4086 0 37.4028 0H32.0389C31.4072 0 30.8709 0.461977 30.7783 1.08558C30.7591 1.21549 30.3276 4.29245 32.2145 6.47531C33.165 7.5753 34.4899 8.23282 36.1622 8.43803ZM48.2068 26.8766H38.7412C39.3036 24.7943 41.2123 23.2571 43.4742 23.2571C45.7356 23.2571 47.6444 24.7941 48.2068 26.8766ZM52.8559 4.81361C52.4063 5.33376 51.7619 5.67872 50.9332 5.84628V2.54392H53.7087C53.6487 3.2374 53.4457 4.13116 52.8559 4.81361ZM38.7111 2.54392H48.3844V7.08839C48.3788 7.1369 48.375 7.18608 48.375 7.23628C48.375 7.28648 48.3786 7.33549 48.3844 7.38416V9.98422C48.3844 12.6458 46.2147 14.8114 43.5477 14.8114C40.8808 14.8114 38.7111 12.6458 38.7111 9.98422V2.54392V2.54392ZM36.1622 2.54392V5.86392C35.2931 5.70517 34.6194 5.35801 34.1533 4.82396C33.5567 4.14083 33.3521 3.24113 33.2918 2.54392H36.1622V2.54392Z" fill="#FEFBFB"/>
<path d="M85.7256 84.4561H83.7574V67.7896C83.7574 65.9863 82.2879 64.5193 80.4816 64.5193H58.5535C58.2402 64.5193 57.9379 64.5661 57.6508 64.6486V37.7942C57.6508 35.9909 56.1816 34.5239 54.3757 34.5239H32.4478C30.642 34.5239 29.1729 35.9909 29.1729 37.7942V51.3145C28.9387 51.2613 28.6962 51.2306 28.4463 51.2306H6.51837C4.7121 51.2306 3.24262 52.6972 3.24262 54.5002V64.4439C3.24262 66.0844 5.79145 66.0844 5.79145 64.4439V54.5002C5.79145 54.1001 6.11753 53.7745 6.51837 53.7745H28.4461C28.8468 53.7745 29.1727 54.1001 29.1727 54.5002V84.4561H5.79145V70.7189C5.79145 69.0784 3.24262 69.0784 3.24262 70.7189V84.4561H1.27441C0.570428 84.4561 0 85.0254 0 85.728C0 86.4307 0.570428 87 1.27441 87H85.7256C86.4296 87 87 86.4307 87 85.728C87 85.0254 86.4294 84.4561 85.7256 84.4561ZM31.7215 84.4561V54.5002V37.7942C31.7215 37.3938 32.0473 37.0678 32.4476 37.0678H54.3757C54.776 37.0678 55.1019 37.3938 55.1019 37.7942V84.4562H31.7215V84.4561ZM57.8271 84.4561V67.7896C57.8271 67.3892 58.153 67.0633 58.5535 67.0633H80.4815C80.8823 67.0633 81.2084 67.3892 81.2084 67.7896V84.4561H57.8271Z" fill="#FEFBFB"/>
</svg>
