<svg width="87" height="87" viewBox="0 0 87 87" fill="none" xmlns="http://www.w3.org/2000/svg">
<path d="M67.3552 65.9516C69.6761 65.9516 71.5649 64.0628 71.5649 61.7419C71.5649 59.421 69.6761 57.5322 67.3552 57.5322C65.0342 57.5322 63.1455 59.421 63.1455 61.7419C63.1455 64.0628 65.0342 65.9516 67.3552 65.9516ZM67.3552 60.3387C68.1284 60.3387 68.7584 60.9673 68.7584 61.7419C68.7584 62.5165 68.1284 63.1451 67.3552 63.1451C66.582 63.1451 65.952 62.5165 65.952 61.7419C65.952 60.9673 66.582 60.3387 67.3552 60.3387Z" fill="white"/>
<path d="M81.6116 55.8175C81.1864 54.7988 81.4124 53.6411 82.1855 52.8665L84.2272 50.8234L78.2719 44.8681L76.2274 46.9112C75.4543 47.6858 74.2952 47.9103 73.2231 47.4613C72.2156 47.046 71.5645 46.0721 71.5645 44.9804V42.0968H68.6865C68.5588 39.8334 68.1392 37.6457 67.4432 35.5732L83.6814 19.335C85.8213 17.1951 87 14.3508 87 11.3254C87 5.08108 81.9189 0 75.6746 0C72.6492 0 69.8049 1.17871 67.6664 3.31723L51.4451 19.5399C49.3472 18.8355 47.1231 18.4258 44.826 18.3037C42.8896 14.9205 39.251 12.629 35.0806 12.629C34.0128 12.629 32.9828 12.789 32.002 13.0682C29.58 8.51477 24.875 5.6129 19.6452 5.6129C11.9078 5.6129 5.6129 11.9078 5.6129 19.6452C5.6129 20.72 5.74481 21.7781 5.98476 22.8136C2.52581 23.8605 0 27.0752 0 30.871C0 35.5142 3.77608 39.2903 8.41935 39.2903H18.5984C18.3654 40.6781 18.2419 42.087 18.2419 43.5C18.2419 46.5885 18.813 49.1017 19.735 51.2486L7.21679 63.7682L0.251177 81.8782C0.0841936 82.3104 0 82.7651 0 83.2295C0 85.3091 1.69229 87 3.77047 87C4.23494 87 4.68958 86.9144 5.12318 86.7488L23.2332 79.7832L32.3865 70.6286C32.3177 70.9303 32.2742 71.2418 32.2742 71.5645C32.2742 72.6464 32.6966 73.6245 33.3687 74.371C32.6952 75.1175 32.2742 76.0955 32.2742 77.1774C32.2742 79.1279 33.6143 80.7584 35.4174 81.2327C36.613 84.6566 39.8151 87 43.5 87C47.1849 87 50.387 84.6566 51.5826 81.2327C53.3857 80.7584 54.7258 79.1279 54.7258 77.1774C54.7258 77.0722 54.702 76.974 54.6949 76.8715L56.4377 78.6143L58.4822 76.5712C59.2554 75.7966 60.4103 75.5707 61.4851 76.0184C62.4927 76.4379 63.1452 77.4118 63.1452 78.5035V81.3871H71.5645V78.5035C71.5645 77.4118 72.217 76.4365 73.2793 75.9973C74.298 75.5735 75.4557 75.7966 76.2288 76.5712L78.2719 78.6143L84.2272 72.659L82.1855 70.6159C81.4124 69.8414 81.1864 68.6837 81.6341 67.6116C82.0508 66.6041 83.0247 65.9516 84.1164 65.9516H87V57.5323H84.1164C83.0247 57.5323 82.0508 56.8798 81.6116 55.8175V55.8175ZM60.5857 59.9542C62.1166 58.4598 63.6503 56.9331 64.9736 55.1678C65.7369 54.89 66.5311 54.7258 67.3548 54.7258C71.2235 54.7258 74.371 57.8732 74.371 61.7419C74.371 65.6106 71.2235 68.7581 67.3548 68.7581C63.4861 68.7581 60.3387 65.6106 60.3387 61.7419C60.3387 61.1343 60.4327 60.5366 60.5857 59.9542V59.9542ZM62.2709 26.7146L68.7581 20.2261L73.79 25.2581L66.2954 32.7527C65.2444 30.5468 63.8861 28.5178 62.2709 26.7146V26.7146ZM63.7261 11.2258L65.9516 9.00029L77.9997 21.0484L75.7742 23.2739L63.7261 11.2258ZM75.6746 2.80645C80.3712 2.80645 84.1935 6.62884 84.1935 11.3254C84.1935 13.6001 83.3081 15.74 81.6986 17.3495L79.9839 19.0642L67.9358 7.01613L69.6505 5.30139C71.26 3.69329 73.3985 2.80645 75.6746 2.80645V2.80645ZM61.7419 13.21L66.7739 18.2419L60.2896 24.7262C58.4879 23.1097 56.4602 21.75 54.2543 20.6976L61.7419 13.21ZM65.9516 43.5C65.9516 50.801 62.2752 54.3876 58.3826 58.1834C55.7024 60.7976 52.9493 63.5002 51.3468 67.439C51.0788 67.3843 50.801 67.3548 50.5161 67.3548H44.9032V60.3387C44.9032 58.0178 43.0145 56.129 40.6935 56.129H37.8871C37.1139 56.129 36.4839 55.5004 36.4839 54.7258C36.4839 53.9512 37.1139 53.3226 37.8871 53.3226H51.9194C54.2403 53.3226 56.129 51.4338 56.129 49.1129C56.129 46.792 54.2403 44.9032 51.9194 44.9032H40.6935C39.9204 44.9032 39.2903 44.2746 39.2903 43.5V39.2903H46.3065C50.1751 39.2903 53.3226 36.1429 53.3226 32.2742C53.3226 28.4055 50.1751 25.2581 46.3065 25.2581C46.2672 25.2581 46.2307 25.2693 46.1914 25.2693C46.2517 24.8006 46.3065 24.3319 46.3065 23.8548C46.3065 22.9371 46.183 22.0489 45.9753 21.1943C57.1618 22.4404 65.9516 32.0413 65.9516 43.5V43.5ZM35.0806 71.5645C35.0806 70.7899 35.7107 70.1613 36.4839 70.1613H50.5161C51.2893 70.1613 51.9194 70.7899 51.9194 71.5645C51.9194 72.3391 51.2893 72.9677 50.5161 72.9677H36.4839C35.7107 72.9677 35.0806 72.3391 35.0806 71.5645ZM17.4196 71.5645L27.7348 61.2494C29.4607 62.9613 31.0632 64.6929 32.2447 66.802L22.4516 76.5965L17.4196 71.5645ZM2.80645 30.871C2.80645 27.7755 5.32384 25.2581 8.41935 25.2581C11.5149 25.2581 14.0323 27.7755 14.0323 30.871H16.8387C16.8387 26.3498 13.2535 22.6593 8.77858 22.4699C8.54003 21.5521 8.41935 20.605 8.41935 19.6452C8.41935 13.4555 13.4555 8.41935 19.6452 8.41935C23.7496 8.41935 27.4541 10.6505 29.4242 14.174C26.4326 15.9294 24.3193 19.0207 23.925 22.6284C21.475 23.2318 19.6452 25.4307 19.6452 28.0645H22.4516C22.4516 26.5168 23.7103 25.2581 25.2581 25.2581C26.8058 25.2581 28.0645 26.5168 28.0645 28.0645H30.871C30.871 25.4896 29.1197 23.3385 26.7525 22.6789C27.3278 18.5927 30.8373 15.4355 35.0806 15.4355C39.7239 15.4355 43.5 19.2116 43.5 23.8548C43.5 24.5929 43.3793 25.3156 43.1913 26.02C40.89 27.1721 39.2903 29.5295 39.2903 32.2742H42.0968C42.0968 29.9533 43.9855 28.0645 46.3065 28.0645C48.6274 28.0645 50.5161 29.9533 50.5161 32.2742C50.5161 34.5951 48.6274 36.4839 46.3065 36.4839H8.41935C5.32384 36.4839 2.80645 33.9665 2.80645 30.871V30.871ZM36.4839 39.2903V43.5C36.4839 45.8209 38.3726 47.7097 40.6935 47.7097H51.9194C52.6925 47.7097 53.3226 48.3383 53.3226 49.1129C53.3226 49.8875 52.6925 50.5161 51.9194 50.5161H37.8871C35.5662 50.5161 33.6774 52.4049 33.6774 54.7258C33.6774 57.0467 35.5662 58.9355 37.8871 58.9355H40.6935C41.4667 58.9355 42.0968 59.5641 42.0968 60.3387V67.3548H36.4839C36.199 67.3548 35.9212 67.3843 35.6532 67.439C34.0507 63.5002 31.2975 60.7976 28.6174 58.1834C24.7248 54.3876 21.0484 50.801 21.0484 43.5C21.0484 42.0813 21.2182 40.6753 21.4806 39.2903H36.4839ZM25.731 59.2849L15.4355 69.5804L10.4035 64.5484L21.1101 53.8418C22.4278 55.9101 24.0611 57.6361 25.731 59.2849V59.2849ZM8.95398 67.0672L19.9328 78.046L10.6379 81.6214L5.37856 76.3621L8.95398 67.0672ZM4.11706 84.129C3.50947 84.3647 2.80645 83.8806 2.80645 83.2295C2.80645 83.1103 2.8289 82.9938 2.8696 82.8843L4.27563 79.2275L7.77106 82.723L4.11706 84.129ZM43.5 84.1935C41.4274 84.1935 39.5794 83.0906 38.555 81.3871H48.445C47.4206 83.0906 45.5726 84.1935 43.5 84.1935ZM50.5161 78.5806H36.4839C35.7107 78.5806 35.0806 77.952 35.0806 77.1774C35.0806 76.4028 35.7107 75.7742 36.4839 75.7742H50.5161C51.2893 75.7742 51.9194 76.4028 51.9194 77.1774C51.9194 77.952 51.2893 78.5806 50.5161 78.5806ZM84.1935 63.1452H84.1164C81.8838 63.1452 79.8913 64.4782 79.0213 66.5859C78.1569 68.6584 78.6199 71.0187 80.2 72.6001L80.2589 72.659L78.2719 74.646L78.213 74.5871C76.6302 73.0042 74.2671 72.5398 72.1525 73.4266C70.0911 74.2798 68.7581 76.2709 68.7581 78.5035V78.5806H65.9516V78.5035C65.9516 76.2709 64.6185 74.2784 62.5109 73.4069C60.4355 72.5412 58.0753 73.0056 56.4953 74.5871L56.4363 74.646L54.535 72.7446C54.6472 72.3672 54.7258 71.9771 54.7258 71.5645C54.7258 70.5682 54.3638 69.6645 53.7828 68.9419C54.6556 66.5859 56.0238 64.7013 57.6165 62.9613C58.2198 67.8025 62.3523 71.5645 67.3548 71.5645C72.7713 71.5645 77.1774 67.157 77.1774 61.7419C77.1774 56.3269 72.7713 51.9194 67.3548 51.9194C67.2173 51.9194 67.084 51.9334 66.9479 51.939C67.8979 49.9675 68.5504 47.6816 68.7146 44.9032H68.7581V44.9804C68.7581 47.2129 70.0911 49.2069 72.1974 50.0755C74.2685 50.9427 76.6316 50.4796 78.213 48.8968L78.2719 48.8379L80.2589 50.8248L80.2 50.8838C78.6199 52.4652 78.1569 54.8268 79.0395 56.9429C79.8913 59.0056 81.8838 60.3387 84.1164 60.3387H84.1935V63.1452Z" fill="white"/>
</svg>
