<svg width="40" height="40" viewBox="0 0 30 30" fill="none" xmlns="http://www.w3.org/2000/svg">
<path d="M21.2289 8H8.77108C8.56657 8 8.37045 8.08123 8.22584 8.22584C8.08123 8.37045 8 8.5666 8 8.77108V21.2289C8 21.4334 8.08123 21.6295 8.22584 21.7742C8.37045 21.9188 8.56657 22 8.77108 22H15.4789V16.5783H13.6446V14.4699H15.4699V12.9066C15.4699 11.0994 16.5723 10.1145 18.1807 10.1145C18.725 10.112 19.2691 10.1401 19.8102 10.1988V12.0874H18.7078C17.8283 12.0874 17.6596 12.506 17.6596 13.1175V14.4669H19.7681L19.494 16.5753H17.6867V21.997H21.2289C21.4334 21.997 21.6295 21.9158 21.7742 21.7711C21.9188 21.6265 22 21.4304 22 21.2259V8.77108C22 8.5666 21.9188 8.37045 21.7742 8.22584C21.6295 8.08123 21.4334 8 21.2289 8Z" fill="white"/>
<circle cx="15" cy="15" r="14" stroke="white" stroke-width="2"/>
</svg>
