<svg width="761" height="544" viewBox="0 0 761 544" fill="none" xmlns="http://www.w3.org/2000/svg">
<g clip-path="url(#clip0)">
<path d="M570.319 73.6973L598.262 144.767L657.805 111.151L570.319 73.6973Z" fill="#FAFAFA"/>
<path d="M570.319 73.6973L625.239 129.544L640.202 121.095L570.319 73.6973Z" fill="#D9D9D9"/>
<path d="M640.202 121.095L629.785 146.867L625.239 129.544L640.202 121.095Z" fill="#D9D9D9"/>
<path d="M629.785 146.867L616.934 134.232L625.239 129.543L629.785 146.867Z" fill="#B0B0B0"/>
<path d="M204.783 521.95C141.763 505.348 86.8174 460.359 58.0762 401.859C46.2166 377.723 38.6063 350.92 40.3962 324.079C42.1861 297.237 54.2003 270.422 75.7433 254.322C97.2863 238.223 128.68 234.732 151.459 249.029C173.466 262.836 183.948 289.329 203.031 306.975C225.824 328.071 261.995 334.228 289.474 319.764C316.953 305.3 332.406 270.139 322.375 240.747C313.09 213.545 286.86 196.621 264.068 179.105C241.276 161.588 218.612 136.962 221.883 108.408C224.69 83.8594 246.298 65.4157 269.064 55.8332C312.652 37.5054 368.873 45.6582 398.58 82.4555C430.54 122.048 424.398 179.813 409.989 228.614C395.58 277.416 374.32 326.822 381.492 377.208C387.454 419.067 413.401 456.714 447.821 481.263C482.241 505.811 524.477 517.97 566.675 520.559C608.782 523.147 653.98 515.317 685.117 486.852C716.266 458.388 726.786 405.324 699.243 373.357C684.988 356.819 663.702 348.434 643.241 340.822C622.78 333.223 601.417 325.264 586.583 309.241C571.748 293.219 566.005 266.442 579.951 249.647C596.112 230.186 639.159 228.061 654.379 207.865C665.235 193.453 652.551 165.697 640.228 152.07" stroke="#52BFDE" stroke-width="2.5409" stroke-miterlimit="10" stroke-dasharray="7.62 7.62"/>
<path d="M169.719 447.389C142.484 429.499 118.211 407.127 98.1619 381.445C89.7533 370.678 82.0401 359.228 76.9408 346.554C71.8416 333.88 69.4722 319.867 71.9832 306.434C73.7731 296.8 79.014 286.779 88.3111 283.701C95.5737 281.293 103.776 283.804 109.828 288.479C115.881 293.168 120.117 299.762 123.877 306.434C138.364 332.154 147.262 360.567 157.975 388.078C163.113 401.28 168.727 414.34 175.552 426.769C178.939 432.951 182.621 438.966 186.678 444.723C190.36 449.939 197.044 455.555 199.361 461.196C194.069 465.434 174.664 450.635 169.719 447.389Z" fill="#429C9B"/>
<path d="M93.0498 298.319C106.365 354.758 137.642 406.818 181.218 445.071" stroke="#57BABD" stroke-width="2.0199" stroke-miterlimit="10"/>
<path d="M532.203 447.673C555.588 436.313 577.092 421.115 595.596 402.851C603.348 395.201 610.637 386.932 615.98 377.427C621.311 367.921 624.634 357.077 624.029 346.193C623.604 338.388 620.487 329.926 613.444 326.526C607.945 323.873 601.198 325.006 595.931 328.097C590.664 331.189 586.621 335.967 582.964 340.861C568.851 359.73 558.897 381.291 547.591 401.962C542.17 411.88 536.375 421.643 529.705 430.774C526.383 435.308 522.855 439.7 519.056 443.834C515.605 447.582 509.733 451.343 507.325 455.568C511.085 459.445 527.967 449.733 532.203 447.673Z" fill="#429C9B"/>
<path d="M608.203 337.603C591.862 380.891 561.769 418.873 523.344 444.659" stroke="#57BABD" stroke-width="1.6117" stroke-miterlimit="10"/>
<path d="M181.488 410.45C196.129 338.234 180.522 260.363 139.188 199.365" stroke="#61A9B8" stroke-width="2.5409" stroke-miterlimit="10"/>
<path d="M143.514 206.5C131.719 202.636 121.392 194.432 114.966 183.793C108.541 173.167 106.081 160.211 108.141 147.962C120.658 151.324 132.427 159.103 139.085 170.218C145.768 181.346 146.45 193.878 143.514 206.5Z" fill="#61A9B8"/>
<path d="M156.7 229.877C153.996 220.681 154.704 210.518 158.658 201.786C162.611 193.054 169.77 185.815 178.475 181.771C181.81 191.212 182.003 202.095 177.857 211.201C173.685 220.307 166.01 226.219 156.7 229.877Z" fill="#61A9B8"/>
<path d="M157.524 229.013C150.3 222.702 140.784 219.096 131.191 219.032C121.611 218.967 112.03 222.445 104.729 228.653C111.901 235.634 121.701 240.373 131.706 240.412C141.724 240.438 150.313 235.943 157.524 229.013Z" fill="#61A9B8"/>
<path d="M171.56 266.983C170.504 257.452 172.964 247.573 178.385 239.652C183.793 231.744 192.112 225.858 201.383 223.398C203.031 233.277 201.319 244.031 195.64 252.274C189.961 260.517 181.372 264.999 171.56 266.983Z" fill="#61A9B8"/>
<path d="M172.539 266.261C166.525 258.791 157.782 253.575 148.356 251.836C138.93 250.097 128.899 251.849 120.619 256.692C126.465 264.819 135.286 271.194 145.137 272.972C154.988 274.762 164.22 271.838 172.539 266.261Z" fill="#61A9B8"/>
<path d="M181.411 304.089C181.179 294.507 184.501 284.873 190.579 277.467C196.657 270.061 205.452 264.922 214.904 263.273C215.689 273.255 213.05 283.817 206.675 291.532C200.301 299.246 191.352 302.969 181.411 304.089Z" fill="#61A9B8"/>
<path d="M182.441 303.458C177.097 295.499 168.843 289.535 159.598 286.985C150.352 284.435 140.205 285.311 131.539 289.407C136.651 298.01 144.892 305.133 154.55 307.76C164.22 310.401 173.672 308.288 182.441 303.458Z" fill="#61A9B8"/>
<path d="M187.103 344.918C188.364 335.413 193.142 326.423 200.301 320.035C207.461 313.659 216.951 309.95 226.532 309.795C225.746 319.777 221.51 329.798 214.015 336.431C206.521 343.077 197.108 345.356 187.103 344.918Z" fill="#61A9B8"/>
<path d="M188.223 344.467C184.192 335.774 176.955 328.6 168.225 324.645C159.494 320.691 149.334 319.983 140.14 322.675C143.849 331.974 150.893 340.281 160.022 344.377C169.139 348.486 178.81 347.868 188.223 344.467Z" fill="#61A9B8"/>
<path d="M522.417 435.347C506.579 363.388 520.872 285.272 561.19 223.591" stroke="#61A9B8" stroke-width="2.5409" stroke-miterlimit="10"/>
<path d="M556.966 230.791C568.697 226.734 578.882 218.349 585.128 207.62C591.373 196.892 593.626 183.883 591.347 171.686C578.882 175.254 567.254 183.226 560.777 194.457C554.3 205.676 553.824 218.22 556.966 230.791Z" fill="#61A9B8"/>
<path d="M544.192 254.387C546.741 245.139 545.866 234.99 541.758 226.322C537.663 217.654 530.375 210.531 521.619 206.642C518.438 216.134 518.425 227.017 522.739 236.059C527.04 245.1 534.805 250.896 544.192 254.387Z" fill="#61A9B8"/>
<path d="M543.342 253.537C550.45 247.11 559.915 243.336 569.495 243.117C579.075 242.898 588.707 246.208 596.124 252.287C589.068 259.397 579.346 264.291 569.34 264.497C559.335 264.691 550.669 260.35 543.342 253.537Z" fill="#61A9B8"/>
<path d="M529.937 291.725C530.838 282.181 528.199 272.341 522.662 264.523C517.112 256.705 508.703 250.961 499.393 248.655C497.912 258.56 499.805 269.276 505.613 277.429C511.433 285.581 520.099 289.922 529.937 291.725Z" fill="#61A9B8"/>
<path d="M528.946 291.029C534.83 283.456 543.484 278.098 552.884 276.205C562.284 274.312 572.341 275.896 580.698 280.597C574.993 288.827 566.276 295.344 556.451 297.289C546.638 299.234 537.367 296.465 528.946 291.029Z" fill="#61A9B8"/>
<path d="M520.717 328.999C520.782 319.416 517.305 309.834 511.098 302.531C504.891 295.228 496.006 290.244 486.542 288.75C485.924 298.744 488.744 309.267 495.247 316.866C501.75 324.478 510.75 328.045 520.717 328.999Z" fill="#61A9B8"/>
<path d="M519.674 328.393C524.877 320.344 533.04 314.252 542.235 311.547C551.429 308.842 561.589 309.55 570.319 313.505C565.349 322.198 557.223 329.45 547.617 332.244C538.011 335.026 528.521 333.069 519.674 328.393Z" fill="#61A9B8"/>
<path d="M515.695 369.918C514.266 360.438 509.347 351.525 502.084 345.266C494.822 339.006 485.267 335.464 475.687 335.464C476.627 345.433 481.044 355.389 488.654 361.894C496.264 368.398 505.716 370.536 515.695 369.918Z" fill="#61A9B8"/>
<path d="M514.575 369.479C518.464 360.721 525.585 353.431 534.251 349.323C542.917 345.227 553.064 344.338 562.31 346.888C558.756 356.239 551.854 364.675 542.788 368.926C533.723 373.189 524.04 372.725 514.575 369.479Z" fill="#61A9B8"/>
<path d="M170.105 483.8C174.11 476.523 179.415 469.787 182.905 462.291C173.595 450.467 162.431 439.842 150.713 430.53C143.051 424.438 135.067 418.732 126.813 413.413C119.241 419.44 111.67 425.468 104.098 431.483C105.424 420.973 106.184 411.815 107.292 401.847C90.4744 392.728 72.7687 385.167 54.535 379.41C50.3243 386.185 46.7445 393.385 41.0915 399.18C41.1817 391.414 40.4348 383.3 39.3789 375.07C22.523 370.729 5.30664 367.909 -11.987 366.762C-12.0385 373.743 -11.6394 380.724 -10.8281 387.653C-6.30832 386.288 -2.80581 382.475 1.97152 381.767C-1.18332 389.418 -4.04199 397.815 -7.78917 405.582C-3.66856 424.025 3.38798 441.825 13.007 458.105C20.9649 453.417 28.4335 446.977 38.0268 442.984C36.3528 457.654 36.3271 473.007 35.0651 487.857C40.1258 493.357 45.5212 498.534 51.2643 503.326C61.3726 511.762 72.4725 518.949 84.2162 524.861C86.5985 515.768 89.0708 506.7 94.9684 499.063C101.922 512.277 109.455 524.049 115.765 537.122C142.072 544.592 170.079 546.125 196.941 540.973C201.383 540.123 205.117 533.001 206.495 528.686C207.873 524.371 207.616 519.709 206.985 515.227C205.027 501.11 199.774 487.973 192.408 475.892C184.553 477.759 176.608 479.949 170.105 483.8Z" fill="#61A9B8"/>
<path d="M177.638 527.295C115.79 490.91 59.2479 445.534 10.3286 393.024" stroke="#85CCE0" stroke-width="2.5409" stroke-miterlimit="10"/>
<path d="M535.551 498.367C531.804 493.37 527.13 488.926 523.73 483.723C529.396 473.935 536.582 464.829 544.295 456.65C549.343 451.305 554.686 446.204 560.262 441.362C566.546 445.032 572.817 448.716 579.101 452.387C576.989 444.698 575.444 437.974 573.564 430.672C585.102 422.094 597.476 414.572 610.431 408.338C614.281 412.936 617.719 417.908 622.548 421.617C621.659 415.847 621.337 409.729 621.247 403.482C633.326 398.459 645.842 394.518 658.59 391.813C659.376 397.004 659.813 402.246 659.955 407.488C656.453 406.96 653.439 404.5 649.795 404.474C652.963 409.832 655.976 415.783 659.607 421.153C658.513 435.321 655.165 449.321 649.731 462.459C643.305 459.818 637.06 455.826 629.488 453.881C632.296 464.622 633.957 476.047 636.48 486.956C633.3 491.593 629.836 496.023 626.076 500.196C619.444 507.551 611.963 514.093 603.85 519.735C601.108 513.218 598.3 506.739 593.098 501.69C589.338 512.265 584.986 521.834 581.676 532.228C562.889 540.6 542.222 544.721 521.67 543.768C518.271 543.614 514.729 538.707 513.249 535.641C511.755 532.576 511.459 529.085 511.446 525.672C511.394 514.956 513.905 504.627 518.103 494.838C524.155 495.405 530.31 496.191 535.551 498.367Z" fill="#61A9B8"/>
<path d="M534.599 531.545C576.745 497.865 613.985 458.054 644.786 413.748" stroke="#85CCE0" stroke-width="1.9105" stroke-miterlimit="10"/>
<path d="M530.079 544H171.316C163.628 544 157.396 537.766 157.396 530.077V299.878C157.396 292.189 163.628 285.955 171.316 285.955H530.079C537.766 285.955 543.999 292.189 543.999 299.878V530.09C543.999 537.766 537.766 544 530.079 544Z" fill="#101439"/>
<path d="M539.18 417.735C540.678 411.416 536.771 405.079 530.453 403.581C524.136 402.083 517.8 405.991 516.302 412.31C514.804 418.629 518.711 424.966 525.029 426.464C531.347 427.963 537.682 424.055 539.18 417.735Z" fill="#1C2363"/>
<path d="M165.637 458.608C163.577 458.608 161.916 456.933 161.916 454.885V375.083C161.916 373.022 163.577 371.36 165.637 371.36C167.697 371.36 169.358 373.035 169.358 375.083V454.885C169.358 456.946 167.697 458.608 165.637 458.608Z" fill="#1C2363"/>
<path d="M511.459 295.473H174.651V534.469H511.459V295.473Z" fill="#DCE8F4"/>
<path d="M511.459 295.485H174.651V311.546H511.459V295.485Z" fill="#A6AFB8"/>
<path d="M184.437 304.18H180.175V309.602H184.437V304.18Z" fill="#FC6047"/>
<path d="M189.987 300.393H185.725V309.589H189.987V300.393Z" fill="#FC6047"/>
<path d="M195.833 297.778H191.571V309.589H195.833V297.778Z" fill="#FC6047"/>
<path d="M484.701 298.757V299.543C484.701 300.161 484.198 300.676 483.567 300.676H482.306C481.687 300.676 481.172 301.178 481.172 301.809V305.235C481.172 305.854 481.675 306.369 482.306 306.369H483.567C484.186 306.369 484.701 306.871 484.701 307.502V308.288C484.701 308.906 485.203 309.421 485.834 309.421H503.385C504.003 309.421 504.518 308.919 504.518 308.288V298.783C504.518 298.165 504.016 297.649 503.385 297.649H485.821C485.203 297.624 484.701 298.139 484.701 298.757Z" fill="#DCE8F4"/>
<path d="M503.424 308.803H500.295C500.063 308.803 499.883 308.61 499.883 308.391V298.641C499.883 298.409 500.063 298.229 500.295 298.229H503.424C503.656 298.229 503.836 298.422 503.836 298.641V308.391C503.836 308.61 503.656 308.803 503.424 308.803Z" fill="#B7FC47"/>
<path d="M498.569 308.803H495.44C495.208 308.803 495.028 308.61 495.028 308.391V298.641C495.028 298.409 495.221 298.229 495.44 298.229H498.569C498.801 298.229 498.981 298.422 498.981 298.641V308.391C498.981 308.61 498.801 308.803 498.569 308.803Z" fill="#B7FC47"/>
<path d="M493.714 308.803H490.585C490.354 308.803 490.173 308.61 490.173 308.391V298.641C490.173 298.409 490.366 298.229 490.585 298.229H493.714C493.946 298.229 494.127 298.422 494.127 298.641V308.391C494.127 308.61 493.946 308.803 493.714 308.803Z" fill="#B7FC47"/>
<path d="M475.906 303.51C475.906 306.009 473.884 308.031 471.386 308.031C468.888 308.031 466.866 306.009 466.866 303.51C466.866 301.011 468.888 298.989 471.386 298.989C473.871 298.989 475.906 301.011 475.906 303.51Z" fill="#DCE8F4"/>
<path d="M490.161 329.579H195.949V516.051H490.161V329.579Z" fill="#C3CED9"/>
<path d="M490.161 329.579H195.949V345.652H490.161V329.579Z" fill="#A7B1BA"/>
<path d="M484.211 353.999H291.599V361.649H484.211V353.999Z" fill="#E0EDFA"/>
<path d="M397.897 368.553H291.599V376.203H397.897V368.553Z" fill="#E0EDFA"/>
<path d="M348.798 383.12H291.599V390.77H348.798V383.12Z" fill="#E0EDFA"/>
<path d="M484.211 408.364H291.599V416.014H484.211V408.364Z" fill="#E0EDFA"/>
<path d="M397.897 422.918H291.599V430.569H397.897V422.918Z" fill="#E0EDFA"/>
<path d="M348.798 437.485H291.599V445.135H348.798V437.485Z" fill="#E0EDFA"/>
<path d="M484.211 461.454H291.599V469.104H484.211V461.454Z" fill="#E0EDFA"/>
<path d="M397.897 476.008H291.599V483.658H397.897V476.008Z" fill="#E0EDFA"/>
<path d="M348.798 490.575H291.599V498.225H348.798V490.575Z" fill="#E0EDFA"/>
<path d="M282.186 353.999H207.487V396.064H282.186V353.999Z" fill="#E0EDFA"/>
<path d="M207.487 396.051L244.843 375.031L282.186 396.051H207.487Z" fill="#CEDAE6"/>
<path d="M282.186 353.999L244.843 375.031L207.487 353.999H282.186Z" fill="#CEDAE6"/>
<path d="M282.186 408.119H207.487V450.184H282.186V408.119Z" fill="#E0EDFA"/>
<path d="M207.487 450.172L244.843 429.152L282.186 450.172H207.487Z" fill="#CEDAE6"/>
<path d="M282.186 408.119L244.843 429.152L207.487 408.119H282.186Z" fill="#CEDAE6"/>
<path d="M282.186 462.24H207.487V504.305H282.186V462.24Z" fill="#E0EDFA"/>
<path d="M207.487 504.292L244.843 483.272L282.186 504.292H207.487Z" fill="#CEDAE6"/>
<path d="M282.186 462.24L244.843 483.272L207.487 462.24H282.186Z" fill="#CEDAE6"/>
<g opacity="0.44">
<path opacity="0.44" d="M295.011 295.473L174.651 415.873V310.658L189.846 295.473H295.011Z" fill="white"/>
<path opacity="0.44" d="M368.049 295.473L174.651 488.913V435.102L314.249 295.473H368.049Z" fill="white"/>
</g>
<g opacity="0.44">
<path opacity="0.44" d="M511.459 321.49V426.679L403.679 534.469H298.527L511.459 321.49Z" fill="white"/>
<path opacity="0.44" d="M511.459 445.921V499.732L476.717 534.469H422.93L511.459 445.921Z" fill="white"/>
</g>
<path d="M231.477 288.93L331.337 211.536C337.647 206.642 346.467 206.642 352.777 211.536L452.637 288.93V418.629H231.477V288.93Z" fill="#EE8F23"/>
<path d="M427.051 220.191H257.063V407.178H427.051V220.191Z" fill="#FAFAFA"/>
<path d="M416.814 231.448H267.287V237.153H416.814V231.448Z" fill="#DBDBDB"/>
<path d="M394.356 242.898H267.287V248.604H394.356V242.898Z" fill="#DBDBDB"/>
<path d="M373.74 254.361H267.287V260.067H373.74V254.361Z" fill="#DBDBDB"/>
<path d="M373.74 276.359H267.287V282.065H373.74V276.359Z" fill="#DBDBDB"/>
<path d="M346.248 287.358H267.287V293.064H346.248V287.358Z" fill="#DBDBDB"/>
<path d="M421.012 310.4H342.051V316.106H421.012V310.4Z" fill="#DBDBDB"/>
<path d="M421.024 321.631H356.794V327.337H421.024V321.631Z" fill="#DBDBDB"/>
<path d="M342.05 353.818L231.477 289.007V418.629L342.05 353.818Z" fill="#FFAC42"/>
<path d="M342.051 353.818L452.637 289.007V418.629L342.051 353.818Z" fill="#FFAC42"/>
<path d="M331.337 341.234L231.477 418.628H452.637L352.777 341.234C346.467 336.353 337.647 336.353 331.337 341.234Z" fill="#FFBE6E"/>
<path d="M469.303 293.644C471.86 284.44 466.472 274.905 457.27 272.348C448.067 269.79 438.535 275.179 435.978 284.383C433.421 293.588 438.808 303.122 448.011 305.68C457.213 308.237 466.746 302.849 469.303 293.644Z" fill="#FC6D5F"/>
<path d="M448.736 280.236V296.915H444.023V283.881H440.919V280.236H448.736V280.236Z" fill="white"/>
<path d="M462.668 287.745C463.789 288.698 464.342 289.973 464.342 291.557C464.342 292.588 464.072 293.541 463.544 294.404C463.016 295.267 462.205 295.962 461.11 296.477C460.029 296.993 458.677 297.25 457.067 297.25C455.895 297.25 454.723 297.109 453.577 296.825C452.431 296.542 451.44 296.13 450.616 295.615L452.303 292.06C452.972 292.51 453.706 292.845 454.505 293.09C455.303 293.322 456.114 293.451 456.925 293.451C457.737 293.451 458.38 293.296 458.87 292.987C459.359 292.678 459.591 292.24 459.591 291.686C459.591 291.132 459.359 290.707 458.883 290.424C458.406 290.141 457.569 289.999 456.359 289.999H451.826L452.663 280.249H463.287V283.894H456.565L456.346 286.328H457.466C459.823 286.315 461.548 286.792 462.668 287.745Z" fill="white"/>
<path d="M167.568 135.275C170.479 135.391 173.08 136.203 175.385 137.71C177.69 139.216 179.467 141.277 180.716 143.892C181.63 145.824 182.119 147.627 182.158 149.301C182.209 150.976 181.862 152.418 181.153 153.642C180.432 154.865 179.389 155.805 178.012 156.449C176.878 156.99 175.784 157.222 174.754 157.132C173.711 157.055 172.784 156.643 171.959 155.896C171.792 158.266 170.504 160.017 168.083 161.176C166.822 161.782 165.482 162.001 164.066 161.846C162.649 161.692 161.323 161.163 160.087 160.249C158.851 159.335 157.859 158.085 157.099 156.501C156.34 154.917 156.005 153.358 156.056 151.826C156.121 150.293 156.533 148.941 157.318 147.756C158.091 146.571 159.121 145.669 160.409 145.064C162.302 144.162 164.079 144.072 165.753 144.768L165.006 143.196L170.247 140.698L174.908 150.512C175.23 151.195 175.604 151.632 176.003 151.813C176.402 151.993 176.814 151.98 177.252 151.774C178.604 151.13 178.488 149.147 176.904 145.824C175.938 143.789 174.599 142.205 172.887 141.071C171.174 139.938 169.242 139.345 167.079 139.281C164.916 139.216 162.701 139.732 160.435 140.801C158.181 141.87 156.417 143.299 155.129 145.102C153.842 146.893 153.12 148.876 152.966 151.04C152.811 153.204 153.236 155.342 154.254 157.467C155.284 159.631 156.675 161.344 158.439 162.619C160.203 163.881 162.173 164.589 164.349 164.718C166.525 164.847 168.74 164.383 170.994 163.314C173.286 162.22 175.191 160.738 176.724 158.858L179.544 161.73C178.81 162.657 177.818 163.585 176.595 164.512C175.372 165.44 174.071 166.225 172.693 166.882C169.59 168.363 166.538 169.02 163.564 168.866C160.576 168.711 157.911 167.809 155.541 166.174C153.172 164.538 151.318 162.323 149.991 159.515C148.665 156.733 148.124 153.899 148.369 151.04C148.614 148.181 149.618 145.527 151.395 143.106C153.172 140.685 155.631 138.727 158.761 137.233C161.709 135.816 164.658 135.159 167.568 135.275ZM169.217 154.092C169.5 153.165 169.358 152.122 168.805 150.937C168.251 149.778 167.53 149.018 166.641 148.657C165.74 148.297 164.826 148.335 163.886 148.786C162.946 149.237 162.34 149.919 162.057 150.834C161.787 151.748 161.928 152.792 162.469 153.951C163.023 155.11 163.744 155.883 164.632 156.256C165.521 156.63 166.435 156.604 167.388 156.153C168.315 155.702 168.933 155.02 169.217 154.092Z" fill="#BCDFEB"/>
<path d="M460.981 142.115L459.32 147.485L464.085 148.361L463.183 153.268L457.814 152.277L456.05 157.815L450.873 156.862L452.637 151.324L447.95 150.461L446.186 155.999L441.009 155.046L442.774 149.508L437.97 148.619L438.872 143.712L444.28 144.703L445.941 139.333L441.138 138.444L442.04 133.537L447.448 134.529L449.212 128.99L454.388 129.943L452.624 135.482L457.312 136.345L459.076 130.806L464.252 131.759L462.488 137.298L467.291 138.186L466.39 143.094L460.981 142.115ZM455.805 141.162L451.118 140.299L449.457 145.669L454.144 146.532L455.805 141.162Z" fill="#BCDFEB"/>
<path d="M212.702 473.561H148.588C129.131 473.561 113.357 457.783 113.357 438.322C113.357 418.861 129.131 403.083 148.588 403.083H177.471C196.928 403.083 212.702 418.861 212.702 438.322V473.561Z" fill="#FFBE6E"/>
<path d="M163.023 411.674C148.33 411.674 136.381 423.626 136.381 438.322C136.381 453.018 148.33 464.97 163.023 464.97C177.715 464.97 189.665 453.018 189.665 438.322C189.665 423.626 177.715 411.674 163.023 411.674ZM139.832 438.322C139.832 436.532 140.051 434.806 140.437 433.131C141.66 432.578 143.888 431.663 147.03 430.839C146.322 434.844 146.051 439.339 146.695 444.079C144.583 443.525 142.407 442.856 140.154 442.07C139.96 440.846 139.832 439.597 139.832 438.322ZM150.545 430.053C156.417 428.933 164.414 428.417 174.084 430.221C175.011 434.819 175.462 440.138 174.638 445.586C168.496 446.655 160.203 447.003 150.223 444.903C149.245 439.507 149.618 434.419 150.545 430.053ZM177.69 430.993C180.252 431.599 182.918 432.372 185.673 433.338C186.021 434.947 186.227 436.609 186.227 438.322C186.227 439.661 186.085 440.962 185.867 442.237C184.63 442.83 182.003 443.925 178.179 444.852C178.758 439.971 178.424 435.231 177.69 430.993ZM184.399 429.293C181.823 428.469 179.325 427.812 176.917 427.284C175.977 423.407 174.792 420.136 173.814 417.805C178.54 420.29 182.3 424.347 184.399 429.293ZM169.204 415.976C169.783 417.109 171.728 421.076 173.221 426.563C164.542 425.107 157.203 425.416 151.485 426.344C153.018 421.231 155.078 417.573 155.876 416.259C158.13 415.525 160.538 415.113 163.036 415.113C165.173 415.113 167.234 415.435 169.204 415.976ZM150.816 418.629C149.824 420.831 148.717 423.703 147.854 427.052C145.472 427.606 143.476 428.224 141.892 428.804C143.798 424.592 146.914 421.05 150.816 418.629ZM141.171 446.037C143.295 446.732 145.356 447.299 147.365 447.789C148.202 451.318 149.579 454.937 151.691 458.556C146.837 455.813 143.064 451.369 141.171 446.037ZM157.306 460.784C154.228 456.714 152.258 452.593 151.086 448.6C156.005 449.54 160.538 449.939 164.594 449.939C168.032 449.939 171.135 449.669 173.891 449.257C172.874 453.198 171.11 457.152 168.328 460.9C166.628 461.299 164.851 461.531 163.036 461.531C161.053 461.531 159.147 461.248 157.306 460.784ZM173.711 458.904C175.604 455.503 176.853 452.026 177.587 448.574C180.548 447.93 182.956 447.157 184.733 446.475C182.699 451.846 178.746 456.263 173.711 458.904Z" fill="#FAFAFA"/>
<path d="M464.909 517.055H529.023C548.48 517.055 564.254 501.278 564.254 481.816C564.254 462.355 548.48 446.578 529.023 446.578H500.14C480.683 446.578 464.909 462.355 464.909 481.816V517.055Z" fill="#FFBE6E"/>
<path d="M540.96 471.693C540.96 461.724 525.109 453.159 514.575 461.763C504.042 453.159 488.191 461.724 488.191 471.693C488.191 471.693 484.778 491.231 514.575 505.412C544.359 491.244 540.96 471.693 540.96 471.693Z" stroke="#FAFAFA" stroke-width="3.8114" stroke-miterlimit="10" stroke-linejoin="round"/>
<path d="M443.868 51.7246C443.456 51.57 443.057 51.4412 442.645 51.3253C442.529 50.926 442.4 50.5139 442.246 50.1146C441.589 48.4918 440.726 46.8689 439.001 45.2461C437.275 46.8689 436.412 48.4918 435.756 50.1146C435.601 50.5268 435.472 50.926 435.356 51.3382C434.944 51.4541 434.545 51.5829 434.133 51.7375C432.511 52.3943 430.888 53.2573 429.266 54.9831C430.888 56.709 432.511 57.572 434.133 58.2288C434.532 58.3834 434.944 58.5122 435.344 58.6281C435.459 59.0403 435.588 59.4395 435.743 59.8517C436.399 61.4745 437.262 63.0974 439.001 64.7202C440.739 63.0974 441.602 61.4745 442.258 59.8517C442.413 59.4524 442.542 59.0403 442.658 58.641C443.057 58.5251 443.469 58.3963 443.868 58.2417C445.49 57.5848 447.113 56.7219 448.735 54.9831C447.113 53.2444 445.49 52.3814 443.868 51.7246Z" fill="#BCDFEB"/>
<path d="M5.60289 324.246C5.19083 324.091 4.79165 323.963 4.37958 323.847C4.26369 323.448 4.13492 323.035 3.9804 322.636C3.32368 321.013 2.46093 319.39 0.735423 317.768C-0.990081 319.39 -1.85283 321.013 -2.50956 322.636C-2.66408 323.048 -2.79285 323.448 -2.90874 323.86C-3.3208 323.976 -3.71998 324.104 -4.13204 324.259C-5.75453 324.916 -7.37702 325.779 -8.99951 327.505C-7.37702 329.23 -5.75453 330.093 -4.13204 330.75C-3.73286 330.905 -3.3208 331.034 -2.92162 331.15C-2.80572 331.562 -2.67696 331.961 -2.52243 332.373C-1.86571 333.996 -1.00296 335.619 0.735423 337.242C2.4738 335.619 3.33656 333.996 3.99328 332.373C4.1478 331.974 4.27657 331.562 4.39246 331.162C4.79164 331.047 5.20371 330.918 5.60289 330.763C7.22538 330.106 8.84787 329.243 10.4704 327.505C8.84787 325.766 7.22538 324.903 5.60289 324.246Z" fill="#BCDFEB"/>
<path d="M477.451 245.345C477.039 245.191 476.64 245.062 476.228 244.946C476.112 244.547 475.983 244.135 475.828 243.735C475.172 242.112 474.309 240.49 472.584 238.867C470.858 240.49 469.995 242.112 469.339 243.735C469.184 244.147 469.055 244.547 468.939 244.959C468.527 245.075 468.128 245.204 467.716 245.358C466.094 246.015 464.471 246.878 462.849 248.604C464.471 250.33 466.094 251.193 467.716 251.849C468.115 252.004 468.527 252.133 468.927 252.249C469.042 252.661 469.171 253.06 469.326 253.472C469.982 255.095 470.845 256.718 472.584 258.341C474.322 256.718 475.185 255.095 475.841 253.472C475.996 253.073 476.125 252.661 476.241 252.262C476.64 252.146 477.052 252.017 477.451 251.862C479.073 251.205 480.696 250.343 482.318 248.604C480.696 246.865 479.073 246.002 477.451 245.345Z" fill="#BCDFEB"/>
<path d="M646.937 76.9558C646.731 76.8786 646.525 76.8142 646.319 76.7498C646.267 76.5437 646.203 76.3505 646.126 76.1444C645.791 75.333 645.366 74.5216 644.503 73.6973C643.64 74.5087 643.203 75.3201 642.881 76.1444C642.803 76.3505 642.739 76.5566 642.675 76.7626C642.469 76.8142 642.263 76.8914 642.056 76.9687C641.245 77.3036 640.434 77.7286 639.61 78.5916C640.421 79.4545 641.232 79.8924 642.056 80.2144C642.263 80.2917 642.456 80.3561 642.662 80.4076C642.713 80.6137 642.79 80.8197 642.868 81.0258C643.19 81.8372 643.627 82.6487 644.503 83.473C645.379 82.6615 645.804 81.8501 646.138 81.0258C646.216 80.8197 646.28 80.6137 646.332 80.4205C646.538 80.369 646.744 80.3046 646.937 80.2273C647.748 79.9053 648.559 79.4674 649.383 78.5916C648.572 77.7157 647.748 77.2778 646.937 76.9558Z" fill="#DBF6FF"/>
<path d="M697.105 221.956C696.899 221.879 696.693 221.814 696.487 221.75C696.436 221.544 696.371 221.35 696.294 221.144C695.959 220.333 695.534 219.522 694.672 218.697C693.809 219.509 693.371 220.32 693.049 221.144C692.972 221.35 692.907 221.557 692.843 221.763C692.637 221.814 692.431 221.891 692.225 221.969C691.414 222.304 690.602 222.729 689.778 223.592C690.59 224.455 691.401 224.892 692.225 225.214C692.431 225.292 692.624 225.356 692.83 225.408C692.882 225.614 692.946 225.82 693.036 226.026C693.358 226.837 693.796 227.649 694.672 228.473C695.547 227.662 695.972 226.85 696.307 226.026C696.384 225.82 696.449 225.614 696.5 225.42C696.706 225.369 696.912 225.305 697.105 225.227C697.917 224.905 698.728 224.467 699.552 223.592C698.728 222.716 697.917 222.278 697.105 221.956Z" fill="#DBF6FF"/>
<path d="M695.186 218.555C694.98 218.478 694.774 218.414 694.568 218.349C694.517 218.143 694.452 217.95 694.375 217.744C694.04 216.933 693.615 216.121 692.753 215.297C691.89 216.108 691.452 216.92 691.13 217.744C691.053 217.95 690.988 218.156 690.924 218.362C690.718 218.414 690.512 218.491 690.306 218.568C689.495 218.903 688.684 219.328 687.859 220.191C688.671 221.054 689.482 221.492 690.306 221.814C690.512 221.891 690.705 221.956 690.911 222.007C690.963 222.213 691.04 222.419 691.117 222.625C691.439 223.437 691.877 224.248 692.753 225.073C693.628 224.261 694.053 223.45 694.388 222.625C694.465 222.419 694.53 222.213 694.581 222.02C694.787 221.969 694.993 221.904 695.186 221.827C695.998 221.505 696.809 221.067 697.633 220.191C696.809 219.315 695.998 218.877 695.186 218.555Z" fill="#DBF6FF"/>
<path d="M107.176 262.862C106.97 262.784 106.764 262.72 106.558 262.656C106.506 262.449 106.442 262.256 106.365 262.05C106.03 261.239 105.605 260.427 104.742 259.603C103.879 260.414 103.442 261.226 103.12 262.05C103.042 262.256 102.978 262.462 102.914 262.668C102.708 262.72 102.502 262.797 102.295 262.875C101.484 263.209 100.673 263.634 99.8489 264.497C100.66 265.36 101.471 265.798 102.295 266.12C102.502 266.197 102.695 266.262 102.901 266.313C102.952 266.519 103.029 266.726 103.107 266.932C103.429 267.743 103.866 268.554 104.742 269.379C105.618 268.567 106.043 267.756 106.377 266.932C106.455 266.726 106.519 266.532 106.571 266.326C106.777 266.275 106.983 266.21 107.176 266.133C107.987 265.811 108.798 265.373 109.622 264.497C108.798 263.622 107.987 263.184 107.176 262.862Z" fill="#BCDFEB"/>
<path d="M17.6429 520.327C17.4368 520.25 17.2308 520.185 17.0248 520.121C16.9733 519.915 16.9089 519.722 16.8316 519.515C16.4968 518.704 16.0719 517.893 15.2091 517.068C14.3464 517.88 13.9086 518.691 13.5867 519.515C13.5094 519.722 13.445 519.928 13.3806 520.134C13.1746 520.185 12.9686 520.263 12.7625 520.34C11.9513 520.675 11.14 521.1 10.3159 521.963C11.1272 522.826 11.9384 523.263 12.7625 523.585C12.9686 523.663 13.1617 523.727 13.3677 523.779C13.4193 523.985 13.4965 524.191 13.5738 524.397C13.8957 525.208 14.3335 526.02 15.2091 526.844C16.0848 526.033 16.5097 525.221 16.8445 524.397C16.9218 524.191 16.9861 523.985 17.0377 523.792C17.2437 523.74 17.4497 523.676 17.6429 523.598C18.4541 523.276 19.2654 522.838 20.0895 521.963C19.2782 521.087 18.467 520.649 17.6429 520.327Z" fill="#BCDFEB"/>
<path d="M364.121 133.627C363.915 133.549 363.709 133.485 363.503 133.421C363.452 133.215 363.387 133.021 363.31 132.815C362.975 132.004 362.55 131.192 361.688 130.368C360.825 131.18 360.387 131.991 360.065 132.815C359.988 133.021 359.924 133.227 359.859 133.434C359.653 133.485 359.447 133.562 359.241 133.64C358.43 133.974 357.619 134.4 356.794 135.262C357.606 136.125 358.417 136.563 359.241 136.885C359.447 136.963 359.64 137.027 359.846 137.079C359.898 137.285 359.975 137.491 360.052 137.697C360.374 138.508 360.812 139.32 361.688 140.144C362.563 139.332 362.988 138.521 363.323 137.697C363.4 137.491 363.465 137.297 363.516 137.091C363.722 137.04 363.928 136.975 364.121 136.898C364.933 136.576 365.744 136.138 366.568 135.262C365.744 134.4 364.933 133.962 364.121 133.627Z" fill="#BCDFEB"/>
<path d="M127.637 50.7327C127.431 50.6554 127.225 50.591 127.019 50.5266C126.968 50.3205 126.903 50.1273 126.826 49.9213C126.491 49.1098 126.066 48.2984 125.204 47.4741C124.341 48.2855 123.903 49.097 123.581 49.9213C123.504 50.1273 123.439 50.3334 123.375 50.5395C123.169 50.591 122.963 50.6683 122.757 50.7456C121.946 51.0804 121.134 51.5055 120.31 52.3684C121.122 53.2313 121.933 53.6693 122.757 53.9912C122.963 54.0685 123.156 54.1329 123.362 54.1844C123.414 54.3905 123.491 54.5966 123.568 54.8027C123.89 55.6141 124.328 56.4255 125.204 57.2498C126.079 56.4384 126.504 55.627 126.839 54.8027C126.916 54.5966 126.981 54.3905 127.032 54.1973C127.238 54.1458 127.444 54.0814 127.637 54.0041C128.449 53.6821 129.26 53.2442 130.084 52.3684C129.26 51.4926 128.449 51.0676 127.637 50.7327Z" fill="#BCDFEB"/>
<path d="M632.991 270.319C632.785 270.242 632.579 270.177 632.373 270.113C632.321 269.907 632.257 269.714 632.18 269.508C631.845 268.696 631.42 267.885 630.557 267.061C629.695 267.872 629.257 268.683 628.935 269.508C628.858 269.714 628.793 269.92 628.729 270.126C628.523 270.177 628.317 270.255 628.111 270.332C627.299 270.667 626.488 271.092 625.664 271.955C626.475 272.818 627.287 273.256 628.111 273.578C628.317 273.655 628.51 273.719 628.716 273.771C628.767 273.977 628.845 274.183 628.922 274.389C629.244 275.201 629.682 276.012 630.557 276.836C631.433 276.025 631.858 275.213 632.193 274.389C632.27 274.183 632.334 273.977 632.386 273.784C632.592 273.732 632.798 273.668 632.991 273.591C633.802 273.269 634.614 272.831 635.438 271.955C634.614 271.079 633.802 270.654 632.991 270.319Z" fill="#BCDFEB"/>
<path d="M391.343 185.03C391.137 184.952 390.931 184.888 390.725 184.823C390.673 184.617 390.609 184.424 390.532 184.218C390.197 183.407 389.772 182.595 388.909 181.771C388.047 182.582 387.609 183.394 387.287 184.218C387.21 184.424 387.145 184.63 387.081 184.836C386.875 184.888 386.669 184.965 386.463 185.042C385.651 185.377 384.84 185.802 384.016 186.665C384.827 187.528 385.639 187.966 386.463 188.288C386.669 188.365 386.862 188.43 387.068 188.481C387.119 188.687 387.197 188.893 387.274 189.1C387.596 189.911 388.034 190.722 388.909 191.547C389.785 190.735 390.21 189.924 390.545 189.1C390.622 188.893 390.686 188.687 390.738 188.494C390.944 188.443 391.15 188.378 391.343 188.301C392.154 187.979 392.966 187.541 393.79 186.665C392.978 185.789 392.154 185.352 391.343 185.03Z" fill="#DBF6FF"/>
<path d="M299.286 88.3805C298.926 88.2388 298.565 88.1229 298.205 88.0328C298.102 87.6721 297.986 87.3244 297.857 86.9637C297.277 85.5341 296.518 84.1045 294.998 82.6748C293.479 84.1045 292.719 85.5341 292.14 86.9637C291.998 87.3244 291.882 87.685 291.792 88.0328C291.431 88.1358 291.071 88.2517 290.723 88.3805C289.294 88.9601 287.864 89.72 286.435 91.2398C287.864 92.7596 289.294 93.5195 290.723 94.0991C291.084 94.2279 291.431 94.3438 291.792 94.4468C291.895 94.8075 292.011 95.1681 292.14 95.5287C292.719 96.9584 293.479 98.388 295.011 99.8177C296.543 98.388 297.303 96.9584 297.883 95.5287C298.011 95.1681 298.127 94.8204 298.23 94.4597C298.591 94.3567 298.939 94.2408 299.299 94.112C300.728 93.5324 302.158 92.7725 303.587 91.2398C302.145 89.72 300.716 88.9601 299.286 88.3805Z" fill="#BCDFEB"/>
<path d="M80.6751 192.371C80.3146 192.229 79.954 192.113 79.5934 192.023C79.4904 191.662 79.3745 191.315 79.2458 190.954C78.6663 189.524 77.9066 188.095 76.3871 186.665C74.8676 188.095 74.1079 189.524 73.5284 190.954C73.3868 191.315 73.2709 191.675 73.1808 192.023C72.8202 192.126 72.4597 192.242 72.112 192.371C70.6826 192.95 69.2533 193.71 67.824 195.23C69.2533 196.75 70.6826 197.51 72.112 198.089C72.4725 198.231 72.8202 198.347 73.1808 198.437C73.2838 198.798 73.3997 199.158 73.5284 199.519C74.1079 200.949 74.8676 202.378 76.4 203.808C77.9323 202.378 78.6921 200.949 79.2715 199.519C79.4003 199.158 79.5162 198.811 79.6192 198.45C79.9798 198.347 80.3274 198.231 80.688 198.102C82.1173 197.523 83.5467 196.763 84.976 195.23C83.5338 193.71 82.1044 192.95 80.6751 192.371Z" fill="#BCDFEB"/>
<path d="M542.724 157.776C542.363 157.634 542.003 157.518 541.642 157.428C541.539 157.068 541.423 156.72 541.295 156.359C540.715 154.93 539.955 153.5 538.436 152.07C536.916 153.5 536.157 154.93 535.577 156.359C535.436 156.72 535.32 157.081 535.23 157.428C534.869 157.531 534.509 157.647 534.161 157.776C532.732 158.356 531.302 159.116 529.873 160.635C531.302 162.155 532.732 162.915 534.161 163.495C534.521 163.623 534.869 163.739 535.23 163.842C535.333 164.203 535.449 164.564 535.577 164.924C536.157 166.354 536.916 167.784 538.449 169.213C539.981 167.784 540.741 166.354 541.32 164.924C541.449 164.564 541.565 164.216 541.668 163.855C542.029 163.752 542.376 163.636 542.737 163.507C544.166 162.928 545.596 162.168 547.025 160.635C545.57 159.116 544.14 158.356 542.724 157.776Z" fill="#DBF6FF"/>
<path d="M756.712 109.657C756.351 109.516 755.991 109.4 755.63 109.31C755.527 108.949 755.411 108.601 755.283 108.241C754.703 106.811 753.944 105.381 752.424 103.952C750.905 105.381 750.145 106.811 749.565 108.241C749.424 108.601 749.308 108.962 749.218 109.31C748.857 109.413 748.497 109.529 748.149 109.657C746.72 110.237 745.29 110.997 743.861 112.517C745.29 114.036 746.72 114.796 748.149 115.376C748.509 115.518 748.857 115.621 749.218 115.724C749.321 116.084 749.437 116.445 749.565 116.806C750.145 118.235 750.905 119.665 752.437 121.095C753.969 119.665 754.729 118.235 755.308 116.806C755.437 116.445 755.553 116.097 755.656 115.737C756.017 115.634 756.364 115.518 756.725 115.389C758.154 114.809 759.584 114.049 761.013 112.517C759.571 110.997 758.141 110.237 756.712 109.657Z" fill="#DBF6FF"/>
<path d="M532.191 43.546C531.83 43.4044 531.47 43.2884 531.109 43.1983C531.006 42.8377 530.89 42.4899 530.761 42.1293C530.182 40.6996 529.422 39.27 527.903 37.8403C526.383 39.27 525.623 40.6996 525.044 42.1293C524.902 42.4899 524.787 42.8505 524.696 43.1983C524.336 43.3013 523.975 43.4172 523.628 43.546C522.198 44.1256 520.769 44.8855 519.34 46.4053C520.769 47.9251 522.198 48.685 523.628 49.2646C523.988 49.4063 524.336 49.5093 524.696 49.6124C524.799 49.973 524.915 50.3336 525.044 50.6943C525.623 52.1239 526.383 53.5536 527.916 54.9832C529.448 53.5536 530.208 52.1239 530.787 50.6943C530.916 50.3336 531.032 49.9859 531.135 49.6253C531.495 49.5222 531.843 49.4063 532.204 49.2775C533.633 48.6979 535.062 47.938 536.492 46.4053C535.049 44.8855 533.62 44.1256 532.191 43.546Z" fill="#DBF6FF"/>
</g>
<defs>
<clipPath id="clip0">
<rect width="773" height="544" fill="white" transform="translate(-12)"/>
</clipPath>
</defs>
</svg>
