<svg width="689" height="500" viewBox="0 0 689 500" fill="none" xmlns="http://www.w3.org/2000/svg">
<path d="M68.3667 42.4943C113.487 113.723 224.77 177.193 224.77 177.193C224.77 177.193 136.318 170.009 92.4116 112.861L108.314 99.6748C108.314 99.6748 95.6687 100.888 85.0672 102.133C75.3279 85.9464 69.0053 66.3115 68.3667 42.4943Z" fill="#EF8188"/>
<path d="M186.803 71.9625C179.938 75.0914 169.783 79.8165 169.783 79.8165L179.555 65.7688C168.155 56.8932 155.606 50.9868 143.184 47.1237C138.139 54.4668 132.231 62.64 132.231 62.64L131.05 43.931C97.7445 36.7475 68.335 42.4943 68.335 42.4943C113.487 113.723 224.771 177.193 224.771 177.193C224.26 124.865 208.325 92.204 186.803 71.9625Z" fill="#F39FA4"/>
<path d="M51.7622 142.999C65.046 135.209 78.5213 130.995 91.6135 129.271C95.5731 133.772 100.395 139.072 100.395 139.072L100.65 128.473C150.975 126.046 193.413 157.749 193.413 157.749C164.642 175.277 139.863 180.162 119.426 178.725C118.149 175.022 116.297 169.498 116.297 169.498L112.88 178.023C103.077 176.618 94.3916 173.776 86.8556 170.296C88.6758 165.859 90.5598 160.814 90.5598 160.814L79.8306 166.689C61.4376 156.281 51.7622 142.999 51.7622 142.999Z" fill="#62E3ED"/>
<path d="M119.426 178.725C118.149 175.022 116.297 169.498 116.297 169.498L112.88 178.023C103.077 176.618 94.3913 173.777 86.8553 170.297C88.6755 165.859 90.5595 160.814 90.5595 160.814L79.8303 166.689C61.4054 156.281 51.73 142.967 51.73 142.967C110.262 136.263 193.381 157.717 193.381 157.717C164.642 175.277 139.863 180.162 119.426 178.725Z" fill="#31DAE7"/>
<path d="M81.5546 166.848C81.5546 166.88 81.5546 166.88 81.5227 166.912C81.3311 167.423 81.1714 167.966 81.0118 168.509C80.9479 168.7 80.916 168.86 80.8521 169.051C80.7882 169.243 80.7563 169.435 80.7244 169.626C80.6925 169.818 80.6286 170.009 80.5967 170.233C80.5647 170.424 80.5328 170.616 80.4689 170.807C80.437 171.031 80.4051 171.222 80.3412 171.446C80.3093 171.637 80.2773 171.797 80.2454 171.989C80.2135 172.212 80.1815 172.468 80.1496 172.691C80.1177 172.851 80.1177 173.042 80.0857 173.202C80.0538 173.457 80.0538 173.745 80.0219 174C80.0219 174.128 79.9899 174.287 79.9899 174.415C79.958 174.83 79.958 175.245 79.958 175.66V368.241C79.958 368.688 79.958 369.135 79.9899 369.582C80.0219 370.476 80.1177 371.338 80.2454 372.2C80.3093 372.615 80.3731 373.062 80.4689 373.477C82.7042 384.46 91.9006 392.921 103.268 394.07C104.131 394.166 105.025 394.198 105.919 394.198H426.454H499.578C510.819 394.198 520.398 387.046 524.007 377.053C524.038 377.021 524.933 373.892 524.965 373.669C524.996 373.477 525.539 368.625 525.539 368.21V175.692C525.539 174.798 525.507 173.904 525.412 173.042C524.166 160.814 514.459 151.109 502.229 149.864C501.367 149.768 500.473 149.736 499.578 149.736H179.107H105.983C94.7426 149.704 85.1629 156.855 81.5546 166.848Z" fill="#493262"/>
<path d="M115.394 162.329L115.394 381.665H490.182V162.329L115.394 162.329Z" fill="#EADCFF"/>
<path d="M103.62 226.04V317.542C103.62 318.181 103.109 318.723 102.438 318.723H100.107C99.4686 318.723 98.9258 318.213 98.9258 317.542V226.04C98.9258 225.402 99.4367 224.859 100.107 224.859H102.438C103.109 224.859 103.62 225.402 103.62 226.04Z" fill="#EADCFF"/>
<path opacity="0.3" d="M508.264 261.319C514.203 261.319 519.025 266.14 519.025 272.079C519.025 278.017 514.203 282.838 508.264 282.838C502.324 282.838 497.503 278.017 497.503 272.079C497.471 266.14 502.292 261.319 508.264 261.319Z" fill="#4F3967"/>
<path d="M512.734 268.886V275.303C512.734 276.006 512.159 276.58 511.457 276.58H505.039C504.336 276.58 503.761 276.006 503.761 275.303V268.886C503.761 268.184 504.336 267.609 505.039 267.609H511.457C512.159 267.609 512.734 268.184 512.734 268.886ZM504.112 275.303C504.112 275.814 504.528 276.229 505.039 276.229H511.457C511.968 276.229 512.383 275.814 512.383 275.303V268.886C512.383 268.375 511.968 267.96 511.457 267.96H505.039C504.528 267.96 504.112 268.375 504.112 268.886V275.303Z" fill="#4F3967"/>
<path d="M468.039 162.315V381.651H490.2V162.315H468.039Z" fill="#31DAE7"/>
<path d="M115.386 162.321L115.386 381.657H135.28V162.321H115.386Z" fill="#31DAE7"/>
<path d="M79.9262 282.008V334.367C79.9262 334.367 38.4783 396.05 38.1271 385.322C37.7758 374.563 27.7172 323.768 31.8683 318.659C36.0515 313.519 68.6542 271.217 68.6542 271.217L79.9262 282.008Z" fill="#EE7980"/>
<path d="M143.152 253.689C111.539 255.03 110.294 307.836 91.3578 328.621C81.9378 338.933 73.1245 339.667 66.4187 337.496C56.1685 334.176 51.2829 322.491 55.7215 312.657C62.4911 297.588 79.958 284.626 79.958 284.626V246.952L26.6313 294.172C19.7659 300.27 15.1038 308.475 13.4433 317.51C0.319193 389.505 26.5674 522 26.5674 522H126.068L111.156 454.22C140.15 423.794 136.542 353.491 137.979 324.502C139.096 302.377 145.674 273.068 148.74 260.457C149.602 256.881 146.792 253.529 143.152 253.689Z" fill="#F6B5B9"/>
<path d="M146.824 258.733L143.216 271.951C142.769 273.579 141.332 274.728 139.671 274.792C136.542 274.952 131.72 274.633 130.156 271.664C127.793 267.098 135.265 258.127 137.723 256.147C140.15 254.232 147.591 255.924 146.824 258.733Z" fill="#F0898F"/>
<path d="M473.171 273.962C473.171 273.962 451.17 275.814 450.403 281.656C449.637 287.499 451.329 297.811 472.117 299.823H493.639C493.639 299.823 487.189 281.976 487.508 281.369C487.796 280.763 473.171 273.962 473.171 273.962Z" fill="#F2999E"/>
<path d="M437.854 361.186C434.884 362.782 433.83 366.549 435.523 369.455C445.645 386.919 485.912 456.327 489.552 461.978C493.703 468.427 503.858 483.688 537.578 491.51C571.266 499.364 585.125 521.968 585.125 521.968H689C689 521.968 664.54 483.177 644.231 382.577C644.231 382.577 628.521 299.025 598.983 301.802C598.983 301.802 580.974 282.87 563.443 286.573C563.443 286.573 530.202 266.715 511.266 266.715L465.794 212.982C461.292 207.651 453.373 206.629 447.817 210.843C446.028 212.216 444.687 214.004 444.304 216.367C442.931 225.146 454.459 247.303 472.915 274.058C491.372 300.844 537.099 385.769 517.237 423.155C517.237 423.155 496.928 407.926 479.366 383.47C464.709 363.005 447.433 356.109 437.854 361.186Z" fill="#F6B5B9"/>
<path d="M511.426 266.747C517.461 271.919 523.113 277.506 528.446 283.381C531.128 286.318 533.714 289.351 536.237 292.416C538.76 295.513 541.154 298.673 543.486 301.898C544.667 303.526 545.753 305.155 546.87 306.815C547.956 308.475 549.074 310.135 550.095 311.859C552.171 315.275 554.151 318.723 555.875 322.331L556.546 323.672C556.769 324.119 556.961 324.566 557.184 325.045C557.6 325.971 558.015 326.865 558.398 327.79L559.515 330.568C559.867 331.494 560.186 332.452 560.537 333.378C560.889 334.304 561.144 335.261 561.431 336.219L561.847 337.656C562.006 338.135 562.102 338.614 562.23 339.093L562.581 340.529C562.709 341.008 562.836 341.487 562.9 341.998L563.411 344.935L563.283 344.967C562.453 341.104 561.272 337.305 559.867 333.633C558.462 329.93 556.769 326.354 554.949 322.842C554.055 321.086 553.065 319.362 552.107 317.638C551.085 315.946 550.095 314.222 549.042 312.562C547.988 310.869 546.902 309.241 545.817 307.581C544.699 305.953 543.581 304.324 542.4 302.728C537.802 296.279 532.82 290.117 527.647 284.115C525.061 281.114 522.41 278.177 519.696 275.303C516.982 272.43 514.204 269.588 511.362 266.843L511.426 266.747Z" fill="#F0898F"/>
<path d="M563.124 286.414C568.041 288.936 572.416 292.416 576.28 296.375C578.227 298.354 580.016 300.493 581.708 302.696C583.368 304.931 584.869 307.262 586.274 309.688C589.02 314.541 591.096 319.713 592.501 325.077C592.82 326.418 593.204 327.759 593.427 329.131C593.555 329.802 593.683 330.504 593.81 331.175L594.098 333.218L594.225 334.24C594.257 334.591 594.289 334.942 594.321 335.261L594.481 337.305C594.577 338.677 594.577 340.05 594.609 341.423H594.481C594.034 335.996 593.044 330.6 591.479 325.364C590.681 322.746 589.787 320.16 588.701 317.67C588.19 316.393 587.584 315.179 587.009 313.934C586.37 312.721 585.763 311.508 585.093 310.327C582.442 305.57 579.185 301.132 575.513 297.077C573.661 295.066 571.713 293.15 569.67 291.362C567.594 289.606 565.423 287.914 563.124 286.477V286.414Z" fill="#F0898F"/>
<path d="M598.632 301.419C601.666 303.718 604.156 306.591 606.392 309.656L607.222 310.806C607.509 311.189 607.733 311.604 607.988 311.987C608.499 312.785 609.01 313.583 609.457 314.413C609.681 314.828 609.904 315.243 610.128 315.658C610.351 316.073 610.607 316.488 610.798 316.903L612.044 319.458C612.235 319.873 612.427 320.32 612.586 320.767L613.129 322.076L613.672 323.385C613.832 323.832 613.991 324.279 614.119 324.726L614.981 327.439C615.237 328.365 615.46 329.259 615.684 330.185C616.195 332.005 616.418 333.888 616.706 335.74L616.801 336.443L616.865 337.145C616.897 337.624 616.961 338.071 616.961 338.55L617.057 339.955L617.121 341.359L616.993 341.391L616.514 338.646L616.291 337.273L616.163 336.57L616.003 335.9L615.365 333.186C615.237 332.739 615.173 332.26 615.045 331.845L614.662 330.504C614.407 329.61 614.151 328.716 613.864 327.822L612.938 325.172C612.778 324.726 612.65 324.279 612.459 323.864L611.916 322.586L611.373 321.309C611.181 320.894 611.022 320.447 610.83 320.032L609.649 317.51C609.234 316.68 608.786 315.85 608.371 315.02C607.956 314.19 607.445 313.392 606.998 312.593C606.775 312.178 606.519 311.795 606.296 311.38L605.529 310.199C603.486 307.07 601.25 304.069 598.6 301.451L598.632 301.419Z" fill="#F0898F"/>
<path d="M458.833 382.704C459.759 378.043 454.299 370.604 449.349 365.017C446.252 361.537 441.398 360.228 437.119 361.697C434.724 363.484 433.99 366.837 435.523 369.487C438.237 374.18 443.154 382.608 448.934 392.57C453.245 390.335 457.971 387.014 458.833 382.704Z" fill="#F0898F"/>
<path d="M463.208 234.086C465.826 233.575 477.737 229.584 477.034 227.413L465.283 213.525C462.952 210.779 459.695 209.151 456.31 208.832C456.278 208.832 456.278 208.832 456.247 208.832C456.151 208.832 455.927 208.8 455.64 208.8C454.075 208.8 450.179 209.247 449.317 213.525C448.487 217.739 455.448 227.988 458.514 232.234C459.599 233.703 461.42 234.437 463.208 234.086Z" fill="#F0898F"/>
<path opacity="0.2" d="M585.125 522H689C689 522 672.97 496.586 656.078 433.468C648.67 479.921 607.765 477.239 591.543 479.825C572.863 482.794 500.313 467.661 490.159 462.904C494.693 469.8 505.39 484.039 537.578 491.51C571.266 499.364 585.125 522 585.125 522Z" fill="#F6B5B9"/>
<path opacity="0.2" d="M478.439 282.519C498.812 315.243 535.342 390.399 517.269 423.187L529.275 435.032C529.275 435.032 559.579 401.445 511.361 327.375C500.121 310.167 488.945 295.257 478.439 282.519Z" fill="#F6B5B9"/>
<path d="M155.988 243.823C155.988 244.015 155.733 244.143 155.573 244.015C154.264 243.089 150.177 240.152 149.857 240.439C149.474 240.759 153.083 243.472 152.955 243.919C152.827 244.366 149.378 241.621 149.027 242.036C148.676 242.451 151.901 244.845 151.837 245.069C151.741 245.292 148.421 243.345 148.069 243.472C147.718 243.6 151.039 246.122 151.007 246.41C150.975 246.697 148.133 245.739 148.005 245.963C147.878 246.186 147.782 246.346 153.594 250.368L156.914 252.731L158.511 252.061L159.884 249.251C159.884 249.251 157.042 240.599 156.691 240.503C156.34 240.407 156.116 240.663 155.988 243.823Z" fill="#F6B5B9"/>
<path d="M192.551 245.611L186.931 244.302L182.141 244.845C180.576 251.262 175.371 254.455 174.126 255.221C171.508 256.85 158.479 246.442 158.479 246.442L156.116 251.901C156.116 251.901 170.965 268.726 178.149 264.384C185.334 260.042 192.008 247.112 192.008 247.112L192.551 245.611Z" fill="#F6B5B9"/>
<path d="M243.61 235.938H266.346L267.4 246.346C267.4 246.346 260.023 248.325 259.321 247.846C258.65 247.367 246.356 244.366 246.356 244.079C246.356 243.792 239.97 242.419 240.257 242.259C240.545 242.1 240.736 235.906 240.736 235.906H243.61V235.938Z" fill="#F3A4A9"/>
<path d="M276.309 227.477L277.459 237.821L276.82 238.619C272.637 243.887 266.027 246.601 259.353 245.835L261.748 228.179L276.309 227.477Z" fill="#F6B5B9"/>
<path d="M260.215 239.418L261.748 228.179L276.309 227.477L276.947 233.192C274.297 235.459 268.932 238.875 260.215 239.418Z" fill="#F0858B"/>
<path d="M250.986 209.726C251.689 212.216 250.667 214.674 248.687 215.249C246.708 215.824 244.504 214.259 243.802 211.801C243.099 209.311 244.121 206.852 246.101 206.278C248.113 205.703 250.284 207.236 250.986 209.726Z" fill="#F0858B"/>
<path d="M250.188 223.71C249.709 222.624 249.326 221.475 249.039 220.294C248.24 217.101 248.017 213.812 248.049 210.939C248.049 210.332 248.017 209.726 247.985 209.087C247.825 206.629 248.113 204.043 248.975 201.457C251.721 193.124 259.8 187.505 268.581 187.792C280.396 188.175 289.082 198.456 287.868 209.885C289.177 209.343 290.614 209.311 291.764 210.013C293.999 211.322 294.51 214.642 292.882 217.452C291.253 220.262 288.092 221.475 285.857 220.166C285.537 219.974 285.282 219.751 285.026 219.495C282.983 229.105 274.201 235.746 264.654 234.565C259.991 233.99 255.936 231.627 253.094 228.243C252.902 228.052 252.711 227.796 252.487 227.541C251.497 226.391 250.763 225.082 250.188 223.71Z" fill="#F6B5B9"/>
<path d="M269.092 210.684C268.964 211.642 269.667 212.504 270.593 212.631C271.551 212.759 272.413 212.057 272.541 211.131C272.669 210.173 271.966 209.311 271.04 209.183C270.082 209.055 269.22 209.726 269.092 210.684Z" fill="#493262"/>
<path d="M254.052 209.79C253.924 210.747 254.627 211.61 255.585 211.737C256.543 211.865 257.405 211.163 257.533 210.205C257.66 209.247 256.958 208.385 256 208.257C255.042 208.129 254.18 208.832 254.052 209.79Z" fill="#493262"/>
<path d="M267.432 206.98C268.326 206.725 269.156 206.565 270.018 206.469C270.848 206.374 271.679 206.406 272.445 206.533C273.243 206.693 274.01 206.916 274.744 207.299L275.032 207.427C275.127 207.459 275.223 207.523 275.319 207.587L275.894 207.906C276.277 208.13 276.628 208.417 277.043 208.64C276.852 208.225 276.596 207.842 276.309 207.459C275.989 207.14 275.702 206.725 275.287 206.469C274.553 205.863 273.627 205.48 272.669 205.288C271.711 205.128 270.721 205.192 269.795 205.512C268.901 205.831 268.038 206.31 267.432 206.98Z" fill="#493262"/>
<path d="M260.407 206.469C259.896 205.703 259.129 205.096 258.299 204.65C257.437 204.234 256.479 204.011 255.489 204.011C254.531 204.043 253.541 204.298 252.711 204.777C252.264 204.969 251.945 205.32 251.562 205.607C251.242 205.927 250.923 206.31 250.667 206.661C251.115 206.501 251.498 206.278 251.913 206.118L252.52 205.895C252.615 205.863 252.711 205.799 252.807 205.767L253.126 205.671C253.925 205.384 254.723 205.288 255.521 205.256C256.319 205.224 257.15 205.32 257.948 205.543C258.746 205.799 259.577 206.118 260.407 206.469Z" fill="#493262"/>
<path d="M263.153 206.469C263.377 207.714 263.408 208.96 263.281 210.237C263.217 210.875 263.121 211.514 262.93 212.152C262.738 212.791 262.482 213.429 261.972 214.004L261.748 214.196L261.556 214.355C261.461 214.451 261.365 214.515 261.301 214.611C261.141 214.77 261.046 214.962 260.982 215.185C260.822 215.6 260.95 216.079 261.205 216.526C261.748 217.452 262.834 218.091 263.983 218.506C262.738 218.57 261.333 218.186 260.407 217.069C259.96 216.526 259.672 215.728 259.864 214.898C259.896 214.706 259.96 214.515 260.088 214.323C260.183 214.132 260.279 213.972 260.407 213.844C260.535 213.685 260.694 213.589 260.822 213.461C260.918 213.397 260.918 213.365 260.982 213.334L261.109 213.206C261.429 212.855 261.684 212.344 261.876 211.801C262.099 211.258 262.227 210.684 262.387 210.109C262.642 208.928 262.866 207.714 263.153 206.469Z" fill="#F0858B"/>
<path d="M303.419 381.651C306.549 380.246 308.305 379.288 308.305 379.288L306.421 293.916C306.421 293.916 322.355 263.905 317.118 251.326C311.881 238.779 279.502 235.938 279.502 235.938C268.39 248.229 258.108 239.035 258.108 239.035C258.108 239.035 252.839 238.747 243.291 239.96C233.711 241.174 232.498 253.944 232.498 253.944L225.664 252.124L220.012 292.48L218.607 381.651H303.419Z" fill="#EE7980"/>
<path d="M248.304 181.726C252.168 179.396 259.353 177.225 266.665 177.001C264.941 175.852 263.887 174.926 264.334 174.607C267.815 171.989 279.279 178.502 282.919 180.705C283.589 179.779 285.952 176.937 288.443 178.214C291.413 179.715 285.857 182.173 285.857 182.173C285.857 182.173 289.848 182.556 290.774 184.663C291.477 186.228 289.05 185.972 287.741 185.717C288.156 185.845 288.731 186.132 289.369 186.643C289.369 186.643 294.925 191.081 294.446 193.699C294.319 194.337 293.776 194.401 293.041 194.114C293.744 196.796 294.893 201.904 293.935 202.606C293.393 202.989 292.85 202.702 292.403 202.223C291.732 206.342 290.646 209.598 290.646 209.598C285.857 208.864 281.929 214.068 281.929 214.068C282.951 207.651 278.097 195.646 278.097 195.646C278.097 195.646 259.992 203.468 262.929 198.073C262.929 198.073 241.663 205.512 246.037 195.167C246.037 195.167 237.895 194.688 247.378 186.547C247.346 186.515 241.375 185.941 248.304 181.726Z" fill="#493262"/>
<path d="M199.289 233.894L206.601 233.064L220.587 233.447L223.302 239.897L218.895 243.664C218.895 243.664 216.213 246.154 212.828 245.548C209.443 244.909 216.947 246.058 208.9 244.685C200.885 243.313 199.384 243.823 199.512 242.355C199.64 240.886 198.874 239.833 199.001 238.492C199.161 237.151 199.289 233.894 199.289 233.894Z" fill="#F6B5B9"/>
<path d="M239.331 298.737C239.331 298.737 236.362 296.343 235.723 296.598C235.084 296.854 221.832 297.205 221.864 301.419C221.896 305.633 224.706 321.341 224.706 321.341L213.722 326.577L211.87 329.578L211.231 339.444C211.231 339.444 212.029 343.179 212.157 343.339C212.285 343.498 214.169 343.977 214.169 343.977L218.927 334.974C222.567 334.335 235.308 331.781 239.299 327.088C243.993 321.565 239.331 298.737 239.331 298.737Z" fill="#F3A4A9"/>
<path d="M222.79 322.267L213.722 326.577L211.87 329.578L211.231 339.444C211.231 339.444 212.029 343.179 212.157 343.339C212.285 343.498 214.169 343.977 214.169 343.977L218.927 334.974C220.172 334.75 222.535 334.303 225.217 333.633C223.429 329.546 222.918 325.172 222.79 322.267Z" fill="#31DAE7"/>
<path d="M214.169 343.977L212.796 346.467C212.157 347.617 210.369 347.298 210.273 346.02L208.772 328.205C208.709 327.567 209.22 327.024 209.858 326.96L213.722 326.577C210.816 338.805 212.349 342.796 214.169 343.977Z" fill="#392054"/>
<path d="M226.399 298.737C226.399 298.737 223.429 296.343 222.791 296.598C222.152 296.854 208.9 297.205 208.932 301.419C208.964 305.633 211.774 321.341 211.774 321.341L200.79 326.577L198.937 329.578L198.299 339.444C198.299 339.444 199.097 343.179 199.225 343.339C199.353 343.498 201.237 343.977 201.237 343.977L205.994 334.974C209.635 334.335 222.376 331.781 226.367 327.088C231.061 321.565 226.399 298.737 226.399 298.737Z" fill="#F6B5B9"/>
<path d="M209.858 322.267L200.79 326.577L198.937 329.578L198.299 339.444C198.299 339.444 199.097 343.179 199.225 343.339C199.353 343.498 201.237 343.977 201.237 343.977L205.994 334.974C207.24 334.75 209.603 334.303 212.285 333.633C210.497 329.546 209.986 325.172 209.858 322.267Z" fill="#31DAE7"/>
<path d="M201.236 343.977L199.863 346.467C199.225 347.617 197.436 347.298 197.341 346.02L195.84 328.205C195.776 327.567 196.287 327.024 196.926 326.96L200.789 326.577C197.884 338.805 199.416 342.796 201.236 343.977Z" fill="#392054"/>
<path d="M199.288 233.894C197.756 234.086 196.127 234.341 194.594 234.724C188.463 236.193 177.83 250.815 177.83 250.815C177.83 250.815 179.586 259.244 189.837 261.479C189.837 261.479 182.205 304.42 203.408 309.465C230.135 315.85 251.21 300.078 251.21 300.078L240.768 286.03C240.768 286.03 232.115 268.088 232.498 253.944C232.498 253.944 233.456 242.131 242.557 240.088L243.61 235.938L220.587 233.447C220.587 233.447 220.811 242.482 211.582 242.706C200.342 242.961 199.288 233.894 199.288 233.894Z" fill="#58E1EC"/>
<g opacity="0.3">
<path opacity="0.3" d="M236.394 275.048C198.267 273.898 192.902 248.517 192.902 248.517L189.837 261.479C189.837 261.479 182.205 304.42 203.408 309.465C230.135 315.85 251.21 300.078 251.21 300.078L240.768 286.03C240.768 286.03 238.533 281.433 236.394 275.048Z" fill="#58E1EC"/>
</g>
<path d="M279.726 285.903C279.726 285.903 274.169 292.416 266.538 292.097C264.175 292.001 207.91 274.441 207.687 274.218C204.11 272.142 192.04 265.693 187.027 269.014C181.087 272.941 180.129 279.518 180.449 281.976C180.768 284.434 184.855 291.075 188.432 287.116C190.124 285.232 195.01 285.584 199.672 286.477C199.672 286.477 253.829 317.734 270.497 316.233C287.198 314.733 297.703 303.367 297.703 303.367C297.703 303.367 287.805 290.468 279.726 285.903Z" fill="#F6B5B9"/>
<path d="M197.181 296.917C192.774 296.886 189.932 301.547 191.976 305.474C192.998 307.453 194.595 309.848 196.862 311.54C201.396 314.892 211.231 315.563 214.808 311.444C218.384 307.326 216.851 307.325 216.851 307.325C216.851 307.325 218.959 304.771 217.362 303.59C217.362 303.59 218.129 301.451 216.692 301.036C216.692 301.036 215.702 300.844 214.84 301.291C214.84 301.291 214.935 299.919 213.339 299.887C211.742 299.887 207.91 302.217 202.929 301.579C199.001 301.068 199.895 299.695 201.747 298.641C202.61 298.163 203.28 297.396 203.599 296.47C203.695 296.215 203.759 295.96 203.791 295.672C203.823 295.066 203.088 294.715 202.641 295.13C201.811 295.864 200.406 296.949 199.129 296.949C198.65 297.013 197.979 296.949 197.181 296.917Z" fill="#F6B5B9"/>
<path d="M192.902 248.517C192.551 250.177 192.168 251.805 191.816 253.433C191.657 254.263 191.433 255.062 191.274 255.892C191.082 256.722 190.922 257.52 190.763 258.35L190.507 259.563L190.284 260.808C190.092 261.638 189.996 262.437 189.805 263.267C189.517 264.927 189.262 266.555 189.006 268.247C188.911 266.555 188.974 264.863 189.166 263.171C189.198 262.756 189.262 262.341 189.326 261.926C189.39 261.511 189.422 261.096 189.517 260.681C189.581 260.266 189.645 259.851 189.741 259.435L189.996 258.19C190.092 257.775 190.188 257.36 190.284 256.945C190.379 256.53 190.475 256.115 190.571 255.7C190.795 254.87 190.986 254.072 191.242 253.274C191.657 251.677 192.232 250.081 192.902 248.517Z" fill="#EADCFF"/>
<path d="M190.188 200.914C190.188 200.914 183.897 195.135 176.425 200.786C168.921 206.438 175.754 214.547 170.677 219.017C170.677 219.017 181.406 218.921 184.632 211.386C187.09 205.671 189.134 204.33 189.996 204.043C190.507 203.851 190.954 203.5 191.146 202.989C191.369 202.415 191.305 201.68 190.188 200.914Z" fill="#493262"/>
<path d="M191.944 199.605C191.114 199.477 190.348 200.052 190.22 200.882L189.709 204.49C189.581 205.384 190.252 206.214 191.146 206.278C191.976 206.342 192.679 205.735 192.775 204.905L193.222 201.265C193.317 200.467 192.743 199.733 191.944 199.605Z" fill="#31DAE7"/>
<path d="M223.142 194.625C223.142 194.625 229.433 188.846 236.905 194.497C244.377 200.148 237.575 208.257 242.652 212.727C242.652 212.727 231.923 212.631 228.698 205.096C226.239 199.382 224.196 198.041 223.333 197.753C222.823 197.562 222.376 197.211 222.184 196.7C221.96 196.093 222.024 195.359 223.142 194.625Z" fill="#493262"/>
<path d="M220.204 194.401C220.907 193.922 221.833 194.114 222.312 194.816L224.323 197.881C224.834 198.647 224.579 199.669 223.78 200.116C223.046 200.499 222.152 200.276 221.705 199.573L219.757 196.476C219.342 195.774 219.533 194.848 220.204 194.401Z" fill="#31DAE7"/>
<path d="M205.068 236.725H215.702V226.094H205.068V236.725Z" fill="#F6B5B9"/>
<path d="M205.036 232.49V226.104H215.67V231.532C213.402 232.745 210.018 233.447 205.036 232.49Z" fill="#F0858B"/>
<path d="M193.445 213.908C193.445 213.908 188.655 201.968 195.489 196.349C202.322 190.73 210.305 190.187 216.053 192.23C221.801 194.273 226.335 203.5 224.643 209.343L206.058 206.469L193.445 213.908Z" fill="#493262"/>
<path d="M222.631 211.865C222.216 213.621 223.046 215.281 224.515 215.568C225.952 215.888 227.485 214.706 227.9 212.95C228.315 211.194 227.485 209.534 226.016 209.247C224.547 208.928 223.014 210.109 222.631 211.865Z" fill="#F0858B"/>
<path d="M223.749 221.475C224.036 220.709 224.291 219.91 224.419 219.08C224.866 216.845 224.898 214.547 224.77 212.567C224.738 212.152 224.738 211.705 224.738 211.29C224.77 209.566 224.451 207.81 223.749 206.054C221.449 200.435 215.446 196.923 209.156 197.498C200.694 198.296 194.882 205.799 196.223 213.621C195.265 213.302 194.243 213.365 193.445 213.876C191.88 214.866 191.657 217.197 192.934 219.08C194.211 220.932 196.51 221.634 198.075 220.645C198.299 220.517 198.49 220.325 198.65 220.166C200.502 226.711 207.048 230.893 213.85 229.648C217.17 229.041 219.981 227.222 221.896 224.763C222.024 224.604 222.152 224.444 222.312 224.252C222.918 223.39 223.397 222.465 223.749 221.475Z" fill="#F6B5B9"/>
<path d="M209.698 213.749C209.826 214.451 209.347 215.121 208.613 215.281C207.878 215.409 207.176 214.962 207.048 214.259C206.92 213.557 207.399 212.887 208.134 212.727C208.836 212.599 209.539 213.046 209.698 213.749Z" fill="#493262"/>
<path d="M220.683 212.28C220.811 212.982 220.332 213.653 219.597 213.812C218.863 213.94 218.161 213.493 218.033 212.791C217.905 212.088 218.384 211.418 219.118 211.258C219.821 211.131 220.523 211.578 220.683 212.28Z" fill="#493262"/>
<path d="M210.529 211.482C209.89 211.258 209.219 211.099 208.549 211.035C207.878 210.971 207.208 211.003 206.569 211.163C206.25 211.226 205.93 211.322 205.643 211.45C205.483 211.514 205.355 211.578 205.196 211.673C205.132 211.705 205.068 211.769 204.972 211.801C204.908 211.833 204.813 211.865 204.749 211.929C204.174 212.28 203.663 212.727 203.184 213.206C203.535 212.631 203.982 212.088 204.525 211.641C204.813 211.418 205.1 211.226 205.419 211.067C205.739 210.907 206.09 210.779 206.441 210.716C207.144 210.556 207.878 210.556 208.581 210.684C208.932 210.748 209.251 210.843 209.602 210.971C209.922 211.099 210.241 211.258 210.529 211.482Z" fill="#493262"/>
<path d="M215.925 210.748C216.149 210.492 216.404 210.237 216.66 210.045C216.947 209.822 217.235 209.63 217.554 209.502C218.192 209.183 218.895 208.992 219.629 208.96C219.981 208.928 220.364 208.96 220.715 209.024C221.066 209.087 221.418 209.183 221.737 209.311C222.376 209.598 222.982 209.981 223.461 210.46C222.855 210.141 222.248 209.854 221.609 209.662C221.545 209.63 221.45 209.63 221.354 209.598C221.258 209.566 221.194 209.566 221.098 209.534C220.939 209.502 220.779 209.47 220.619 209.439C220.3 209.407 219.981 209.375 219.629 209.407C218.959 209.439 218.32 209.566 217.713 209.822C217.075 210.045 216.468 210.364 215.925 210.748Z" fill="#493262"/>
<path d="M196.223 213.653C196.223 213.653 205.42 208.577 209.794 202.191C209.794 202.191 210.114 205.352 209.156 206.597C209.539 206.757 215.893 203.309 216.755 198.168C217.65 193.028 208.741 196.157 208.741 196.157C208.741 196.157 203.408 196.029 203.216 196.157C202.993 196.285 199.576 198.935 199.416 199.126C199.257 199.318 195.265 206.629 195.265 206.629L194.339 209.279L193.413 213.908L196.223 213.653Z" fill="#493262"/>
<path d="M218.512 220.517C218.224 221.858 216.691 222.912 214.807 222.944C212.923 223.007 211.359 222.05 210.976 220.741L218.512 220.517Z" fill="#EADCFF"/>
<path d="M215.254 212.248C215.191 213.014 215.223 213.812 215.382 214.579C215.446 214.962 215.574 215.345 215.702 215.728C215.861 216.111 216.053 216.494 216.404 216.814L216.564 216.941L216.691 217.037C216.755 217.069 216.819 217.101 216.851 217.165C216.947 217.261 217.043 217.356 217.075 217.484C217.202 217.739 217.138 218.027 217.011 218.314C216.723 218.921 216.117 219.368 215.414 219.687C216.18 219.655 217.011 219.336 217.522 218.601C217.777 218.25 217.905 217.739 217.745 217.261C217.713 217.133 217.649 217.037 217.586 216.909C217.522 216.814 217.426 216.718 217.362 216.622C217.266 216.526 217.17 216.462 217.075 216.399C217.011 216.367 217.011 216.335 216.979 216.335L216.883 216.271C216.659 216.079 216.5 215.76 216.34 215.441C216.181 215.121 216.053 214.77 215.925 214.419C215.702 213.717 215.478 212.982 215.254 212.248Z" fill="#F0858B"/>
<path d="M335.735 331.079C335.895 331.111 336.054 330.951 336.118 330.792C336.342 329.961 336.725 327.79 334.777 326.705C334.649 326.641 334.49 326.737 334.394 326.865C334.298 327.024 334.33 327.184 334.426 327.248C336.182 328.237 335.799 330.121 335.607 330.792C335.575 330.951 335.607 331.047 335.735 331.079Z" fill="#EADCFF"/>
<path d="M418.79 227.541C418.981 227.541 419.141 227.317 419.045 227.158C418.247 225.753 415.788 221.315 416.108 221.06C416.491 220.709 418.79 224.636 419.237 224.54C419.684 224.444 417.353 220.709 417.8 220.421C418.247 220.134 420.259 223.614 420.514 223.55C420.738 223.486 419.173 219.942 419.333 219.623C419.492 219.304 421.632 222.88 421.951 222.88C422.271 222.88 421.6 219.91 421.855 219.847C422.111 219.751 422.271 219.655 425.655 225.913L427.635 229.52L426.773 231.053L423.835 232.106C423.835 232.106 415.501 228.307 415.437 227.924C415.341 227.509 415.597 227.349 418.79 227.541Z" fill="#F6B5B9"/>
<path d="M416.491 264.32L411.701 253.657L414.767 252.667C421.377 251.837 427.316 248.165 428.21 247.016C430.126 244.59 421.153 230.382 421.153 230.382L426.869 228.658C426.869 228.658 442.037 245.388 436.864 252.092C431.723 258.797 418.056 264.033 418.056 264.033L416.491 264.32Z" fill="#F6B5B9"/>
<path d="M389.412 246.314L390.69 255.668C390.69 255.668 383.728 260.489 379.481 254.998L380.184 245.324L389.412 246.314Z" fill="#F6B5B9"/>
<path d="M373.83 230.925C374.66 233.192 373.862 235.586 372.042 236.257C370.221 236.927 368.05 235.618 367.22 233.352C366.39 231.085 367.188 228.69 369.008 228.02C370.828 227.349 373 228.626 373.83 230.925Z" fill="#F0858B"/>
<path d="M379.737 251.454L380.184 245.324L389.413 246.314L389.956 250.241C388.199 250.975 384.91 251.869 379.737 251.454Z" fill="#F0858B"/>
<path d="M371.275 237.438C371.084 234.724 370.86 231.979 371.084 229.584C371.116 229.073 371.148 228.563 371.148 228.052C371.179 225.976 371.563 223.837 372.393 221.73C375.043 214.898 381.653 210.556 388.423 211.163C397.555 211.993 403.686 220.932 401.994 230.414C403.048 229.999 404.133 230.063 405.028 230.67C406.688 231.851 406.88 234.661 405.411 236.927C403.974 239.194 401.451 240.088 399.791 238.875C399.567 238.715 399.376 238.524 399.184 238.3C397.013 246.218 388.008 250.209 380.695 248.804C377.119 248.134 371.85 245.899 371.275 237.438Z" fill="#F6B5B9"/>
<path d="M380.695 229.648C380.759 230.414 380.727 231.181 380.568 231.915C380.504 232.298 380.408 232.681 380.248 233.032C380.089 233.415 379.897 233.767 379.578 234.086L379.45 234.182L379.322 234.277C379.259 234.309 379.195 234.341 379.163 234.405C379.067 234.501 378.971 234.597 378.939 234.724C378.811 234.948 378.875 235.267 379.003 235.554C379.29 236.129 379.897 236.576 380.568 236.895C379.833 236.863 379.003 236.576 378.492 235.842C378.237 235.491 378.109 234.98 378.269 234.501C378.301 234.373 378.364 234.277 378.428 234.182C378.492 234.086 378.556 233.99 378.652 233.894C378.716 233.799 378.843 233.735 378.907 233.671C378.971 233.639 378.971 233.607 379.003 233.607L379.067 233.543C379.29 233.352 379.45 233.064 379.61 232.745C379.769 232.426 379.897 232.075 380.025 231.755C380.28 231.085 380.472 230.382 380.695 229.648Z" fill="#F0858B"/>
<path d="M385.197 231.212C385.006 232.011 385.485 232.777 386.283 232.968C387.081 233.16 387.848 232.681 388.039 231.883C388.231 231.085 387.752 230.319 386.954 230.127C386.155 229.967 385.357 230.446 385.197 231.212Z" fill="#493262"/>
<path d="M374.756 229.552C374.564 230.35 375.043 231.117 375.841 231.308C376.64 231.5 377.406 231.021 377.597 230.223C377.789 229.425 377.31 228.658 376.512 228.467C375.713 228.275 374.915 228.754 374.756 229.552Z" fill="#493262"/>
<path d="M384.942 227.764C385.709 227.605 386.411 227.477 387.114 227.413C387.816 227.349 388.487 227.381 389.157 227.541C389.796 227.669 390.467 227.86 391.073 228.211C391.393 228.339 391.68 228.563 391.999 228.722C392.319 228.914 392.606 229.137 392.957 229.329C392.798 228.978 392.606 228.626 392.383 228.307C392.127 228.02 391.904 227.669 391.552 227.445C390.946 226.902 390.179 226.551 389.349 226.392C388.551 226.232 387.689 226.296 386.922 226.519C386.156 226.775 385.453 227.19 384.942 227.764Z" fill="#493262"/>
<path d="M358.662 250.592L337.555 248.421L338.96 253.721L363.643 259.851L358.662 250.592Z" fill="#F3A4A9"/>
<path d="M387.273 218.665C376.288 218.442 376.352 211.801 376.352 211.801L376.639 212.088C377.47 212.631 379.194 212.759 379.194 212.759C377.31 208.034 382.994 207.076 382.994 207.076C382.994 207.076 379.194 210.843 387.72 210.843C396.246 210.843 398.13 213.685 398.13 213.685C398.258 213.94 398.289 214.196 398.289 214.419C398.289 214.419 398.385 214.866 398.162 215.441C398.002 215.952 397.715 216.398 397.363 216.814C396.916 217.324 396.437 217.771 395.863 218.123C394.745 218.857 393.468 219.336 392.19 219.591C391.871 219.687 391.552 219.719 391.232 219.751C390.913 219.783 390.594 219.847 390.243 219.879L389.253 219.91C388.933 219.91 388.614 219.942 388.263 219.91C387.624 219.879 386.954 219.847 386.315 219.783C385.676 219.687 385.038 219.591 384.399 219.463C385.038 219.4 385.676 219.368 386.315 219.336C386.634 219.336 386.954 219.304 387.273 219.272C387.592 219.24 387.912 219.24 388.231 219.208C388.869 219.144 389.476 219.08 390.115 219.016L391.041 218.857C391.36 218.793 391.648 218.761 391.967 218.697L392.861 218.474L393.755 218.186C393.979 218.123 394.202 218.027 394.426 217.931C392.861 218.442 390.562 218.729 387.273 218.665Z" fill="#493262"/>
<path d="M376.352 224.859C375.65 224.508 374.819 224.316 373.989 224.348C373.159 224.38 372.329 224.604 371.658 225.019C371.562 225.051 371.498 225.115 371.403 225.178C371.339 225.498 371.307 225.817 371.275 226.136C371.53 226.04 371.786 225.913 372.041 225.849C372.712 225.625 373.382 225.53 374.021 225.498C374.692 225.466 375.362 225.562 376.033 225.721C376.703 225.881 377.406 226.104 378.108 226.424C377.725 225.753 377.087 225.242 376.352 224.859Z" fill="#493262"/>
<path d="M387.337 237.502C386.634 238.46 385.804 239.258 384.782 239.673C384.271 239.865 383.729 239.992 383.186 239.992C382.898 240.024 382.611 239.96 382.324 239.96C382.036 239.928 381.749 239.865 381.461 239.833C381.717 239.96 382.004 240.088 382.26 240.216C382.547 240.28 382.835 240.407 383.154 240.407C383.761 240.503 384.399 240.375 384.974 240.152C385.549 239.928 386.06 239.545 386.475 239.098C386.858 238.619 387.177 238.077 387.337 237.502Z" fill="#F0858B"/>
<path d="M314.276 198.168C314.276 198.168 301.727 213.078 296.937 221.347C291.604 230.542 282.599 250.56 299.938 259.851C310.732 265.597 329.348 263.778 333.244 259.883C337.139 255.988 346.432 257.552 344.324 216.686C344.324 216.686 318.938 202.351 318.683 202.255C318.459 202.159 314.276 198.168 314.276 198.168Z" fill="#493262"/>
<path opacity="0.3" d="M303.419 381.651C306.549 380.246 308.305 379.288 308.305 379.288L306.421 293.916C306.421 293.916 290.04 369.072 219.086 351.129L218.607 381.619H303.419V381.651Z" fill="#EE7980"/>
<path d="M309.838 253.721C309.838 253.721 337.587 251.262 349.498 252.603C349.498 252.603 349.721 260.106 349.242 260.457C348.763 260.84 343.367 271.727 342.952 272.079C342.505 272.462 335.767 274.09 335.767 274.09C335.767 274.09 331.52 272.206 329.7 271.6C327.88 270.961 323.984 269.461 322.866 268.088C321.749 266.715 313.989 262.341 313.606 262.341C313.223 262.341 309.838 253.721 309.838 253.721Z" fill="#F6B5B9"/>
<path d="M413.17 250.209C407.997 250.688 392.159 253.721 392.159 253.721C383.633 258.669 378.173 252.093 378.173 252.093C375.075 251.837 358.63 250.209 358.63 250.209L358.886 257.073L354.383 258.861L352.244 285.488V300.685C374.82 307.262 403.144 301.611 403.144 301.611C404.165 287.531 402.633 270.099 402.633 270.099C412.5 269.077 417.13 265.981 417.13 265.981C417.545 260.713 413.17 250.209 413.17 250.209Z" fill="#EE7980"/>
<path opacity="0.3" d="M413.17 250.209C409.977 250.496 402.696 251.773 397.619 252.699C394.809 263.905 383.537 284.849 352.435 283.349L352.275 285.488V300.685C374.851 307.262 403.175 301.611 403.175 301.611C404.197 287.531 402.664 270.099 402.664 270.099C412.531 269.077 417.162 265.981 417.162 265.981C417.545 260.713 413.17 250.209 413.17 250.209Z" fill="#EE7980"/>
<path d="M304.665 296.886L302.908 299.855C301.823 301.706 300.737 303.59 299.651 305.442L298.821 304.261L298.278 303.494L297.703 302.76L296.554 301.291L295.372 299.855L294.766 299.152L294.159 298.45L292.914 297.077C292.051 296.183 291.221 295.289 290.327 294.427C288.571 292.671 286.751 291.011 284.867 289.415C283.078 287.882 281.258 286.446 279.342 285.073C279.662 284.594 279.981 284.115 280.3 283.636L281.386 281.816L282.376 279.964C282.727 279.358 283.015 278.719 283.334 278.081C284.579 275.559 285.729 273.004 286.815 270.418C287.102 269.78 287.357 269.141 287.613 268.471C287.868 267.832 288.156 267.162 288.411 266.523L289.178 264.576L289.912 262.596C290.902 259.978 291.86 257.328 292.754 254.679C291.7 257.297 290.678 259.883 289.593 262.469C288.507 265.055 287.389 267.609 286.272 270.163C285.122 272.717 283.941 275.239 282.663 277.73C281.386 280.22 280.077 282.678 278.448 284.913L278.193 285.264L278.544 285.52C280.524 286.924 282.44 288.489 284.324 290.053C286.208 291.65 287.996 293.31 289.752 295.002C290.646 295.832 291.477 296.726 292.339 297.62L293.584 298.961L294.223 299.631L294.83 300.334L296.043 301.706L297.224 303.143L297.799 303.846L298.342 304.58L299.46 306.048L299.715 306.368L299.907 306.017C300.992 304.005 302.11 301.994 303.196 299.95L304.824 296.917C305.367 295.896 305.91 294.874 306.453 293.884C305.846 294.906 305.239 295.896 304.665 296.886Z" fill="#EADCFF"/>
<path d="M397.46 381.651C388.774 359.079 378.204 335.229 370.509 329.515C354.99 318.021 355.117 293.948 355.117 293.948C355.117 293.948 366.39 265.757 360.003 258.254C357.449 255.221 353.393 253.561 349.465 252.635C348.092 258.159 344.452 269.588 337.97 269.141C331.104 268.63 315.585 257.903 309.806 253.753C304.409 255.445 299.236 258.478 298.119 263.842C295.692 275.782 312.392 326.609 312.392 326.609C312.392 326.609 301.599 352.885 293.073 381.683H397.46V381.651Z" fill="#31DAE7"/>
<path opacity="0.3" d="M293.105 381.651H342.057C333.914 360.834 337.97 335.389 337.97 335.389C306.453 307.804 309.869 253.721 309.869 253.721C304.473 255.413 299.3 258.446 298.182 263.81C295.755 275.75 312.456 326.577 312.456 326.577C312.456 326.577 301.631 352.853 293.105 381.651Z" fill="#31DAE7"/>
<path d="M304.154 330.153L318.81 342.189C319.034 342.381 319.353 342.349 319.513 342.126L320.183 341.327C320.375 341.104 320.343 340.785 320.12 340.625L305.463 328.589C305.239 328.397 304.92 328.429 304.76 328.653L304.09 329.451C303.898 329.642 303.93 329.962 304.154 330.153Z" fill="#EADCFF"/>
<path d="M323.792 335.485L320.663 340.338C320.28 340.944 319.577 341.2 319.162 340.88L305.559 329.706C305.208 329.419 305.048 328.908 305.208 328.333C305.367 327.727 305.878 327.056 307.219 326.673C309.838 325.907 314.085 328.652 317.278 328.844C317.406 328.844 317.501 328.876 317.597 328.972L323.792 334.08C324.143 334.335 324.143 334.974 323.792 335.485Z" fill="#EE7980"/>
<path d="M316.288 332.228C316.448 332.26 316.607 332.101 316.671 331.941C316.895 331.111 317.278 328.94 315.33 327.854C315.202 327.79 315.043 327.886 314.947 328.014C314.851 328.174 314.883 328.333 314.979 328.397C316.735 329.387 316.352 331.27 316.16 331.941C316.097 332.069 316.16 332.196 316.288 332.228Z" fill="#EADCFF"/>
<path d="M314.404 331.622C314.564 331.654 314.723 331.494 314.787 331.334C315.011 330.504 315.394 328.333 313.446 327.248C313.318 327.184 313.159 327.28 313.063 327.407C312.967 327.567 312.999 327.727 313.095 327.79C314.851 328.78 314.468 330.664 314.276 331.334C314.212 331.494 314.276 331.622 314.404 331.622Z" fill="#EADCFF"/>
<path opacity="0.3" d="M316.224 337.464C319.353 335.581 321.269 336.155 322.291 336.89C322.514 337.049 322.578 337.4 322.419 337.624L320.662 340.338C320.279 340.944 319.577 341.2 319.162 340.88L316.128 338.39C315.809 338.135 315.873 337.656 316.224 337.464Z" fill="#EE7980"/>
<path d="M346.304 347.617L365.08 350.363C365.368 350.394 365.623 350.203 365.655 349.947L365.815 348.894C365.847 348.607 365.655 348.351 365.4 348.319L346.624 345.574C346.336 345.542 346.081 345.733 346.049 345.989L345.889 347.042C345.857 347.329 346.049 347.585 346.304 347.617Z" fill="#EADCFF"/>
<path d="M365.879 342.03L365.687 347.808C365.655 348.511 365.176 349.086 364.697 349.022L347.262 346.499C346.815 346.436 346.4 346.084 346.24 345.51C346.081 344.903 346.144 344.073 347.102 343.051C348.954 341.04 354 341.2 356.842 339.731C356.938 339.667 357.065 339.667 357.161 339.667L365.112 340.816C365.591 340.88 365.911 341.391 365.879 342.03Z" fill="#EE7980"/>
<path d="M357.768 343.115C357.896 343.051 357.991 342.828 357.928 342.668C357.704 341.838 356.906 339.795 354.67 339.859C354.543 339.859 354.447 340.018 354.415 340.21C354.415 340.37 354.511 340.497 354.639 340.497C356.65 340.433 357.289 342.253 357.481 342.924C357.544 343.083 357.64 343.147 357.768 343.115Z" fill="#EADCFF"/>
<path d="M355.852 343.562C355.98 343.498 356.075 343.275 356.012 343.115C355.788 342.285 354.99 340.242 352.754 340.306C352.627 340.306 352.499 340.465 352.499 340.657C352.499 340.816 352.595 340.944 352.723 340.944C354.734 340.88 355.373 342.7 355.564 343.371C355.628 343.562 355.724 343.626 355.852 343.562Z" fill="#EADCFF"/>
<path d="M354.064 344.009C354.191 343.945 354.287 343.722 354.223 343.562C354 342.732 353.202 340.689 350.966 340.753C350.839 340.753 350.743 340.912 350.711 341.104C350.711 341.264 350.807 341.391 350.934 341.391C352.946 341.327 353.585 343.147 353.776 343.818C353.84 343.977 353.968 344.073 354.064 344.009Z" fill="#EADCFF"/>
<path opacity="0.3" d="M360.418 347.649C362.143 344.424 364.059 343.913 365.336 344.041C365.623 344.073 365.847 344.329 365.815 344.616L365.719 347.84C365.687 348.543 365.208 349.118 364.729 349.054L360.833 348.479C360.418 348.415 360.227 348 360.418 347.649Z" fill="#EE7980"/>
<path d="M335.671 308.092C335.671 308.092 320.375 320.479 316.767 326.673C316.767 326.673 318.491 332.867 324.782 336.506C324.782 336.506 341.291 322.427 343.175 321.597C345.059 320.767 357.353 320.384 357.353 320.384C357.353 320.384 371.722 306.017 371.722 305.953C371.722 305.857 370.892 300.046 370.221 300.046C369.551 300.046 346.687 298.737 346.687 298.737L338.417 305.41L335.671 308.092Z" fill="#392054"/>
<path d="M403.175 301.611C403.175 301.611 406.241 315.978 392.254 318.212C378.268 320.479 372.744 320.926 372.744 320.926L367.858 342.764C367.858 342.764 360.737 342.126 354.734 339.508C354.734 339.508 349.018 310.71 368.05 301.132C387.081 291.586 403.175 301.611 403.175 301.611Z" fill="#472F61"/>
<path d="M402.409 275.814C398.481 273.228 389.061 278.272 386.251 279.869C386.06 280.06 342.089 293.757 340.237 293.852C335.351 294.076 331.583 290.692 330.338 289.447C328.678 291.745 323.696 297.971 316.511 301.834C316.096 302.377 315.841 302.664 315.841 302.664C315.841 302.664 324.047 311.54 337.108 312.721C350.168 313.902 392.478 289.447 392.478 289.447C396.118 288.744 399.95 288.457 401.291 289.957C404.069 293.054 407.295 287.85 407.518 285.935C407.805 284.019 407.071 278.879 402.409 275.814Z" fill="#F6B5B9"/>
<path d="M331.775 287.499C330.274 285.456 328.773 283.444 327.272 281.433C325.74 279.422 324.239 277.41 322.674 275.431C321.141 273.451 319.577 271.472 317.98 269.524C316.384 267.577 314.787 265.629 313.063 263.81C314.659 265.757 316.224 267.737 317.725 269.748C319.226 271.759 320.758 273.771 322.227 275.782C323.728 277.793 325.197 279.837 326.698 281.88C328.135 283.828 329.54 285.807 330.977 287.786C329.987 289.51 328.773 291.075 327.4 292.512C326.698 293.278 325.931 293.98 325.165 294.683C324.399 295.385 323.6 296.055 322.802 296.726C321.173 298.035 319.481 299.28 317.757 300.429C316.128 301.547 314.436 302.6 312.711 303.59L312.456 303.239C312.296 303.047 312.169 302.856 312.041 302.632C311.785 302.217 311.498 301.802 311.242 301.355L310.476 300.046L309.742 298.705C308.816 296.917 307.922 295.066 307.059 293.246C306.197 291.394 305.335 289.542 304.537 287.691C303.706 285.839 302.908 283.955 302.11 282.072C302.812 283.987 303.547 285.903 304.281 287.786C305.048 289.67 305.814 291.586 306.612 293.437C307.411 295.321 308.273 297.173 309.199 298.993L309.901 300.366L310.636 301.706C310.891 302.153 311.179 302.6 311.434 303.047C311.562 303.271 311.721 303.494 311.881 303.686L312.328 304.324L312.52 304.58L312.807 304.42C314.659 303.399 316.479 302.313 318.236 301.132C319.992 299.95 321.716 298.705 323.345 297.396C325.005 296.055 326.57 294.651 328.039 293.086C329.476 291.522 330.817 289.83 331.839 287.946L331.966 287.723L331.775 287.499Z" fill="#EADCFF"/>
<path d="M397.364 309.624C401.707 310.486 403.527 315.626 400.749 319.043C399.344 320.767 397.3 322.81 394.713 323.991C389.572 326.354 379.833 325.045 377.151 320.288C374.468 315.531 375.969 315.85 375.969 315.85C375.969 315.85 374.405 312.913 376.225 312.083C376.225 312.083 375.905 309.816 377.406 309.72C377.406 309.72 378.396 309.72 379.162 310.358C379.162 310.358 379.354 308.986 380.919 309.305C382.483 309.624 388.551 314.445 393.564 314.796C397.492 315.084 394.139 311.827 392.542 310.422C391.808 309.784 391.297 308.89 391.137 307.932C391.105 307.677 391.073 307.389 391.105 307.134C391.201 306.527 391.967 306.336 392.318 306.815C392.957 307.709 394.139 309.049 395.384 309.305C395.895 309.401 396.565 309.465 397.364 309.624Z" fill="#F6B5B9"/>
<path d="M323.983 240.184L324.207 256.339L338.129 259.851L340.492 256.083L339.854 241.014L325.676 236.001L323.983 240.184Z" fill="#F6B5B9"/>
<path d="M311.435 218.857C311.435 218.857 307.315 201.936 317.15 195.614C326.985 189.293 337.395 189.995 344.484 193.794C351.573 197.594 355.82 210.843 352.659 218.378L329.125 211.163L311.435 218.857Z" fill="#493262"/>
<path d="M323.696 237.63C323.696 237.63 323.984 240.471 324.239 244.015C329.316 249.57 338.864 247.686 340.109 247.144C340.046 245.356 340.109 241.748 340.109 241.748L323.696 237.63Z" fill="#F0858B"/>
<path d="M349.561 221.347C348.731 223.614 349.529 226.008 351.349 226.679C353.17 227.349 355.341 226.04 356.171 223.774C357.001 221.507 356.203 219.112 354.383 218.442C352.563 217.771 350.423 219.048 349.561 221.347Z" fill="#F0858B"/>
<path d="M349.37 234.501C349.881 233.511 350.328 232.458 350.679 231.372C351.669 228.435 352.084 225.37 352.276 222.688C352.308 222.113 352.371 221.539 352.467 220.964C352.787 218.665 352.691 216.239 352.084 213.749C350.072 205.767 342.92 199.956 334.681 199.605C323.601 199.158 314.755 208.193 315.139 218.985C313.957 218.378 312.616 218.282 311.466 218.825C309.263 219.91 308.592 222.975 309.934 225.721C311.275 228.467 314.149 229.808 316.32 228.754C316.639 228.594 316.895 228.403 317.15 228.179C318.396 237.342 326.155 244.143 335.192 243.696C339.599 243.472 343.526 241.525 346.432 238.556C346.624 238.396 346.847 238.172 347.039 237.949C347.965 236.927 348.731 235.746 349.37 234.501Z" fill="#F6B5B9"/>
<path d="M332.509 221.571C332.573 222.528 331.807 223.359 330.849 223.422C329.891 223.486 329.061 222.72 328.997 221.762C328.933 220.804 329.699 219.974 330.657 219.91C331.615 219.847 332.446 220.613 332.509 221.571Z" fill="#493262"/>
<path d="M348.156 221.571C348.22 222.528 347.454 223.359 346.496 223.422C345.538 223.486 344.708 222.72 344.644 221.762C344.58 220.804 345.346 219.974 346.304 219.91C347.294 219.847 348.125 220.613 348.156 221.571Z" fill="#493262"/>
<path d="M333.978 218.633C333.18 218.218 332.35 217.899 331.488 217.676C330.625 217.484 329.763 217.388 328.933 217.484C328.518 217.516 328.071 217.612 327.656 217.708C327.432 217.771 327.241 217.835 327.049 217.899C326.953 217.931 326.857 217.995 326.762 218.027C326.666 218.059 326.57 218.123 326.474 218.154C325.676 218.538 324.941 219.017 324.207 219.559C324.75 218.825 325.42 218.186 326.219 217.708C326.602 217.452 327.049 217.261 327.496 217.101C327.943 216.941 328.39 216.846 328.869 216.814C329.795 216.718 330.753 216.846 331.647 217.165C332.094 217.324 332.509 217.516 332.893 217.739C333.276 218.059 333.659 218.314 333.978 218.633Z" fill="#493262"/>
<path d="M341.099 218.633C341.418 218.314 341.802 218.027 342.185 217.803C342.568 217.58 343.015 217.356 343.43 217.229C344.292 216.909 345.25 216.782 346.208 216.877C346.687 216.909 347.134 217.037 347.581 217.165C348.028 217.324 348.444 217.516 348.859 217.771C349.657 218.25 350.328 218.889 350.87 219.623C350.136 219.08 349.401 218.57 348.603 218.218C348.507 218.154 348.412 218.123 348.316 218.091C348.22 218.059 348.124 217.995 348.028 217.963C347.837 217.899 347.613 217.803 347.422 217.771C347.007 217.644 346.591 217.58 346.144 217.548C345.282 217.452 344.42 217.548 343.59 217.739C342.728 217.899 341.897 218.218 341.099 218.633Z" fill="#493262"/>
<path d="M339.023 220.772C339.534 221.571 339.95 222.401 340.333 223.263C340.716 224.125 341.067 224.987 341.323 225.913C341.45 226.36 341.546 226.839 341.578 227.349C341.578 227.477 341.578 227.605 341.578 227.732C341.578 227.796 341.546 227.86 341.546 227.956C341.514 228.02 341.482 228.116 341.45 228.179C341.418 228.211 341.386 228.243 341.355 228.307L341.291 228.371C341.227 228.403 341.195 228.467 341.131 228.499C341.035 228.563 340.939 228.658 340.812 228.69C340.397 228.946 339.95 229.137 339.502 229.297C339.055 229.457 338.608 229.584 338.129 229.648C338.96 229.233 339.822 228.85 340.556 228.307C340.652 228.243 340.716 228.179 340.812 228.116L340.939 228.02L341.003 227.956V227.924C341.067 227.828 341.067 227.605 341.035 227.381C341.003 226.966 340.876 226.519 340.748 226.072C340.492 225.178 340.205 224.316 339.918 223.422C339.598 222.56 339.311 221.666 339.023 220.772Z" fill="#F0858B"/>
<path d="M312.743 216.526L313.191 216.462L313.478 212.791L315.106 209.407C315.106 209.407 321.525 200.276 321.748 200.052C321.972 199.829 326.889 196.891 327.177 196.732C327.464 196.572 334.33 197.721 334.33 197.721C334.33 197.721 346.4 195.135 344.356 201.872C342.313 208.608 333.499 212.12 333.052 211.833C334.489 210.333 334.649 206.022 334.649 206.022C327.847 213.876 315.075 219.017 315.075 219.017C315.075 219.017 313.733 217.995 311.402 218.857L312.743 216.526Z" fill="#493262"/>
<path d="M268.582 220.645C268.166 222.465 266.123 223.869 263.568 223.965C261.046 224.029 258.874 222.752 258.363 220.964L268.582 220.645Z" fill="#EADCFF"/>
<path d="M343.239 231.34C342.76 233.128 340.62 234.437 338.066 234.405C335.543 234.373 333.436 232.969 333.021 231.149L343.239 231.34Z" fill="#EADCFF"/>
<path d="M530.648 42.4943C528.828 34.6404 521.803 28.7659 513.405 28.7659C511.872 28.7659 510.371 28.9574 508.934 29.3406C504.783 20.465 495.778 14.335 485.336 14.335C482.654 14.335 480.036 14.7501 477.577 15.5163C471.989 6.22569 461.771 0 450.115 0C436.257 0 424.41 8.81174 419.939 21.1354C416.778 19.3794 413.106 18.3578 409.242 18.3578C397.076 18.3578 387.209 28.2231 387.209 40.3872C387.209 41.1215 387.241 41.8239 387.305 42.5262H530.648V42.4943Z" fill="#EADCFF"/>
<path d="M550.414 124.929C549.425 120.651 545.593 117.458 541.026 117.458C540.196 117.458 539.366 117.554 538.599 117.777C536.332 112.956 531.447 109.604 525.763 109.604C524.294 109.604 522.889 109.827 521.548 110.243C518.482 105.166 512.926 101.782 506.572 101.782C499.004 101.782 492.585 106.571 490.126 113.307C488.402 112.35 486.422 111.807 484.283 111.807C477.641 111.807 472.276 117.171 472.276 123.811C472.276 124.194 472.308 124.578 472.34 124.961H550.414V124.929Z" fill="#EADCFF"/>
<path d="M571.075 232.777C571.075 232.777 569.35 249.602 556.066 250.783C569.35 251.933 571.075 268.79 571.075 268.79C571.075 268.79 572.767 251.965 586.083 250.783C572.767 249.602 571.075 232.777 571.075 232.777Z" fill="#EADCFF"/>
<path d="M606.232 186.164C606.232 186.164 605.115 197.306 596.301 198.073C605.083 198.839 606.232 209.981 606.232 209.981C606.232 209.981 607.35 198.839 616.163 198.073C607.35 197.306 606.232 186.164 606.232 186.164Z" fill="#EADCFF"/>
<path d="M554.853 152.737C554.853 152.737 554.342 157.717 550.415 158.069C554.342 158.42 554.853 163.4 554.853 163.4C554.853 163.4 555.364 158.42 559.292 158.069C555.364 157.717 554.853 152.737 554.853 152.737Z" fill="#EADCFF"/>
<path d="M227.58 450.804C226.59 446.525 222.759 443.333 218.192 443.333C217.362 443.333 216.532 443.428 215.765 443.652C213.498 438.831 208.613 435.479 202.929 435.479C201.46 435.479 200.055 435.702 198.714 436.117C195.648 431.041 190.092 427.657 183.738 427.657C176.17 427.657 169.751 432.446 167.292 439.182C165.568 438.224 163.588 437.682 161.449 437.682C154.807 437.682 149.442 443.045 149.442 449.686C149.442 450.069 149.474 450.452 149.506 450.835H227.58V450.804Z" fill="#EADCFF"/>
<path d="M440.057 470.726C438.812 465.235 433.894 461.148 428.019 461.148C426.933 461.148 425.911 461.276 424.889 461.531C421.983 455.337 415.693 451.059 408.412 451.059C406.528 451.059 404.708 451.346 402.984 451.889C399.056 445.376 391.935 441.034 383.793 441.034C374.085 441.034 365.847 447.196 362.717 455.784C360.514 454.539 357.96 453.837 355.245 453.837C346.751 453.837 339.854 460.733 339.854 469.225C339.854 469.736 339.886 470.215 339.918 470.726H440.057V470.726Z" fill="#EADCFF"/>
<path d="M267.655 97.7593C268.677 93.3215 272.669 90.0011 277.426 90.0011C278.289 90.0011 279.151 90.1289 279.949 90.3204C282.312 85.3079 287.389 81.8279 293.329 81.8279C294.861 81.8279 296.33 82.0514 297.735 82.4984C300.929 77.2305 306.708 73.6866 313.318 73.6866C321.174 73.6866 327.879 78.6672 330.402 85.6591C332.19 84.6694 334.266 84.0947 336.469 84.0947C343.366 84.0947 348.954 89.6819 348.954 96.578C348.954 96.9931 348.923 97.3762 348.891 97.7912H267.655V97.7593Z" fill="#EADCFF"/>
<path d="M45.8865 213.142C45.8865 213.142 44.1622 229.967 30.8784 231.149C44.1622 232.298 45.8865 249.155 45.8865 249.155C45.8865 249.155 47.6109 232.33 60.8946 231.149C47.5789 229.967 45.8865 213.142 45.8865 213.142Z" fill="#EADCFF"/>
<path d="M29.3777 152.577C29.3777 152.577 28.2601 163.72 19.4468 164.486C28.2281 165.252 29.3777 176.394 29.3777 176.394C29.3777 176.394 30.4953 165.252 39.3086 164.486C30.4953 163.72 29.3777 152.577 29.3777 152.577Z" fill="#EADCFF"/>
<path d="M4.43857 280.571C4.43857 280.571 3.92765 285.552 0 285.903C3.92765 286.254 4.43857 291.235 4.43857 291.235C4.43857 291.235 4.94948 286.254 8.87714 285.903C4.94948 285.552 4.43857 280.571 4.43857 280.571Z" fill="#EADCFF"/>
</svg>
