<svg width="40" height="40" viewBox="0 0 30 30" fill="none" xmlns="http://www.w3.org/2000/svg">
<path d="M14.9849 8.37547C17.1118 8.37547 17.3663 8.37547 18.207 8.41984C18.7128 8.42402 19.2138 8.51197 19.6875 8.67972C20.0303 8.8057 20.3417 8.99785 20.6017 9.24394C20.8618 9.49004 21.0649 9.78465 21.198 10.1091C21.3753 10.5573 21.4683 11.0314 21.4727 11.5099C21.5129 12.3054 21.5196 12.5462 21.5196 14.5587C21.5196 16.5712 21.5196 16.8121 21.4727 17.6076C21.4683 18.0861 21.3753 18.5602 21.198 19.0084C21.0649 19.3328 20.8618 19.6274 20.6017 19.8735C20.3417 20.1196 20.0303 20.3118 19.6875 20.4377C19.2138 20.6055 18.7128 20.6935 18.207 20.6976C17.3663 20.7356 17.1151 20.742 14.9849 20.742C12.8547 20.742 12.6035 20.742 11.7628 20.6976C11.2571 20.6935 10.756 20.6055 10.2824 20.4377C9.9423 20.3096 9.63399 20.1161 9.37689 19.8695C9.11979 19.623 8.91946 19.3287 8.78857 19.0052C8.61125 18.5571 8.51831 18.0829 8.51392 17.6044C8.45363 16.8089 8.45363 16.568 8.45363 14.5556C8.45363 12.5431 8.45363 12.3022 8.50052 11.5067C8.5092 11.0274 8.6067 10.5533 8.78857 10.1059C8.92178 9.78592 9.12314 9.49533 9.38014 9.25215C9.63714 9.009 9.94424 8.81847 10.2824 8.69239C10.756 8.52464 11.2571 8.4367 11.7628 8.43251C12.6035 8.37547 12.8581 8.37547 14.9849 8.37547ZM14.9849 7.01585C12.8212 7.01585 12.5499 7.01585 11.6992 7.06022C11.0367 7.07723 10.3821 7.20046 9.76324 7.42468C9.22922 7.61718 8.74426 7.91434 8.34019 8.29668C7.93612 8.67902 7.62208 9.1379 7.41867 9.64318C7.18626 10.2295 7.06056 10.8489 7.04689 11.475C7.01005 12.28 7 12.5367 7 14.5841C7 16.6314 7 16.8881 7.04689 17.6931C7.07355 18.3113 7.2094 18.9208 7.44882 19.4965C7.65223 20.0018 7.96626 20.4606 8.37033 20.843C8.7744 21.2253 9.25936 21.5225 9.79339 21.715C10.4131 21.9349 11.0676 22.0538 11.7293 22.0667C12.5801 22.1016 12.8514 22.1111 15.0151 22.1111C17.1788 22.1111 17.4501 22.1111 18.3008 22.0667C18.9625 22.0538 19.6171 21.9349 20.2368 21.715C20.7708 21.5225 21.2557 21.2253 21.6598 20.843C22.0638 20.4606 22.3779 20.0018 22.5813 19.4965C22.8137 18.9101 22.9394 18.2907 22.9531 17.6646C22.99 16.8596 23 16.6029 23 14.5556C23 12.5082 23 12.2515 22.9531 11.4465C22.9394 10.8204 22.8137 10.201 22.5813 9.61465C22.3779 9.10938 22.0638 8.6505 21.6598 8.26815C21.2557 7.88581 20.7708 7.58866 20.2368 7.39616C19.6171 7.17628 18.9625 7.05733 18.3008 7.04437C17.4501 7.00951 17.1788 7 15.0151 7L14.9849 7.01585Z" fill="white"/>
<path d="M14.5557 10.5555C13.7645 10.5555 12.9912 10.7901 12.3334 11.2297C11.6756 11.6692 11.1629 12.2939 10.8601 13.0248C10.5574 13.7557 10.4782 14.56 10.6325 15.3359C10.7869 16.1118 11.1678 16.8246 11.7272 17.384C12.2866 17.9434 12.9994 18.3243 13.7753 18.4787C14.5512 18.633 15.3555 18.5538 16.0864 18.2511C16.8173 17.9483 17.442 17.4356 17.8815 16.7778C18.3211 16.12 18.5557 15.3467 18.5557 14.5555C18.5557 13.4947 18.1342 12.4773 17.3841 11.7271C16.6339 10.977 15.6165 10.5555 14.5557 10.5555ZM14.5557 17.1513C14.0423 17.1513 13.5404 16.999 13.1135 16.7138C12.6867 16.4286 12.354 16.0232 12.1575 15.5489C11.961 15.0746 11.9096 14.5527 12.0098 14.0492C12.1099 13.5456 12.3572 13.0831 12.7202 12.7201C13.0832 12.357 13.5457 12.1098 14.0492 12.0097C14.5528 11.9095 15.0747 11.9609 15.549 12.1574C16.0233 12.3539 16.4287 12.6866 16.7139 13.1134C16.9992 13.5403 17.1514 14.0422 17.1514 14.5555C17.1514 15.244 16.8779 15.9042 16.3911 16.391C15.9043 16.8778 15.2441 17.1513 14.5557 17.1513Z" fill="white"/>
<path d="M19.4446 11.4445C19.9355 11.4445 20.3334 10.8476 20.3334 10.1112C20.3334 9.3748 19.9355 8.77783 19.4446 8.77783C18.9536 8.77783 18.5557 9.3748 18.5557 10.1112C18.5557 10.8476 18.9536 11.4445 19.4446 11.4445Z" fill="white"/>
<circle cx="15" cy="15" r="14" stroke="white" stroke-width="2"/>
</svg>
