<svg width="40" height="40" viewBox="0 0 30 30" fill="none" xmlns="http://www.w3.org/2000/svg">
<path d="M8.27273 12.647H11.7238V22H8.27273V12.647ZM10 8C10.3956 8 10.7822 8.09886 11.1111 8.28407C11.44 8.46927 11.6964 8.7325 11.8478 9.0405C11.9991 9.34849 12.0387 9.6874 11.9616 10.0144C11.8844 10.3413 11.6939 10.6417 11.4142 10.8774C11.1345 11.1131 10.7781 11.2737 10.3902 11.3387C10.0022 11.4037 9.60007 11.3703 9.23462 11.2428C8.86916 11.1152 8.55682 10.8992 8.33706 10.622C8.11727 10.3448 8 10.0189 8 9.68554C8 9.23849 8.2107 8.80977 8.58577 8.49367C8.96084 8.17757 9.46955 8 10 8Z" fill="white"/>
<path d="M13 11.2662H16.0692V12.7339H16.1276C16.4351 12.1869 16.8793 11.737 17.4129 11.4321C17.9465 11.1272 18.5496 10.9787 19.1578 11.0025C22.4057 11.0025 23 13.2243 23 16.1123V22H19.7847V16.7819C19.7847 15.5374 19.7652 13.9345 18.1218 13.9345C16.4784 13.9345 16.1991 15.2872 16.1991 16.6906V22H13V11.2662Z" fill="white"/>
<circle cx="15" cy="15" r="14" stroke="white" stroke-width="2"/>
</svg>
