<svg width="92" height="89" viewBox="0 0 92 89" fill="none" xmlns="http://www.w3.org/2000/svg">
<path d="M7.57616 78.1145C7.6308 78.2064 7.69961 78.2891 7.78007 78.3596C7.79451 78.3721 7.80963 78.383 7.82458 78.3947C10.6302 81.5691 14.0569 84.1344 17.893 85.9323C21.729 87.7301 25.893 88.7223 30.1277 88.8475C30.2216 88.865 30.3178 88.8673 30.4125 88.8543C30.6254 88.8585 30.8383 88.8624 31.0521 88.8624C31.2658 88.8624 31.4787 88.8585 31.6915 88.8543C31.7862 88.8673 31.8824 88.865 31.9764 88.8475C36.2127 88.7223 40.3783 87.7294 44.2156 85.9303C48.0528 84.1312 51.4803 81.564 54.286 78.3876C54.2969 78.3786 54.3093 78.3723 54.32 78.363C54.4018 78.2919 54.4717 78.2083 54.5271 78.1152C59.0272 72.9334 61.6755 66.4017 62.0546 59.549C62.2333 59.5056 62.3968 59.4143 62.5274 59.2848C63.8439 57.9653 64.5833 56.1773 64.5833 54.3133C64.5833 52.4493 63.8439 50.6614 62.5274 49.3418L60.1581 46.9726C59.9189 46.3303 59.6574 45.6919 59.3748 45.0647C61.4164 43.8312 63.5727 42.7985 65.8137 41.9813L81.283 36.3569C81.4441 36.2983 81.5879 36.2 81.7009 36.0711C81.814 35.9423 81.8927 35.787 81.9298 35.6196C81.967 35.4522 81.9613 35.2782 81.9133 35.1136C81.8654 34.949 81.7767 34.7991 81.6555 34.6779L74.8671 27.8892C75.8303 26.5351 76.2827 24.8835 76.144 23.2275C76.0053 21.5716 75.2845 20.0183 74.1094 18.8432C72.9344 17.6682 71.381 16.9474 69.7251 16.8088C68.0691 16.6701 66.4175 17.1226 65.0634 18.0859L58.2769 11.2985C58.1557 11.1773 58.0058 11.0886 57.8412 11.0407C57.6766 10.9927 57.5026 10.9871 57.3352 11.0242C57.1678 11.0614 57.0125 11.1401 56.8837 11.2532C56.7548 11.3663 56.6565 11.51 56.5979 11.6712L50.9735 27.1403C50.3359 28.8948 49.5664 30.5985 48.6716 32.2368C43.7547 28.8296 37.9507 26.9304 31.9707 26.7721C31.8867 26.759 31.8015 26.7565 31.717 26.7646C31.4961 26.76 31.2747 26.7576 31.0529 26.7575C30.8342 26.7575 30.6165 26.7612 30.3987 26.7657C30.3111 26.7564 30.2227 26.7585 30.1357 26.7721C25.8997 26.8962 21.7342 27.888 17.8967 29.6859C14.0592 31.4839 10.6313 34.0499 7.82492 37.2254C7.81014 37.2369 7.79485 37.2478 7.78058 37.2604C7.70019 37.3308 7.63138 37.4134 7.57667 37.5052C2.69012 43.1412 0 50.3505 0 57.8099C0 65.2693 2.69012 72.4785 7.57667 78.1145H7.57616ZM8.49459 39.5856C10.3822 41.582 12.527 43.3186 14.8724 44.7497C13.6314 48.6454 12.969 52.7022 12.9064 56.7903H2.05846C2.27345 50.5076 4.53326 44.4668 8.49459 39.5856V39.5856ZM45.8876 39.8359L53.1191 47.0676C52.3468 47.7262 51.6018 48.4135 50.8841 49.1294C50.6997 49.3139 50.4808 49.4602 50.2398 49.56C49.9989 49.6598 49.7406 49.7112 49.4798 49.7112C49.219 49.7112 48.9608 49.6598 48.7198 49.56C48.4788 49.4602 48.2599 49.3139 48.0755 49.1294L43.8249 44.8788C43.4529 44.5061 43.244 44.001 43.244 43.4744C43.244 42.9478 43.4529 42.4427 43.8249 42.07C44.2183 41.6766 44.6077 41.27 44.9829 40.8612C45.2917 40.5244 45.5916 40.1815 45.8876 39.8359V39.8359ZM53.6129 76.0292C51.7313 74.0214 49.588 72.2759 47.2409 70.8397C48.4756 66.9529 49.1346 62.9064 49.1968 58.8287H60.0448C59.8303 65.1097 57.572 71.1491 53.6129 76.0299V76.0292ZM30.0325 66.3505C25.3776 66.4973 20.8157 67.6914 16.6858 69.8441C15.5929 66.2721 15.007 62.5643 14.9455 58.8294H30.0327L30.0325 66.3505ZM30.0325 68.3913V86.5697C24.228 83.5621 19.8659 78.3867 17.3592 71.7967C21.2675 69.707 25.6032 68.5421 30.0325 68.3919V68.3913ZM32.0716 68.3851C36.5049 68.5137 40.8476 69.671 44.7569 71.7657C42.2523 78.3708 37.8853 83.5573 32.0716 86.5697V68.3851ZM32.0716 66.3445V58.8294H47.1586C47.0973 62.5528 46.515 66.2493 45.4288 69.8113C41.2979 67.6552 36.7296 66.4698 32.0716 66.3452V66.3445ZM32.0716 49.2735C35.8276 49.1758 39.533 48.3838 43.0008 46.9376L46.5484 50.4851C46.9102 52.5681 47.1147 54.6754 47.1601 56.7892H32.0711L32.0716 49.2735ZM49.1997 56.7897C49.1631 55.0842 49.0293 53.3822 48.7989 51.692C49.0215 51.7302 49.247 51.7495 49.4729 51.7498C49.6308 51.7498 49.7885 51.7406 49.9453 51.7224C50.8454 51.6164 51.6837 51.2106 52.3253 50.5704C52.3329 50.5627 52.3409 50.5554 52.3487 50.5476L58.5906 56.7897H49.1997ZM42.383 40.6287C41.7848 41.2288 41.391 42.002 41.2574 42.8386C41.1238 43.6753 41.2572 44.5327 41.6387 45.2892C38.586 46.4847 35.3493 47.1428 32.0721 47.2343V29.0496C36.6287 31.4115 40.3821 35.177 42.9914 40.0045C42.7903 40.2148 42.5875 40.4235 42.383 40.6287ZM30.0325 47.2288C25.6032 47.0787 21.2675 45.9136 17.3596 43.8233C19.8663 37.2334 24.2282 32.0586 30.0325 29.0516V47.2288ZM30.0325 49.2698V56.7912H14.9453C15.0068 53.0562 15.5927 49.3483 16.6858 45.7764C20.8156 47.9292 25.3776 49.123 30.0325 49.2689V49.2698ZM12.9064 58.8294C12.9688 62.9177 13.6311 66.9747 14.8721 70.8706C12.5268 72.3015 10.3821 74.0379 8.49459 76.0342C4.53326 71.1529 2.27345 65.1121 2.05846 58.8294H12.9064ZM9.83799 77.5801C11.5374 75.7579 13.465 74.1626 15.5729 72.8339C17.7648 78.4413 21.2425 83.082 25.775 86.341C19.6606 85.2052 14.0734 82.1338 9.83799 77.5801V77.5801ZM36.3288 86.341C40.8693 83.0766 44.3507 78.4253 46.5423 72.8051C48.6508 74.1394 50.5759 75.7436 52.2687 77.5769C48.033 82.1324 42.4446 85.205 36.3288 86.341V86.341ZM61.7425 57.0315C61.7101 57.0041 61.6761 56.9787 61.6405 56.9555L53.8335 49.1488C54.8287 48.2615 55.8711 47.4286 56.9561 46.6537L61.0864 50.7836C61.8936 51.5931 62.3989 52.6547 62.5183 53.7916C62.6377 54.9285 62.3639 56.072 61.7425 57.0315V57.0315ZM69.1392 18.8233C70.0261 18.8233 70.897 19.0595 71.6623 19.5078C72.4275 19.9561 73.0595 20.6001 73.4932 21.3738C73.9269 22.1474 74.1466 23.0226 74.1297 23.9094C74.1128 24.7961 73.8599 25.6623 73.3971 26.4189L66.5343 19.5557C67.3179 19.0748 68.2198 18.8213 69.1392 18.8233V18.8233ZM52.8891 27.8372L57.9672 13.8723L79.0812 34.9873L65.1163 40.0655C61.3791 41.4311 57.8717 43.3576 54.7144 45.7789L47.1795 38.2441C49.6059 35.089 51.5317 31.5788 52.8891 27.8372ZM44.4319 38.4004C42.4136 34.8078 39.6439 31.6931 36.3118 29.2688C40.3849 30.0111 44.2491 31.6264 47.6388 34.0037C46.6799 35.5464 45.608 37.016 44.4319 38.4004V38.4004ZM25.7779 29.278C21.2443 32.5364 17.7665 37.1776 15.5735 42.7867C13.4654 41.4578 11.5376 39.8622 9.83799 38.0396C14.0741 33.4852 19.6624 30.4134 25.7779 29.278V29.278Z" fill="#FFFBFB"/>
<line x1="72.5068" y1="12.9178" x2="74.5068" y2="0.9178" stroke="#FCFCFC"/>
<line x1="77.6569" y1="14.9835" x2="86.507" y2="6.63628" stroke="#F9F4F4"/>
<line x1="79.8739" y1="20.5846" x2="91.6461" y2="17.5162" stroke="#F9F9F9"/>
</svg>
