<svg width="788" height="639" viewBox="0 0 788 639" fill="none" xmlns="http://www.w3.org/2000/svg">
<path d="M174.584 638.391H147.922L156.58 564.87H194.034L174.584 638.391Z" fill="url(#paint0_linear)"/>
<path opacity="0.4" d="M174.584 638.39H165.221L178.181 564.869H194.034L174.584 638.39Z" fill="#6D6D6D"/>
<path d="M622.632 638.39H649.294L640.653 564.869H603.182L622.632 638.39Z" fill="url(#paint1_linear)"/>
<path opacity="0.4" d="M622.632 638.39H632.013L619.035 564.869H603.182L622.632 638.39Z" fill="#6D6D6D"/>
<path d="M116.799 537.486C116.658 538.545 116.552 560.811 116.552 561.923C116.552 573.867 125.316 583.554 136.108 583.554H652.45C663.242 583.554 672.006 573.867 672.006 561.923C672.006 560.811 671.9 538.563 671.759 537.486H116.799Z" fill="url(#paint2_linear)"/>
<path d="M775.761 456.503C765.781 507.951 732.436 542.003 680.911 551.407C603.394 565.557 452.134 573.162 375.623 572.844C307.523 572.544 170.934 566.581 104.05 551.407C52.966 539.833 16.9585 508.339 9.19977 456.503C2.37562 410.965 -0.322295 321.512 0.0303736 276.433C0.312509 240.828 3.38073 169.019 9.2174 134.314C17.8931 82.6183 52.5957 49.1309 104.068 39.4093C177.97 25.4532 302.938 15.3611 369.61 14.92C447.673 14.3907 603.394 21.4481 680.911 39.4093C731.942 51.2481 766.151 82.7947 775.761 134.314C782.991 173.024 787.946 252.826 787.999 292.488C788.069 333.615 785.001 408.953 775.761 456.503Z" fill="#8F6A0C"/>
<path d="M775.761 442.564C765.781 494.013 732.436 528.065 680.911 537.469C603.394 551.619 452.134 559.223 375.623 558.906C307.523 558.606 170.934 552.642 104.05 537.469C52.966 525.895 16.9585 494.401 9.19977 442.564C2.37562 397.026 -0.322295 307.573 0.0303736 262.494C0.312509 226.889 3.38073 155.08 9.2174 120.375C17.8931 68.6798 52.5957 35.1924 104.068 25.4708C177.97 11.5147 302.938 1.42263 369.61 0.981537C447.673 0.45223 603.394 7.50964 680.911 25.4708C731.942 37.3096 766.151 68.8562 775.761 120.375C782.991 159.085 787.928 238.887 787.999 278.55C788.069 319.677 785.001 395.015 775.761 442.564Z" fill="#FFB90B"/>
<path d="M375.693 557.53C306.57 557.23 172.627 551.248 107.436 536.481C74.0026 528.912 32.4582 508.481 24.3292 454.227C17.8754 411.141 14.9482 323.364 15.3185 276.556C15.6183 238.605 18.8981 168.948 24.2939 136.855C31.7529 92.3576 61.095 63.1046 106.889 54.4592C179.592 40.7325 303.731 30.6757 369.698 30.2346C372.343 30.217 375.112 30.1993 377.933 30.1993C459.082 30.1993 605.669 37.6802 677.437 54.3181C724.466 65.2218 752.485 93.0809 760.702 137.119C767.932 175.829 772.623 255.013 772.675 292.506C772.728 326.629 770.295 404.19 760.72 453.574C751.815 499.482 723.249 528.1 678.142 536.34C602.407 550.172 456.631 557.53 380.507 557.53H375.693Z" fill="black"/>
<path d="M375.693 551.407C306.852 551.107 173.491 545.161 108.776 530.499C77.2119 523.354 37.9951 504.14 30.3774 453.309C23.9588 410.523 21.0669 323.188 21.4372 276.591C21.737 238.852 24.9816 169.654 30.3245 137.86C37.325 96.0802 64.9213 68.6092 108.035 60.4578C180.42 46.8017 304.066 36.7802 369.751 36.3391C372.396 36.3215 375.147 36.3038 377.95 36.3038C458.817 36.3038 604.769 43.7318 676.079 60.2638C720.533 70.5676 746.983 96.8036 754.707 138.231C761.866 176.605 766.521 255.225 766.574 292.506C766.627 326.434 764.211 403.501 754.724 452.391C746.331 495.618 719.475 522.56 677.049 530.305C601.666 544.067 456.419 551.407 380.525 551.407H375.693Z" fill="url(#paint3_linear)"/>
<path d="M375.729 532.581C307.717 532.282 176.189 526.477 112.937 512.15C75.343 503.628 53.8301 482.897 48.9809 450.521C42.7034 408.689 39.8821 322.729 40.2524 276.75C40.5522 239.646 43.7085 171.806 48.8751 140.983C54.5707 107.072 76.2246 85.6352 111.527 78.966C182.942 65.4863 305.001 55.606 369.875 55.1649C372.467 55.1472 375.182 55.1472 377.951 55.1472C457.918 55.1472 601.966 62.434 671.83 78.6308C708.842 87.2055 729.897 107.848 736.227 141.706C743.192 179.04 747.724 255.984 747.777 292.559C747.83 325.852 745.502 401.331 736.28 448.828C729.403 484.291 708.331 505.481 673.699 511.815C599.427 525.383 455.749 532.599 380.578 532.599L375.729 532.581Z" fill="url(#paint4_linear)"/>
<g opacity="0.7">
<path opacity="0.7" d="M697.68 111.977H621.909V118.576H697.68V111.977Z" fill="#808080"/>
<path opacity="0.7" d="M697.68 124.928H621.909V131.526H697.68V124.928Z" fill="#808080"/>
<path opacity="0.7" d="M697.68 137.896H621.909V144.494H697.68V137.896Z" fill="#B3B3B3"/>
<path opacity="0.7" d="M697.68 150.846H621.909V157.445H697.68V150.846Z" fill="#808080"/>
<path opacity="0.7" d="M697.68 163.814H621.909V170.413H697.68V163.814Z" fill="#808080"/>
<path opacity="0.7" d="M697.68 176.764H621.909V183.363H697.68V176.764Z" fill="#B3B3B3"/>
<path opacity="0.7" d="M697.68 189.732H621.909V196.331H697.68V189.732Z" fill="#808080"/>
<path opacity="0.7" d="M697.68 202.682H621.909V209.281H697.68V202.682Z" fill="#B3B3B3"/>
<path opacity="0.7" d="M697.68 215.651H621.909V222.249H697.68V215.651Z" fill="#808080"/>
<path opacity="0.7" d="M697.68 228.619H621.909V235.217H697.68V228.619Z" fill="#B3B3B3"/>
<path opacity="0.7" d="M697.68 241.569H621.909V248.168H697.68V241.569Z" fill="#808080"/>
<path opacity="0.7" d="M697.68 254.537H621.909V261.136H697.68V254.537Z" fill="#808080"/>
<path opacity="0.7" d="M697.68 271.404H621.909V281.302H697.68V271.404Z" fill="#B3B3B3"/>
</g>
<g opacity="0.7">
<path opacity="0.7" d="M700.184 479.245H619.405C612.14 479.245 606.25 473.388 606.25 466.171V104.973C606.25 97.7565 612.158 91.8988 619.405 91.8988H700.184C707.431 91.8988 713.339 97.7741 713.339 104.973V466.171C713.356 473.37 707.449 479.245 700.184 479.245ZM619.405 93.9984C613.321 93.9984 608.367 98.9209 608.367 104.973V466.171C608.367 472.223 613.321 477.128 619.405 477.128H700.184C706.267 477.128 711.205 472.223 711.205 466.171V104.973C711.205 98.9209 706.25 93.9984 700.184 93.9984H619.405Z" fill="url(#paint5_linear)"/>
</g>
<path opacity="0.2" d="M693.271 327.599C701.33 346.707 692.372 368.744 673.275 376.807C654.178 384.87 632.154 375.907 624.095 356.781C616.037 337.674 624.995 315.637 644.092 307.591C663.189 299.528 685.213 308.491 693.271 327.599Z" fill="#141615"/>
<path d="M695.511 322.147C703.569 341.255 694.611 363.292 675.514 371.355C656.417 379.418 634.393 370.455 626.335 351.347C618.276 332.239 627.234 310.202 646.331 302.139C665.446 294.076 687.452 303.021 695.511 322.147Z" fill="url(#paint6_linear)"/>
<path d="M690.644 324.194C697.574 340.62 689.868 359.552 673.469 366.468C657.052 373.402 638.132 365.692 631.219 349.265C624.29 332.839 631.995 313.908 648.394 306.992C664.811 300.075 683.714 307.785 690.644 324.194Z" fill="#6D6D6D"/>
<path opacity="0.7" d="M686.747 325.835C692.76 340.091 686.077 356.552 671.829 362.569C657.564 368.585 641.13 361.898 635.117 347.625C629.104 333.351 635.787 316.907 650.052 310.891C664.3 304.892 680.734 311.579 686.747 325.835Z" fill="url(#paint7_linear)"/>
<path d="M680.893 328.305C685.548 339.332 680.381 352.053 669.343 356.711C658.304 361.369 645.591 356.181 640.953 345.154C636.298 334.109 641.482 321.388 652.503 316.748C663.524 312.09 676.255 317.277 680.893 328.305Z" fill="url(#paint8_linear)"/>
<path opacity="0.2" d="M678.636 398.738C696.675 411.141 701.242 435.842 688.845 453.909C676.431 471.958 651.762 476.528 633.723 464.107C615.684 451.686 611.117 427.003 623.513 408.953C635.927 390.904 660.597 386.334 678.636 398.738Z" fill="#141615"/>
<path d="M685.883 392.616C703.922 405.019 708.489 429.72 696.093 447.769C683.679 465.819 659.01 470.388 640.971 457.967C622.914 445.546 618.365 420.863 630.761 402.814C643.157 384.764 667.844 380.195 685.883 392.616Z" fill="url(#paint9_linear)"/>
<path d="M682.727 397.22C698.226 407.877 702.159 429.102 691.49 444.611C680.84 460.12 659.627 464.054 644.127 453.38C628.627 442.723 624.695 421.498 635.363 405.989C646.014 390.481 667.227 386.546 682.727 397.22Z" fill="#6D6D6D"/>
<path opacity="0.7" d="M680.187 400.89C693.642 410.153 697.063 428.591 687.805 442.07C678.548 455.55 660.121 458.955 646.649 449.692C633.194 440.429 629.773 421.992 639.031 408.512C648.288 395.05 666.715 391.627 680.187 400.89Z" fill="url(#paint10_linear)"/>
<path d="M676.396 406.413C686.8 413.576 689.445 427.85 682.286 438.259C675.126 448.687 660.861 451.315 650.457 444.152C640.036 436.989 637.408 422.715 644.568 412.288C651.727 401.896 665.975 399.249 676.396 406.413Z" fill="url(#paint11_linear)"/>
<path d="M564.001 417.528C564.001 460.314 541.519 493.378 463.614 495.001H170.793C118.333 493.378 86.2756 460.314 86.2756 417.528V187.703C86.5754 115.806 127.168 97.8799 160.213 97.8799H475.975C532.719 98.1622 564.019 132.567 564.019 175.353V417.528H564.001Z" fill="url(#paint12_linear)"/>
<defs>
<linearGradient id="paint0_linear" x1="170.979" y1="654.252" x2="170.979" y2="566.27" gradientUnits="userSpaceOnUse">
<stop stop-color="#D7D7D7"/>
<stop offset="1" stop-color="#969696"/>
</linearGradient>
<linearGradient id="paint1_linear" x1="626.241" y1="654.251" x2="626.241" y2="566.269" gradientUnits="userSpaceOnUse">
<stop stop-color="#D7D7D7"/>
<stop offset="1" stop-color="#969696"/>
</linearGradient>
<linearGradient id="paint2_linear" x1="394.287" y1="596.344" x2="394.287" y2="500.979" gradientUnits="userSpaceOnUse">
<stop stop-color="#2E302F"/>
<stop offset="1" stop-color="#1C1E1D"/>
</linearGradient>
<linearGradient id="paint3_linear" x1="393.999" y1="59.3452" x2="393.999" y2="495.144" gradientUnits="userSpaceOnUse">
<stop stop-color="#141615"/>
<stop offset="1" stop-color="#5B5C5B"/>
</linearGradient>
<linearGradient id="paint4_linear" x1="393.999" y1="62.874" x2="393.999" y2="505.814" gradientUnits="userSpaceOnUse">
<stop stop-color="#2E302F"/>
<stop offset="1" stop-color="#1C1E1D"/>
</linearGradient>
<linearGradient id="paint5_linear" x1="659.798" y1="80.5178" x2="659.798" y2="544.556" gradientUnits="userSpaceOnUse">
<stop stop-color="#D7D7D7"/>
<stop offset="1" stop-color="#969696"/>
</linearGradient>
<linearGradient id="paint6_linear" x1="626.339" y1="351.333" x2="695.525" y2="322.171" gradientUnits="userSpaceOnUse">
<stop stop-color="#2E302F"/>
<stop offset="1" stop-color="#1C1E1D"/>
</linearGradient>
<linearGradient id="paint7_linear" x1="614.893" y1="312.938" x2="710.29" y2="362.204" gradientUnits="userSpaceOnUse">
<stop stop-color="#D7D7D7"/>
<stop offset="1" stop-color="#969696"/>
</linearGradient>
<linearGradient id="paint8_linear" x1="625.312" y1="318.324" x2="699.114" y2="356.437" gradientUnits="userSpaceOnUse">
<stop stop-color="#2E302F"/>
<stop offset="1" stop-color="#1C1E1D"/>
</linearGradient>
<linearGradient id="paint9_linear" x1="640.958" y1="457.974" x2="685.913" y2="392.634" gradientUnits="userSpaceOnUse">
<stop stop-color="#2E302F"/>
<stop offset="1" stop-color="#1C1E1D"/>
</linearGradient>
<linearGradient id="paint10_linear" x1="608.927" y1="430.343" x2="721.824" y2="419.89" gradientUnits="userSpaceOnUse">
<stop stop-color="#D7D7D7"/>
<stop offset="1" stop-color="#969696"/>
</linearGradient>
<linearGradient id="paint11_linear" x1="621.264" y1="429.199" x2="708.601" y2="421.113" gradientUnits="userSpaceOnUse">
<stop stop-color="#2E302F"/>
<stop offset="1" stop-color="#1C1E1D"/>
</linearGradient>
<linearGradient id="paint12_linear" x1="192.392" y1="163.436" x2="510.046" y2="480.909" gradientUnits="userSpaceOnUse">
<stop offset="0.0042735" stop-color="#707E67"/>
<stop offset="1" stop-color="#9DAD93"/>
</linearGradient>
</defs>
</svg>
