<svg height="593pt" viewBox="-18 -38 593.33561 593" width="593pt" xmlns="http://www.w3.org/2000/svg"><path d="m294.738281 128.640625c-14.167969.148437-27.296875-7.417969-34.277343-19.746094-1.246094-.058593-2.460938-.21875-3.707032-.21875h-1.902344c-22.285156.597657-42.941406 11.828125-55.554687 30.210938-8.132813 11.625-12.472656 25.484375-12.425781 39.671875-.070313 31.761718 21.292968 59.570312 51.996094 67.703125 30.703124 8.125 63.023437-5.472657 78.6875-33.109375 15.65625-27.632813 10.710937-62.351563-12.046876-84.511719zm-47.96875 39.933594h19.96875c16.539063 0 29.949219 13.410156 29.949219 29.949219 0 16.546874-13.410156 29.949218-29.949219 29.949218v9.984375h-19.96875v-9.984375c-16.542969 0-29.949219-13.402344-29.949219-29.949218h19.964844c0 5.515624 4.464844 9.984374 9.984375 9.984374h19.96875c5.511719 0 9.980469-4.46875 9.980469-9.984374 0-5.511719-4.46875-9.984376-9.980469-9.984376h-19.96875c-16.542969 0-29.949219-13.402343-29.949219-29.949218 0-16.539063 13.40625-29.949219 29.949219-29.949219v-9.984375h19.96875v9.984375c16.539063 0 29.949219 13.410156 29.949219 29.949219h-19.96875c0-5.511719-4.46875-9.980469-9.980469-9.980469h-19.96875c-5.519531 0-9.984375 4.46875-9.984375 9.980469 0 5.515625 4.464844 9.984375 9.984375 9.984375zm0 0"/><path d="m516.320312-1.140625h39.933594v139.765625h-39.933594zm0 0"/><path d="m374.601562 118.65625c0 15.117188 24.730469 29.953125 49.917969 29.953125s49.917969-14.835937 49.917969-29.953125c0-5.511719 4.46875-9.980469 9.980469-9.980469h11.933593v-79.867187h-11.882812c-1.351562.003906-2.691406-.273438-3.929688-.808594l-67.996093-29.140625h-102.984375c-13.214844.011719-25.886719 5.269531-35.238282 14.617187l-81.292968 81.222657c-6.480469 6.183593-7.941406 15.984375-3.542969 23.789062.082031.121094.179687.199219.257813.3125 16.535156-18.578125 40.03125-29.472656 64.890624-30.09375h.171876c0-22.050781 17.878906-39.933593 39.933593-39.933593h109.816407v19.96875h-109.816407c-8.070312.011718-15.332031 4.878906-18.417969 12.332031-3.082031 7.453125-1.378906 16.03125 4.320313 21.742187 3.722656 3.761719 8.800781 5.871094 14.097656 5.859375h69.882813c5.511718 0 9.980468 4.46875 9.980468 9.980469zm0 0"/><path d="m71.632812 367.46875 56.289063-20.488281 47.804687 131.339843-56.289062 20.488282zm0 0"/><path d="m0 404.15625 56.289062-20.488281 40.96875 112.574219-56.285156 20.488281zm0 0"/><path d="m197.039062 449.304688c2.128907-.773438 4.464844-.804688 6.609376-.078126l57.242187 19.339844 203.105469-73.882812c10.363281-3.765625 15.710937-15.226563 11.9375-25.59375-3.769532-10.363282-15.230469-15.710938-25.597656-11.941406l-64.800782 23.542968c-.023437 1.792969-.164062 3.585938-.417968 5.359375-3.820313 21.746094-24.527344 36.296875-46.285157 32.523438l-112.378906-19.8125 3.464844-19.671875 112.390625 19.832031c10.871094 1.871094 21.214844-5.386719 23.148437-16.242187.394531-2.242188.371094-4.539063-.078125-6.773438-.214844-1.183594-.496094-2.351562-.847656-3.503906-2.402344-6.726563-8.253906-11.640625-15.296875-12.84375l-133.035156-23.460938-62.6875 22.808594 34.144531 93.847656zm0 0"/></svg>