<svg width="40" height="40" viewBox="0 0 30 30" fill="none" xmlns="http://www.w3.org/2000/svg">
<path d="M24 10.6577C23.3632 10.9422 22.6885 11.1301 21.9977 11.215C22.729 10.7747 23.2762 10.0782 23.536 9.25693C22.8523 9.66925 22.1038 9.95942 21.3231 10.1147C20.8447 9.59842 20.2245 9.23977 19.5427 9.08518C18.8609 8.93063 18.149 8.98728 17.4994 9.24784C16.8497 9.50841 16.2923 9.96084 15.8991 10.5465C15.5061 11.1322 15.2955 11.8241 15.2948 12.5325C15.2952 12.8041 15.3252 13.0748 15.384 13.3397C13.9979 13.272 12.6412 12.9101 11.4018 12.2772C10.1623 11.6444 9.06763 10.7548 8.18854 9.66592C7.74564 10.4418 7.60983 11.3592 7.80863 12.2328C8.0074 13.1063 8.52593 13.8706 9.25929 14.3712C8.70514 14.3534 8.16312 14.2021 7.67814 13.9296V13.9767C7.67875 14.7928 7.95775 15.5836 8.46775 16.2149C8.97779 16.8463 9.68745 17.2793 10.4764 17.4405C9.96288 17.5802 9.42497 17.6013 8.90237 17.502C9.12438 18.2045 9.55764 18.8189 10.1414 19.259C10.7252 19.6991 11.4302 19.9428 12.1575 19.956C10.9226 20.9352 9.3992 21.4655 7.83162 21.4617C7.55369 21.4614 7.276 21.4444 7 21.411C8.59592 22.4536 10.4554 23.0055 12.3538 23C18.7783 23 22.2725 17.6142 22.2725 12.9451C22.2725 12.7895 22.2725 12.6375 22.2725 12.4855C22.9507 11.9849 23.5356 11.3659 24 10.6577Z" fill="white"/>
<circle cx="15" cy="15" r="14" stroke="white" stroke-width="2"/>
</svg>
