<?xml version="1.0" standalone="no"?>
<!DOCTYPE svg PUBLIC "-//W3C//DTD SVG 20010904//EN"
 "http://www.w3.org/TR/2001/REC-SVG-20010904/DTD/svg10.dtd">
<svg version="1.0" xmlns="http://www.w3.org/2000/svg"
 width="1279.000000pt" height="1279.000000pt" viewBox="0 0 1279.000000 1279.000000"
 preserveAspectRatio="xMidYMid meet">
<metadata>
Created by potrace 1.11, written by Peter Selinger 2001-2013
</metadata>
<g transform="translate(0.000000,1279.000000) scale(0.100000,-0.100000)"
fill="#000000" stroke="none">
<path d="M5980 12768 c0 -22 -20 -34 -30 -18 -5 8 -9 5 -13 -9 -3 -12 -11 -21
-19 -21 -10 0 -9 3 2 10 11 7 12 10 2 10 -8 0 -16 -9 -19 -20 -5 -19 -6 -20
-19 -3 -12 17 -13 16 -9 -5 2 -12 0 -20 -5 -17 -13 8 -42 -6 -37 -19 3 -7 -4
-12 -14 -12 -15 0 -16 3 -6 16 11 13 10 13 -6 1 -10 -8 -16 -19 -14 -26 3 -6
-4 -12 -16 -12 -27 -3 -42 -19 -26 -28 8 -6 10 -4 4 5 -5 9 -4 11 4 6 19 -12
2 -27 -19 -16 -13 7 -21 7 -26 -2 -4 -7 -3 -8 4 -4 7 4 12 1 12 -9 0 -9 -4
-13 -10 -10 -5 3 -10 1 -10 -5 0 -6 -5 -8 -12 -4 -10 6 -10 5 0 -8 10 -13 9
-15 -13 -13 -14 2 -23 -1 -19 -6 3 -5 10 -6 16 -3 7 4 8 2 4 -4 -4 -6 -14 -8
-24 -5 -15 6 -15 5 -3 -10 12 -15 12 -17 -3 -11 -21 8 -46 -13 -46 -38 0 -16
-3 -18 -14 -9 -11 9 -13 6 -11 -13 3 -19 -1 -23 -18 -18 -14 3 -18 1 -13 -6 4
-7 2 -12 -4 -12 -6 0 -8 -4 -5 -10 3 -5 1 -10 -4 -10 -6 0 -11 -7 -11 -15 0
-8 -15 -30 -32 -48 -18 -17 -29 -29 -23 -25 21 18 24 6 3 -16 -13 -13 -26 -21
-30 -19 -4 2 -5 -4 -1 -13 5 -14 3 -16 -10 -11 -15 6 -16 3 -7 -13 8 -16 8
-20 -2 -18 -7 2 -13 -6 -13 -17 -1 -11 -7 -19 -14 -17 -7 1 -10 -2 -6 -8 3 -5
1 -10 -6 -10 -8 0 -7 -5 2 -17 10 -11 10 -14 2 -9 -7 4 -13 2 -13 -3 0 -6 -8
-11 -17 -12 -15 0 -15 -2 2 -9 11 -5 15 -9 9 -9 -7 -1 -15 -8 -18 -17 -4 -9
-2 -13 5 -8 6 4 5 -4 -2 -17 -7 -13 -12 -27 -11 -31 1 -5 -3 -7 -9 -5 -6 1
-13 -9 -15 -23 -9 -53 -11 -60 -19 -67 -4 -5 -5 -2 0 6 5 10 4 12 -4 7 -6 -4
-9 -11 -6 -16 3 -5 1 -11 -5 -15 -5 -3 -10 -12 -10 -18 0 -7 4 -6 10 3 6 9 10
10 10 3 0 -7 -7 -16 -16 -21 -11 -6 -13 -11 -5 -16 8 -5 6 -14 -5 -31 -14 -21
-14 -24 3 -28 17 -4 17 -5 -1 -6 -13 -1 -17 -6 -13 -21 3 -11 2 -20 -3 -20 -4
0 -11 -7 -14 -16 -3 -8 -2 -12 4 -9 6 3 10 1 10 -4 0 -6 -5 -11 -11 -11 -5 0
-8 -4 -5 -8 3 -5 -5 -20 -17 -32 -16 -19 -18 -22 -4 -17 9 3 17 2 17 -2 0 -5
-5 -11 -11 -13 -13 -4 -17 -78 -5 -96 4 -7 3 -12 -2 -12 -5 0 -9 -6 -10 -12
-2 -25 -8 -48 -15 -54 -4 -4 -2 -13 4 -20 7 -8 7 -14 -1 -19 -8 -5 -8 -11 0
-20 7 -9 6 -16 -5 -25 -12 -10 -13 -16 -3 -28 10 -13 10 -14 1 -8 -8 4 -13 1
-14 -8 -3 -49 -2 -63 5 -74 4 -7 2 -12 -5 -12 -8 0 -8 -4 -2 -12 11 -15 3 -52
-12 -55 -11 -2 -12 58 -1 75 4 7 2 12 -5 12 -7 0 -9 3 -6 7 4 3 3 11 -3 17
-11 14 -16 88 -7 102 3 5 2 16 -3 24 -5 8 -5 22 1 32 7 12 6 18 -1 18 -7 0 -8
6 -1 17 5 10 5 26 0 40 -5 13 -5 23 0 23 5 0 5 18 1 40 -4 23 -3 43 2 46 5 3
4 12 -3 20 -6 8 -7 14 -2 14 7 0 7 15 3 40 -4 23 -3 43 2 46 5 3 4 12 -3 20
-6 8 -7 14 -2 14 7 0 7 15 3 40 -4 22 -4 43 1 46 4 2 6 11 2 19 -3 8 0 15 6
15 6 0 11 5 11 11 0 5 -4 7 -10 4 -6 -3 -7 1 -4 9 3 9 10 16 14 16 9 0 8 20
-3 37 -4 6 -3 15 3 18 7 4 7 12 2 18 -4 7 -7 22 -6 34 1 14 -3 20 -13 16 -9
-4 -11 0 -7 11 6 15 0 17 -38 14 -32 -2 -44 -7 -41 -16 4 -8 0 -10 -11 -6 -11
4 -16 1 -16 -11 0 -11 -5 -15 -14 -12 -10 4 -12 -1 -9 -16 4 -18 3 -19 -6 -7
-9 13 -11 11 -11 -7 0 -12 -5 -25 -12 -29 -7 -4 -8 -3 -4 4 11 19 -9 14 -27
-6 -10 -10 -17 -27 -17 -38 0 -16 -2 -17 -11 -4 -8 12 -10 9 -6 -11 3 -19 -1
-26 -12 -25 -9 1 -16 -7 -16 -19 0 -11 -6 -19 -13 -17 -8 1 -11 -2 -8 -7 4 -5
3 -11 -1 -14 -5 -2 -2 -2 5 -1 6 2 12 -1 12 -6 0 -6 -6 -10 -14 -10 -8 0 -18
-5 -22 -12 -5 -7 -2 -9 7 -4 8 4 6 1 -4 -7 -14 -11 -15 -16 -5 -20 7 -3 2 -6
-12 -7 -23 -1 -23 -2 -5 -10 18 -7 19 -8 3 -15 -10 -4 -15 -11 -12 -16 3 -5 0
-9 -6 -9 -6 0 -8 -4 -5 -10 3 -5 1 -10 -6 -10 -6 0 -9 -8 -6 -20 3 -11 0 -18
-6 -17 -6 1 -13 -6 -15 -17 -3 -13 0 -16 10 -11 7 5 10 4 5 -1 -5 -5 -14 -9
-20 -9 -7 0 -12 -4 -12 -10 0 -5 -4 -16 -9 -24 -6 -9 -5 -12 1 -8 5 3 10 0 10
-8 0 -8 -4 -12 -9 -9 -4 3 -9 -3 -10 -13 0 -10 -2 -22 -3 -28 -2 -5 -4 -14 -5
-20 -1 -5 -2 -13 -1 -17 0 -5 -3 -8 -9 -8 -5 0 -10 -12 -10 -26 0 -17 -4 -23
-12 -18 -8 5 -9 2 -5 -9 4 -10 1 -17 -6 -17 -8 0 -6 -4 3 -10 11 -7 11 -10 2
-10 -7 0 -10 -4 -7 -10 3 -5 1 -10 -6 -10 -9 0 -9 -3 0 -14 8 -10 9 -16 1 -21
-6 -3 -8 -11 -5 -16 4 -5 1 -9 -5 -9 -6 0 -9 -3 -6 -8 2 -4 1 -26 -3 -49 -5
-26 -4 -46 2 -52 8 -8 7 -11 -3 -11 -7 0 -10 -3 -7 -7 4 -3 0 -17 -8 -29 -10
-15 -11 -25 -4 -29 7 -5 6 -11 -1 -20 -8 -10 -8 -15 0 -20 8 -5 8 -11 -1 -21
-9 -11 -9 -14 0 -14 9 0 9 -5 1 -20 -8 -14 -8 -20 0 -20 8 0 8 -6 0 -20 -8
-14 -8 -20 0 -20 8 0 8 -6 0 -20 -8 -14 -8 -20 0 -20 8 0 8 -6 0 -20 -8 -15
-8 -20 1 -20 9 0 9 -3 0 -14 -8 -9 -8 -16 -2 -20 6 -4 6 -18 1 -36 -5 -18 -5
-32 1 -36 6 -4 6 -10 0 -18 -6 -7 -8 -16 -4 -20 9 -8 12 -46 4 -46 -3 0 -6
-11 -6 -25 0 -14 4 -25 8 -25 4 0 3 -9 -3 -20 -8 -16 -8 -22 3 -26 8 -3 13
-16 11 -30 -1 -13 2 -24 7 -24 6 0 5 -9 -2 -21 -9 -17 -8 -23 2 -30 12 -7 12
-9 0 -9 -11 0 -11 -3 -1 -15 6 -8 9 -19 5 -25 -3 -5 0 -10 7 -10 11 0 10 -2 0
-9 -11 -7 -11 -9 1 -14 18 -7 11 -53 -9 -61 -9 -3 -11 0 -7 11 4 10 2 14 -4
10 -6 -4 -13 0 -17 8 -3 8 0 15 7 15 7 1 1 10 -13 22 -15 13 -18 19 -8 15 10
-3 20 -1 24 5 4 6 3 8 -4 4 -6 -3 -13 3 -17 14 -3 11 -10 20 -14 20 -4 0 -8
18 -8 40 0 22 -7 48 -15 58 -19 21 -32 55 -18 47 6 -3 10 -1 10 4 0 6 -6 11
-14 11 -8 0 -13 8 -12 18 2 9 -2 20 -8 24 -7 5 -6 8 4 8 13 0 13 2 1 9 -8 5
-16 20 -19 33 -7 44 -8 47 -14 54 -4 3 -4 17 -2 32 4 19 -1 31 -18 44 -13 10
-18 18 -11 18 7 0 10 7 7 15 -4 8 -9 13 -13 10 -4 -2 -8 2 -9 10 -1 8 -3 22
-4 30 -1 12 -4 12 -17 2 -12 -10 -13 -9 -6 2 7 11 0 13 -33 8 -28 -3 -40 -2
-35 5 3 7 1 8 -6 4 -6 -4 -8 -12 -5 -18 5 -8 1 -9 -10 -5 -11 5 -15 3 -10 -5
5 -8 2 -9 -11 -4 -15 5 -16 4 -5 -9 9 -11 9 -15 1 -15 -7 0 -9 -5 -5 -12 5 -8
2 -9 -11 -4 -16 6 -16 4 -4 -11 9 -11 10 -14 2 -9 -8 4 -13 1 -13 -8 0 -9 -5
-16 -11 -16 -5 0 -7 -5 -4 -10 3 -6 -1 -13 -10 -16 -13 -5 -13 -9 -3 -22 10
-12 10 -14 1 -8 -8 4 -13 1 -13 -8 0 -9 -5 -16 -11 -16 -5 0 -8 -4 -4 -9 3 -5
1 -12 -5 -16 -6 -4 -8 -11 -5 -16 4 -5 1 -9 -5 -9 -6 0 -8 -4 -5 -10 3 -5 2
-10 -4 -10 -6 0 -6 -11 -1 -30 5 -16 5 -30 0 -30 -4 0 -11 -7 -14 -16 -4 -10
-2 -13 7 -9 6 4 5 1 -3 -7 -16 -13 -20 -32 -9 -42 3 -3 3 -26 -1 -51 -4 -25
-3 -45 1 -45 5 0 5 -11 0 -23 -5 -13 -6 -30 -1 -37 5 -7 4 -24 -1 -38 -5 -13
-6 -29 -2 -35 9 -15 11 -47 3 -47 -6 0 -6 -35 0 -50 1 -3 1 -13 0 -23 -1 -10
4 -26 12 -35 9 -11 10 -14 1 -8 -7 4 -13 2 -13 -3 0 -6 6 -11 13 -11 8 0 7 -4
-3 -10 -10 -6 -11 -10 -2 -10 7 0 12 -13 12 -29 0 -17 5 -33 12 -37 8 -5 6
-10 -8 -15 -17 -7 -17 -8 -1 -8 11 -1 18 -8 16 -18 -1 -10 0 -20 1 -23 3 -8
10 -43 25 -124 3 -15 12 -35 20 -43 16 -16 20 -27 7 -19 -5 3 -9 -1 -9 -9 0
-8 5 -13 11 -12 5 1 11 -8 12 -20 1 -13 3 -26 4 -30 1 -5 2 -11 1 -15 0 -5 4
-8 9 -8 6 0 8 -11 6 -25 -3 -14 -1 -23 4 -20 5 3 11 1 15 -5 3 -5 1 -10 -5
-10 -6 0 -4 -7 5 -16 13 -14 14 -19 3 -25 -10 -7 -9 -9 5 -9 15 0 21 -13 20
-47 -1 -7 4 -13 9 -13 6 0 8 -9 5 -20 -3 -14 0 -20 11 -20 8 0 12 -3 9 -6 -3
-4 -2 -16 4 -27 7 -13 7 -17 1 -13 -6 3 -14 2 -17 -4 -4 -6 -3 -10 2 -9 4 1
17 1 28 -1 l20 -1 -20 -9 -20 -9 20 -1 c11 -1 14 -4 8 -7 -7 -2 -13 -12 -14
-21 0 -14 -2 -13 -9 3 -5 11 -9 16 -9 10 -1 -5 -18 17 -38 50 -20 33 -41 62
-45 63 -4 2 -8 13 -8 25 0 18 -2 20 -11 7 -9 -12 -10 -11 -6 8 3 15 0 22 -9
22 -8 0 -14 5 -14 11 0 5 -6 7 -12 3 -10 -6 -10 -5 0 8 10 12 10 17 0 25 -18
14 -120 13 -109 -1 8 -11 -12 -60 -22 -54 -3 2 -9 -1 -14 -5 -4 -5 -3 -8 2 -7
24 5 27 -1 8 -17 -16 -15 -20 -31 -20 -85 -1 -37 -4 -72 -8 -77 -3 -6 -1 -11
5 -11 6 0 8 -5 4 -11 -9 -16 -11 -99 -1 -99 4 0 3 -9 -3 -20 -8 -15 -8 -20 1
-20 9 0 8 -4 0 -14 -10 -11 -8 -17 6 -25 10 -6 13 -11 5 -11 -10 0 -10 -5 -2
-20 6 -12 10 -28 10 -38 -3 -28 11 -60 28 -67 14 -5 14 -7 2 -15 -12 -8 -9
-10 10 -10 20 0 22 -2 10 -10 -9 -6 -11 -10 -3 -10 7 0 10 -7 6 -17 -5 -12 -3
-14 7 -8 10 6 12 3 8 -13 -4 -15 -2 -19 8 -15 10 4 14 -3 14 -21 0 -14 5 -26
10 -26 6 0 10 -6 10 -14 0 -8 6 -17 13 -19 9 -4 8 -8 -3 -17 -13 -9 -12 -10 5
-8 14 2 20 -3 20 -16 0 -11 7 -21 15 -23 13 -4 13 -3 0 7 -13 10 -13 11 0 7 8
-2 14 -10 12 -17 -2 -7 2 -16 8 -20 6 -4 12 -16 13 -28 0 -11 5 -18 9 -16 4 3
8 0 8 -7 0 -7 3 -9 6 -6 4 4 1 15 -7 24 -13 16 -12 17 4 4 9 -7 17 -20 17 -27
0 -8 5 -14 10 -14 6 0 10 -6 10 -13 0 -8 10 -19 23 -26 12 -6 14 -9 5 -7 -12
3 -15 0 -12 -9 3 -8 11 -13 17 -12 7 1 11 -6 11 -16 -2 -14 1 -15 12 -6 12 10
13 8 7 -7 -6 -17 -5 -17 10 -5 15 12 17 12 10 -4 -5 -15 -3 -17 12 -12 15 6
16 5 5 -8 -7 -9 -10 -18 -6 -22 3 -3 6 -1 6 5 0 7 5 12 11 12 6 0 9 -9 6 -20
-3 -11 -1 -18 3 -15 12 7 51 -26 44 -37 -3 -4 0 -8 6 -8 6 0 8 -4 5 -10 -3 -6
1 -7 9 -4 9 4 18 -1 22 -10 3 -9 10 -16 16 -16 5 0 6 5 2 12 -4 7 -3 8 5 4 9
-6 9 -11 -1 -24 -11 -13 -10 -15 5 -9 11 4 16 3 12 -3 -3 -6 -2 -10 4 -10 6 0
8 -7 5 -15 -4 -9 -16 -14 -29 -12 -27 3 -57 26 -50 37 3 4 -2 11 -11 14 -8 3
-12 2 -9 -4 12 -20 -14 -9 -29 11 -9 13 -21 19 -30 16 -10 -4 -13 -1 -9 9 4
10 -2 14 -22 14 -23 0 -26 2 -15 15 11 13 10 14 -2 10 -8 -3 -20 1 -27 9 -7 8
-19 12 -27 9 -8 -3 -14 0 -14 6 0 18 -77 14 -84 -5 -3 -8 -11 -12 -17 -8 -7 4
-9 3 -5 -4 3 -5 0 -13 -6 -15 -10 -4 -10 -6 -1 -6 9 -1 10 -8 3 -25 -5 -15 -5
-27 3 -35 8 -8 8 -11 -2 -11 -11 0 -11 -3 -1 -15 7 -9 14 -28 15 -43 1 -15 7
-26 14 -24 9 2 9 -3 1 -18 -10 -19 -4 -25 22 -21 4 0 5 -6 2 -14 -4 -9 -1 -15
7 -15 10 0 10 -3 2 -11 -18 -18 26 -80 52 -73 16 4 17 3 5 -5 -13 -9 -13 -12
-1 -20 8 -5 11 -16 8 -24 -4 -11 -1 -14 9 -10 7 3 14 0 14 -7 0 -6 5 -8 13 -4
9 6 9 4 -1 -8 -11 -14 -9 -18 15 -30 18 -9 28 -21 27 -35 0 -12 4 -21 10 -20
6 1 11 -6 11 -15 0 -9 4 -20 9 -25 5 -4 6 -3 2 5 -4 6 -2 12 3 12 6 0 11 -8
11 -18 0 -24 19 -42 44 -42 17 0 18 -2 6 -10 -12 -8 -11 -10 8 -10 14 0 22 -6
22 -18 0 -24 19 -42 44 -42 17 0 18 -2 6 -10 -12 -8 -10 -10 10 -10 20 0 22
-2 10 -10 -11 -7 -11 -10 -2 -10 8 0 10 -5 6 -12 -5 -8 0 -7 11 2 17 14 18 13
13 -8 -6 -20 -4 -22 10 -10 14 11 15 10 9 -6 -6 -16 -5 -17 8 -6 13 11 14 10
9 -4 -3 -9 -1 -16 6 -16 6 0 8 -4 5 -10 -3 -5 -1 -10 5 -10 6 0 9 -4 6 -9 -3
-4 6 -7 19 -5 17 1 25 -3 25 -13 0 -9 6 -13 15 -10 8 4 17 1 21 -5 4 -7 3 -8
-4 -4 -7 4 -12 2 -12 -3 0 -6 5 -11 11 -11 5 0 7 -4 4 -10 -8 -13 -62 -13 -70
0 -3 6 -13 10 -21 10 -8 0 -13 -4 -9 -10 3 -5 -6 -3 -21 5 -24 12 -31 12 -58
-2 -30 -16 -31 -16 -17 3 14 17 14 18 -1 4 -10 -8 -19 -27 -22 -42 -2 -15 -7
-32 -10 -37 -4 -5 -2 -13 4 -16 8 -5 7 -12 -2 -23 -10 -12 -10 -14 0 -8 8 5
12 0 12 -13 0 -13 7 -21 18 -21 14 0 15 -2 2 -10 -13 -9 -13 -10 0 -10 13 0
13 -1 0 -10 -13 -8 -13 -10 1 -10 9 0 20 -7 23 -16 4 -10 2 -13 -7 -8 -8 5 -8
2 2 -9 7 -9 18 -14 23 -11 6 4 5 -3 -1 -15 -10 -17 -9 -20 4 -15 13 6 20 -5
16 -28 0 -4 7 -4 17 -1 14 6 15 4 4 -9 -10 -13 -10 -18 -1 -24 8 -5 9 -3 4 6
-5 9 -4 11 3 6 7 -4 12 -15 12 -24 0 -15 2 -15 10 -2 8 13 10 12 11 -5 1 -11
1 -24 0 -28 -1 -5 3 -6 9 -2 5 3 10 -2 10 -12 0 -21 18 -43 34 -43 6 0 3 5 -6
11 -10 5 -18 14 -18 20 0 5 13 -3 30 -18 21 -18 27 -30 20 -38 -8 -9 -4 -12
14 -10 18 2 23 -1 19 -11 -3 -8 0 -14 7 -14 7 0 10 -7 6 -16 -3 -8 -2 -13 3
-9 5 3 16 -2 25 -11 9 -8 21 -12 28 -8 10 6 11 5 1 -8 -16 -19 -4 -32 15 -15
13 10 14 9 3 -10 -10 -20 -9 -22 6 -16 13 5 15 3 10 -12 -7 -16 -5 -16 9 -4
15 12 16 11 10 -11 -6 -19 -5 -22 4 -10 9 13 13 11 32 -10 11 -14 25 -24 29
-23 5 2 9 -2 9 -8 0 -5 4 -8 9 -4 5 3 12 1 16 -5 4 -6 11 -8 16 -5 5 4 9 -3 9
-14 0 -12 5 -21 11 -21 5 0 8 4 5 9 -4 5 5 4 19 -2 14 -7 25 -16 25 -20 0 -5
6 -5 13 -1 8 5 8 2 -2 -9 -9 -11 -10 -17 -2 -17 6 0 11 -5 11 -11 0 -5 -4 -8
-9 -4 -5 3 -12 -4 -16 -15 -3 -11 -11 -20 -17 -20 -6 0 -5 7 3 17 9 11 10 14
2 9 -7 -4 -18 -16 -24 -28 -9 -16 -8 -19 2 -13 8 6 10 4 5 -4 -5 -7 -14 -10
-21 -7 -8 3 -19 -2 -25 -10 -7 -8 -9 -14 -5 -14 4 0 0 -12 -10 -26 -11 -18
-13 -24 -4 -19 8 5 5 -1 -5 -13 -11 -13 -14 -22 -7 -22 8 0 9 -5 2 -18 -6 -11
-6 -23 -1 -28 5 -5 3 -17 -5 -27 -8 -11 -16 -14 -20 -8 -4 7 -15 5 -31 -6 -22
-14 -27 -14 -35 -2 -6 10 -9 10 -9 2 0 -9 -16 -13 -45 -13 -29 0 -45 -4 -45
-12 0 -9 -4 -8 -10 2 -7 11 -10 12 -10 2 0 -10 -13 -13 -50 -10 -28 1 -50 0
-50 -4 0 -4 -9 -5 -20 -3 -11 2 -18 0 -15 -6 4 -5 -5 -9 -19 -9 -14 0 -26 -5
-26 -11 0 -8 -6 -7 -17 2 -11 10 -14 10 -9 2 5 -10 -5 -13 -38 -13 -30 0 -46
-4 -46 -12 0 -9 -4 -8 -10 2 -9 13 -11 13 -20 0 -5 -8 -10 -11 -10 -6 0 6 -7
1 -16 -10 -8 -10 -12 -12 -8 -4 7 13 5 13 -8 2 -13 -10 -17 -10 -21 0 -4 10
-6 10 -6 1 -1 -7 -13 -13 -27 -13 -17 0 -23 -4 -18 -12 5 -9 2 -9 -9 1 -16 12
-21 9 -18 -12 1 -4 -7 -3 -18 2 -15 8 -20 7 -25 -5 -5 -13 -9 -14 -21 -4 -14
12 -20 7 -16 -14 1 -5 -6 -6 -14 -2 -9 3 -22 3 -28 -1 -7 -4 -21 -9 -32 -10
-10 -2 -23 -9 -27 -16 -6 -9 -8 -8 -8 3 0 9 -3 11 -8 5 -8 -12 -48 -35 -59
-35 -5 0 -1 5 7 11 13 9 13 10 0 6 -8 -2 -14 -12 -14 -21 2 -14 -1 -15 -14 -4
-12 10 -16 10 -19 1 -3 -7 -14 -13 -25 -13 -11 0 -34 -10 -51 -22 -18 -13 -28
-16 -23 -7 6 11 5 11 -6 -1 -7 -8 -19 -15 -25 -16 -29 -2 -33 -5 -33 -17 0
-11 -22 -17 -77 -20 -7 0 -10 -4 -7 -9 3 -5 10 -5 16 -2 7 4 8 2 4 -5 -4 -6
-12 -9 -17 -6 -5 4 -9 1 -9 -5 0 -6 -5 -8 -12 -4 -7 5 -9 2 -6 -8 4 -8 0 -15
-8 -15 -7 0 -11 3 -9 7 2 3 -6 7 -18 7 -12 1 -17 -1 -10 -5 8 -5 6 -14 -8 -31
-10 -13 -19 -19 -19 -14 0 5 6 15 13 23 10 12 9 12 -4 2 -9 -6 -19 -9 -23 -5
-4 4 -4 0 0 -10 4 -12 1 -17 -12 -17 -16 0 -17 -2 -4 -10 12 -8 12 -10 -5 -10
-11 0 -27 -5 -35 -11 -13 -10 -13 -10 1 -6 9 3 16 -1 16 -8 0 -8 -8 -12 -20
-10 -16 4 -17 2 -6 -11 10 -12 10 -15 -2 -12 -8 2 -13 -4 -13 -14 1 -10 -5
-18 -15 -19 -9 0 -11 -2 -6 -5 6 -2 9 -37 7 -85 -2 -53 0 -79 7 -75 5 4 13 2
16 -4 4 -6 3 -10 -2 -9 -19 3 -27 -2 -15 -9 14 -9 25 -52 13 -52 -9 0 -8 -31
2 -47 4 -6 3 -22 -2 -35 -5 -15 -5 -31 1 -41 7 -13 5 -19 -7 -23 -12 -5 -13
-9 -4 -20 9 -11 9 -14 0 -14 -9 0 -12 -26 -10 -90 1 -50 -1 -93 -5 -97 -3 -3
-1 -12 5 -20 9 -10 8 -13 -1 -13 -8 0 -10 -8 -6 -24 3 -14 1 -28 -4 -31 -6 -4
-8 -11 -5 -16 4 -5 1 -9 -5 -9 -8 0 -8 -6 0 -20 8 -14 8 -20 0 -20 -8 0 -8 -6
0 -20 8 -14 8 -20 0 -20 -8 0 -8 -6 0 -20 6 -11 7 -20 2 -20 -5 0 -8 -13 -6
-30 2 -18 -1 -30 -8 -30 -7 0 -3 -7 8 -15 18 -15 18 -15 0 -8 -16 5 -18 3 -14
-15 4 -12 3 -22 0 -22 -4 0 -5 -23 -3 -51 2 -38 0 -50 -9 -44 -9 6 -9 3 -1
-13 8 -16 7 -21 -5 -26 -13 -5 -14 -9 -5 -20 9 -10 9 -16 1 -21 -8 -5 -8 -10
0 -20 8 -10 8 -15 0 -20 -8 -5 -8 -11 -1 -19 7 -9 7 -16 0 -23 -8 -8 -8 -13 0
-17 8 -5 8 -13 1 -27 -6 -10 -8 -19 -4 -19 3 0 0 -8 -7 -17 -8 -9 -9 -14 -3
-10 6 3 11 0 11 -8 0 -8 -4 -12 -9 -9 -5 4 -8 -29 -7 -75 1 -45 -1 -84 -4 -88
-4 -3 -2 -12 4 -20 7 -7 7 -13 2 -13 -5 0 -9 -14 -8 -30 1 -19 -4 -34 -14 -40
-10 -6 -12 -9 -3 -10 10 0 10 -5 2 -20 -8 -14 -8 -20 0 -20 8 0 8 -6 0 -20 -8
-14 -8 -20 0 -20 8 0 8 -6 0 -20 -7 -13 -7 -20 -1 -20 7 0 7 -9 1 -26 -7 -18
-7 -23 1 -18 8 4 8 0 0 -15 -9 -16 -9 -21 1 -21 8 -1 5 -7 -6 -15 -14 -11 -16
-15 -5 -15 12 0 12 -2 0 -9 -8 -5 -11 -16 -8 -25 4 -9 3 -16 -2 -16 -5 0 -5
-18 -1 -40 4 -22 4 -43 -1 -46 -4 -2 -6 -11 -2 -19 3 -8 0 -15 -6 -15 -6 0
-11 -8 -11 -17 0 -15 2 -16 10 -3 7 10 10 11 10 2 0 -7 -6 -15 -13 -18 -13 -5
-17 -38 -5 -49 2 -3 2 -25 -2 -50 -4 -25 -4 -45 0 -45 4 0 4 -19 0 -42 -6 -29
-5 -45 3 -50 9 -6 9 -8 0 -8 -7 0 -13 -7 -13 -15 0 -8 -4 -15 -10 -15 -5 0 -7
-6 -5 -12 10 -27 12 -79 3 -84 -5 -3 -4 -12 3 -20 9 -11 9 -14 -1 -14 -9 0 -9
-4 -2 -13 7 -8 7 -18 2 -27 -5 -9 -5 -19 2 -27 6 -8 7 -13 1 -13 -10 0 -9 -47
1 -57 3 -3 -2 -12 -12 -20 -10 -9 -11 -11 -2 -7 13 7 13 5 1 -9 -7 -9 -10 -17
-6 -17 4 0 2 -6 -4 -14 -8 -9 -8 -16 -2 -20 6 -4 7 -15 2 -29 -5 -14 -5 -30 0
-40 7 -12 6 -17 -2 -17 -8 0 -9 -4 0 -13 8 -10 7 -17 -1 -25 -8 -8 -9 -12 -1
-12 6 0 9 -9 6 -20 -3 -11 -9 -17 -14 -14 -5 3 -9 1 -9 -5 0 -5 6 -12 13 -14
9 -4 9 -6 0 -6 -9 -1 -12 -107 -13 -456 0 -430 1 -454 17 -449 15 5 16 4 3 -5
-12 -9 -13 -14 -2 -31 8 -14 9 -20 1 -20 -8 0 -8 -4 0 -13 7 -9 7 -17 0 -24
-7 -7 -6 -15 3 -24 7 -8 14 -25 15 -39 1 -14 4 -36 7 -50 2 -14 4 -29 5 -33 0
-5 7 -5 13 -1 9 5 9 2 -1 -9 -12 -15 -11 -17 3 -17 9 0 16 -5 16 -11 0 -5 -4
-8 -9 -5 -5 4 -7 -3 -4 -14 3 -11 9 -18 13 -15 4 3 10 -2 13 -9 3 -8 1 -17 -6
-20 -7 -2 -2 -5 11 -5 12 -1 22 -6 22 -12 0 -5 -4 -8 -9 -5 -5 4 -7 -3 -4 -14
3 -11 9 -23 14 -26 5 -3 6 3 3 13 -5 14 -4 15 4 4 6 -8 8 -20 5 -28 -3 -7 0
-13 6 -13 6 0 11 -7 11 -16 0 -8 5 -12 11 -8 8 4 9 0 4 -15 -5 -17 -3 -20 11
-14 11 4 15 3 10 -5 -3 -6 -2 -13 4 -17 6 -4 8 -11 4 -16 -3 -6 0 -10 7 -8 31
4 41 -1 35 -18 -4 -9 -2 -19 4 -23 6 -4 12 -16 13 -28 0 -11 5 -18 9 -16 4 3
8 0 8 -7 0 -7 3 -9 6 -6 4 4 1 15 -7 24 -13 16 -12 17 4 4 9 -7 17 -22 17 -32
0 -9 7 -25 16 -33 8 -9 12 -21 8 -28 -5 -9 -2 -8 9 1 16 12 17 12 10 -5 -6
-16 -5 -17 9 -6 14 11 16 10 11 -10 -4 -18 -3 -20 6 -8 9 13 11 12 11 -6 0
-27 44 -66 58 -52 8 8 9 4 6 -13 -5 -19 -4 -21 5 -9 9 13 11 12 11 -5 0 -23
60 -85 81 -85 8 0 21 -9 29 -20 15 -21 36 -28 24 -8 -4 7 -3 8 4 4 6 -4 8 -14
5 -24 -3 -9 -3 -14 1 -10 10 8 36 -14 29 -24 -2 -4 4 -5 13 -1 11 4 15 2 11
-4 -6 -10 50 -40 65 -36 4 2 10 -7 13 -18 4 -11 13 -18 20 -15 7 2 25 -11 40
-29 15 -19 30 -34 33 -34 22 3 32 -2 26 -13 -5 -9 -2 -9 9 1 10 8 17 9 17 3 0
-6 9 -14 20 -17 11 -3 20 -13 20 -21 0 -8 5 -14 11 -14 5 0 7 6 4 13 -4 6 3 1
14 -12 19 -21 21 -21 22 -5 0 16 2 16 9 -3 10 -25 56 -52 83 -48 9 2 17 -3 17
-10 0 -8 8 -12 18 -11 9 2 26 -6 37 -17 11 -11 14 -16 6 -12 -10 6 -12 4 -7
-4 6 -9 11 -9 22 0 11 9 15 7 21 -7 9 -20 33 -25 45 -9 4 6 8 1 8 -11 0 -17 6
-20 29 -19 23 1 28 -2 23 -14 -5 -14 -4 -14 13 -1 10 8 16 10 12 3 -9 -15 35
-46 68 -47 13 -1 32 -9 43 -19 10 -9 22 -14 27 -10 4 5 5 0 2 -10 -4 -11 -3
-16 3 -12 6 3 10 1 10 -5 0 -7 7 -9 15 -6 9 3 18 -1 22 -10 5 -13 7 -13 14 -2
7 10 9 10 9 1 0 -7 9 -13 20 -13 11 0 20 -5 20 -11 0 -8 6 -7 17 2 9 8 14 10
11 4 -3 -5 0 -16 8 -23 11 -10 14 -10 14 0 1 8 8 5 18 -8 10 -12 28 -20 44
-20 22 1 25 -1 15 -13 -9 -11 -9 -13 0 -8 6 4 19 0 27 -9 12 -11 16 -12 16 -2
1 7 7 2 15 -12 9 -15 15 -19 15 -10 0 12 4 11 15 -4 8 -11 15 -16 15 -11 0 5
7 0 15 -11 15 -19 15 -19 9 1 -4 15 -2 14 9 -4 11 -18 16 -20 20 -10 3 8 6 3
6 -11 1 -18 4 -21 10 -11 5 7 14 10 20 7 6 -4 9 -11 6 -16 -8 -12 21 -20 33
-8 6 6 12 6 17 -3 6 -8 4 -10 -6 -4 -12 8 -12 6 0 -9 9 -10 17 -13 21 -7 3 6
12 3 20 -9 15 -21 36 -28 24 -8 -4 7 -3 8 4 4 7 -4 12 -15 12 -24 0 -14 2 -14
9 -3 5 7 14 10 20 7 6 -4 9 -11 6 -16 -6 -9 12 -23 33 -26 6 -1 9 3 6 8 -4 7
-2 8 4 4 7 -4 12 -14 12 -22 0 -8 5 -14 11 -14 5 0 7 6 3 13 -4 6 4 0 19 -16
14 -15 30 -27 34 -27 4 0 -1 7 -11 15 -11 8 -15 15 -9 15 5 0 26 -16 46 -35
20 -19 43 -35 52 -35 8 0 15 -5 15 -11 0 -8 6 -7 17 2 11 10 14 10 9 1 -4 -7
-2 -12 4 -12 6 0 8 -5 4 -12 -5 -7 -2 -9 9 -5 12 4 14 2 10 -11 -6 -15 -5 -16
12 -2 11 9 16 10 11 3 -5 -9 -1 -13 11 -13 15 0 16 -2 3 -10 -13 -8 -12 -10 3
-10 12 0 16 -4 11 -12 -5 -8 0 -7 11 2 11 9 16 10 11 3 -4 -8 -2 -13 4 -13 6
0 8 -5 4 -11 -4 -7 1 -7 16 1 12 7 20 8 17 3 -3 -4 1 -13 8 -20 11 -10 15 -10
18 0 3 7 6 4 6 -6 1 -10 9 -26 18 -35 16 -16 16 -16 10 1 -3 9 -2 17 3 17 6 0
10 -5 10 -11 0 -16 29 -41 40 -34 6 3 13 -2 16 -12 3 -10 10 -27 15 -38 8 -17
8 -16 3 5 -6 23 -6 23 10 7 10 -9 15 -21 12 -25 -3 -5 4 -16 15 -25 10 -9 19
-13 19 -7 0 5 -8 14 -17 19 -10 6 -13 11 -6 11 16 0 44 -41 36 -54 -3 -6 0 -6
7 1 11 10 17 8 32 -9 10 -12 18 -25 18 -31 0 -5 7 -4 15 3 12 10 13 8 10 -10
-3 -14 0 -20 8 -17 17 6 47 -11 47 -27 0 -21 46 -56 58 -44 8 8 9 4 6 -13 -5
-19 -4 -21 5 -9 9 13 11 12 11 -5 0 -11 20 -39 44 -62 34 -32 46 -39 56 -30
10 9 11 9 6 0 -4 -7 -4 -13 1 -14 4 0 18 -2 29 -3 17 -2 21 2 19 20 -1 13 1
23 4 22 3 0 15 0 26 1 17 1 18 3 5 11 -13 8 -12 10 3 10 9 0 17 5 17 10 0 6 7
10 16 10 11 0 14 5 10 16 -5 12 -2 15 10 10 12 -4 15 -2 10 9 -3 8 -1 14 4 12
5 -1 16 7 25 18 9 11 13 13 9 5 -4 -9 -3 -12 2 -7 9 8 10 12 13 38 0 6 10 9
22 6 17 -5 18 -3 7 11 -10 12 -10 14 0 8 6 -4 12 -3 12 3 0 5 9 8 20 6 17 -3
19 -1 9 16 -10 19 -9 20 10 9 17 -9 22 -8 27 4 3 8 3 19 0 25 -3 5 5 8 19 7
13 -2 22 1 19 5 -3 5 2 12 10 15 9 3 13 11 9 18 -4 6 0 6 9 -2 13 -10 18 -10
24 -1 4 8 3 9 -4 5 -7 -4 -12 -2 -12 5 0 6 8 9 19 6 15 -3 18 0 14 17 -4 18
-3 19 7 6 10 -12 11 -11 7 7 -4 20 -3 21 15 12 15 -8 19 -8 14 0 -7 10 7 16
28 12 5 -1 3 6 -5 15 -13 16 -12 16 8 5 19 -10 22 -9 17 4 -6 14 6 20 30 16 5
-1 3 6 -5 15 -10 13 -11 16 -1 10 9 -5 19 -1 28 13 11 14 23 20 39 17 18 -3
22 -1 18 11 -5 13 -2 15 16 10 19 -5 21 -3 9 11 -7 9 -9 14 -4 10 12 -10 48
11 41 22 -4 6 1 7 11 3 12 -4 15 -3 10 5 -5 8 0 12 14 12 13 0 19 4 14 12 -5
7 0 9 14 6 16 -4 19 -2 15 10 -4 9 -2 13 4 9 6 -4 18 0 26 8 12 11 17 12 20 2
4 -9 6 -9 6 1 1 6 7 12 14 12 7 0 21 9 30 21 11 12 25 18 34 15 13 -5 13 -4 4
7 -9 12 -6 14 14 12 22 -3 29 4 27 26 -1 3 10 5 24 3 22 -2 23 0 12 14 -10 13
-11 14 0 8 7 -4 20 -2 29 6 14 11 16 11 9 -2 -4 -8 -1 -7 7 3 8 10 21 16 28
15 8 -2 13 3 11 10 -1 6 1 11 5 10 5 -1 21 6 36 16 24 16 30 17 38 5 7 -11 9
-11 9 3 0 9 5 20 12 24 7 4 8 3 4 -4 -4 -7 -2 -12 3 -12 6 0 11 4 11 8 0 5 18
18 40 30 23 12 38 16 33 9 -4 -8 -1 -7 10 2 9 7 14 18 10 25 -4 6 2 4 12 -4
11 -9 16 -10 11 -2 -6 11 4 17 26 13 4 0 4 7 1 16 -4 10 -2 14 5 9 6 -3 14 -1
18 5 4 8 9 7 15 -2 6 -10 9 -11 9 -1 0 6 6 12 14 12 8 0 17 6 19 13 4 9 6 9 6
-2 1 -8 8 -4 21 10 17 21 21 22 30 9 8 -13 10 -13 10 2 0 9 5 20 12 24 7 4 8
3 4 -4 -4 -7 -2 -12 3 -12 6 0 11 4 11 8 0 5 18 18 40 30 23 12 38 16 33 9 -4
-8 -1 -7 10 2 9 7 14 18 10 25 -4 6 2 4 12 -4 11 -9 16 -10 11 -2 -4 7 -2 12
8 12 8 0 18 5 22 12 5 7 2 8 -7 3 -8 -5 -11 -4 -6 1 5 5 12 9 15 9 4 0 13 4
21 9 10 7 12 6 6 -4 -5 -8 7 -3 25 10 18 13 31 19 27 14 -3 -6 0 -11 8 -11 8
0 12 4 10 8 -3 3 2 13 11 20 13 10 17 10 25 -2 7 -11 9 -11 9 4 0 10 4 16 9
12 5 -3 15 0 23 7 32 31 88 68 102 68 9 0 16 5 16 11 0 8 4 8 14 0 11 -10 16
-8 21 8 4 13 13 18 30 17 18 -2 22 1 17 13 -5 14 -4 14 13 1 15 -12 17 -12 10
-1 -6 11 -4 13 10 7 15 -5 16 -4 6 8 -10 12 -8 14 13 12 14 -2 23 0 20 5 -6
11 31 30 41 21 5 -4 5 -1 1 5 -6 12 11 18 37 14 4 0 7 5 7 13 0 7 8 20 18 27
16 13 16 13 2 -6 -15 -20 -14 -20 8 -1 12 11 22 15 22 11 0 -5 10 1 23 13 13
12 27 19 31 15 4 -4 4 0 0 10 -6 16 9 23 38 18 4 0 5 6 1 15 -3 8 -2 14 3 13
22 -3 52 14 47 27 -4 10 0 12 12 7 15 -5 17 -2 13 15 -3 12 -3 21 1 20 27 -3
76 33 63 48 -4 4 0 3 10 -4 12 -10 18 -10 24 -1 5 8 3 10 -7 4 -8 -4 -4 2 8
14 12 11 27 21 34 21 6 0 8 7 5 16 -5 12 -2 15 10 10 12 -5 15 -2 10 9 -3 10
-2 13 5 10 6 -4 13 3 16 15 4 16 8 18 14 8 7 -10 9 -8 9 6 0 11 5 16 13 13 8
-3 14 1 14 8 0 7 -7 11 -16 8 -9 -2 -6 2 7 9 12 8 19 18 15 23 -4 4 -3 5 4 1
7 -4 10 -14 7 -24 -5 -15 -4 -15 6 1 6 10 9 25 6 34 -6 14 -4 14 11 2 11 -9
14 -10 9 -1 -4 6 -3 12 3 12 6 0 8 8 4 18 -3 9 -2 14 2 9 5 -4 17 0 27 9 15
14 16 20 5 32 -10 13 -9 14 11 3 23 -12 23 -12 11 11 -11 21 -11 22 5 9 16
-13 17 -13 14 5 -2 12 2 18 11 16 9 -2 11 3 7 13 -3 9 -2 14 3 11 5 -3 14 1
21 9 11 13 10 14 -6 9 -13 -4 -9 3 11 21 17 14 24 23 16 19 -9 -4 -12 -2 -9 7
3 8 12 13 21 13 13 -1 14 2 6 17 -5 11 -6 19 -2 18 20 -3 27 2 13 11 -13 8
-12 10 3 10 9 0 17 5 17 11 0 5 6 7 13 3 9 -6 9 -4 -1 8 -14 18 0 34 19 22 8
-5 8 -1 0 14 -14 25 -14 43 -1 22 8 -13 10 -12 10 4 0 13 5 16 16 12 14 -5 15
-4 4 9 -10 12 -10 18 1 32 12 14 12 16 -1 9 -8 -4 -7 -1 3 7 13 11 15 17 6 23
-9 5 -7 11 6 21 11 7 16 13 12 13 -3 0 0 17 7 38 7 20 11 43 8 51 -3 8 0 11 6
7 17 -10 17 931 0 952 -11 13 -11 14 1 7 10 -6 12 -4 6 5 -13 22 -23 90 -14
96 5 3 9 10 9 15 0 6 -5 7 -12 3 -8 -5 -9 0 -6 14 4 12 1 25 -4 29 -7 4 -8 1
-3 -7 5 -9 4 -11 -4 -6 -6 4 -8 13 -4 19 10 16 11 47 3 52 -4 2 -4 25 0 50 4
25 4 45 0 45 -4 0 -4 18 0 40 4 22 5 40 1 40 -10 0 -7 64 4 72 6 5 5 8 -2 8
-7 0 -13 7 -13 15 0 8 -3 15 -7 15 -5 0 -7 66 -7 148 1 81 -3 152 -8 159 -5 6
-8 20 -6 30 1 10 -1 23 -5 30 -4 6 -3 14 2 18 7 4 7 15 1 30 -6 16 -6 25 1 25
6 0 6 6 0 18 -6 11 -6 24 -1 32 6 9 5 17 -2 21 -6 4 -12 23 -13 42 -1 19 -5
39 -9 46 -4 6 -3 11 3 11 6 0 6 11 1 30 -5 17 -5 30 -1 30 5 0 5 18 1 40 -4
22 -3 43 1 46 5 3 9 10 9 15 0 6 -5 7 -12 3 -8 -5 -9 0 -6 14 4 12 1 25 -4 29
-7 4 -8 1 -3 -7 5 -9 4 -11 -4 -6 -7 5 -8 13 -4 19 10 15 10 38 0 55 -5 7 -3
12 3 12 6 0 8 5 4 12 -11 17 -12 48 -3 48 9 0 6 26 -4 36 -4 4 -2 13 4 20 7 8
7 14 -1 19 -7 4 -7 12 0 25 7 13 7 21 0 25 -8 5 -7 11 1 21 9 11 9 14 -1 14
-7 0 -10 6 -7 14 3 7 -1 25 -8 40 -8 14 -9 26 -4 26 6 0 6 7 -1 19 -7 14 -7
22 0 26 8 5 7 11 -1 21 -9 11 -8 14 2 14 12 0 12 2 0 9 -8 5 -11 16 -8 25 4
11 1 16 -10 16 -12 0 -13 3 -4 14 9 10 9 16 1 21 -8 5 -8 11 1 21 9 11 9 14
-1 14 -10 0 -10 3 -1 14 9 11 8 17 -4 29 -16 17 -21 32 -7 23 5 -3 9 1 9 9 0
8 -4 12 -8 10 -3 -3 -9 4 -12 15 -3 11 -1 20 4 20 6 0 5 8 -1 20 -6 11 -7 20
-2 20 5 0 6 18 2 40 -4 23 -3 43 2 46 5 3 4 12 -3 20 -9 11 -9 14 0 14 7 0 9
4 6 10 -11 17 -18 54 -19 93 -1 20 -4 37 -8 37 -4 0 -3 13 2 30 5 18 5 32 -1
35 -5 4 -5 14 1 25 7 13 7 21 0 25 -15 9 -12 27 3 20 6 -4 5 -1 -4 7 -18 15
-30 76 -17 84 5 3 4 12 -3 20 -6 8 -8 14 -3 14 5 0 7 32 6 71 -3 53 -1 69 8
64 9 -6 9 -2 1 14 -9 16 -9 21 0 21 6 0 9 7 5 15 -3 8 -2 15 3 15 9 0 8 31 -2
47 -4 6 -3 23 3 37 7 18 6 26 -1 26 -6 0 -9 9 -6 20 3 11 2 18 -2 16 -7 -5
-81 66 -81 78 0 4 14 -7 31 -25 17 -17 32 -29 35 -27 2 3 -9 17 -26 31 -16 15
-30 33 -30 40 0 8 -3 8 -9 -2 -8 -12 -12 -12 -25 2 -9 8 -16 22 -17 29 0 7 -4
4 -9 -7 -7 -16 -9 -17 -9 -3 -1 9 -10 20 -21 23 -11 3 -20 11 -20 17 0 6 -7 5
-17 -3 -11 -10 -14 -10 -9 -1 4 7 2 12 -4 12 -6 0 -8 5 -4 13 6 9 5 9 -7 0
-13 -11 -20 -8 -38 13 -13 15 -28 23 -37 20 -9 -3 -12 -1 -9 4 3 6 -3 10 -14
10 -12 0 -21 5 -21 11 0 5 -4 8 -9 4 -5 -3 -16 2 -24 10 -19 18 -31 20 -22 3
4 -7 -1 -4 -9 6 -11 14 -16 15 -16 6 0 -9 -5 -7 -15 6 -10 13 -14 15 -15 5 0
-10 -6 -7 -19 7 -20 24 -37 30 -25 10 6 -10 4 -10 -7 0 -7 6 -23 12 -36 12
-13 0 -23 6 -23 13 0 9 -3 8 -9 -2 -7 -10 -11 -9 -22 6 -8 10 -29 20 -49 22
-19 2 -38 8 -41 13 -4 6 -9 5 -12 -3 -4 -10 -6 -10 -6 -1 -1 6 -10 12 -21 12
-11 0 -20 6 -20 13 0 8 -4 7 -10 -3 -6 -10 -10 -11 -10 -2 0 6 -11 12 -25 12
-14 0 -25 6 -25 13 0 7 -3 8 -8 2 -9 -13 -35 -18 -27 -5 4 6 -7 10 -27 10 -19
0 -40 6 -47 13 -11 9 -13 9 -7 0 4 -7 2 -13 -3 -13 -6 0 -11 5 -11 10 0 6 -13
10 -30 10 -17 0 -30 5 -30 13 0 8 -4 7 -10 -3 -8 -12 -10 -12 -10 -1 0 9 -9
12 -30 9 -16 -3 -30 -1 -30 3 0 5 -7 5 -17 2 -10 -4 -14 -2 -10 4 4 6 -12 10
-41 12 -26 1 -48 6 -50 11 -2 6 -8 10 -13 10 -6 0 -7 -6 -3 -12 6 -10 4 -10
-7 0 -7 6 -32 12 -56 12 -24 0 -43 4 -43 8 0 4 -17 9 -37 10 -21 2 -40 8 -44
14 -4 7 -8 6 -12 -3 -4 -10 -6 -10 -6 -1 -1 8 -24 12 -81 12 -52 0 -80 4 -80
11 0 8 -6 7 -17 -2 -9 -8 -14 -9 -10 -2 9 15 -21 22 -50 11 -17 -6 -23 -4 -23
8 0 8 -6 14 -12 13 -48 -6 -158 2 -153 12 4 6 1 10 -6 8 -39 -5 -119 2 -119
11 0 6 13 10 29 10 17 0 33 5 36 10 5 8 12 7 23 -2 13 -11 14 -11 7 1 -6 11
-3 13 13 9 12 -4 22 -2 22 4 0 5 5 6 10 3 6 -3 10 0 10 7 0 11 2 11 9 0 6 -10
11 -9 22 4 12 16 12 17 -1 9 -8 -4 -12 -4 -7 0 12 14 38 15 31 2 -5 -8 -2 -7
7 1 7 6 22 12 34 12 12 0 27 6 34 13 11 10 13 9 7 -3 -4 -8 -1 -7 7 3 11 14
16 15 20 5 4 -9 6 -10 6 -1 1 7 8 10 18 6 12 -5 14 -3 8 8 -8 12 -6 12 8 0 15
-12 21 -9 19 10 -1 3 13 3 30 1 23 -3 29 -1 23 8 -6 9 -3 9 14 1 17 -9 22 -9
26 1 4 10 33 12 128 7 124 -5 171 -14 161 -30 -4 -8 16 -13 37 -11 4 1 4 -9 1
-21 -5 -19 -4 -20 11 -9 14 12 16 11 12 -8 -4 -19 -2 -20 12 -8 12 9 15 9 9 1
-5 -9 0 -12 18 -11 13 1 22 7 19 12 -4 5 1 7 10 3 10 -3 17 -2 17 4 0 6 5 7
12 3 7 -4 8 -3 4 5 -4 6 -13 9 -19 5 -7 -3 -3 3 8 13 15 13 19 25 15 43 -4 14
-3 33 2 42 4 9 4 19 -1 22 -4 3 -6 16 -4 29 3 14 -2 38 -11 55 -19 37 -20 46
-4 36 7 -4 8 -3 4 5 -4 6 -12 8 -18 5 -8 -5 -9 -1 -5 10 4 11 3 15 -4 10 -8
-4 -9 1 -4 17 4 18 4 20 -4 10 -8 -12 -12 -12 -25 -2 -9 8 -16 22 -16 33 0 17
-3 18 -14 9 -12 -10 -14 -8 -9 11 4 18 3 20 -6 8 -9 -13 -11 -12 -11 5 0 11
-16 35 -35 52 -19 18 -35 28 -35 23 0 -5 14 -19 30 -32 17 -12 30 -26 30 -31
0 -5 -21 11 -46 37 -26 25 -51 43 -56 40 -5 -3 -8 2 -6 11 2 11 -4 19 -17 21
-11 2 -21 8 -23 13 -2 6 -8 11 -13 11 -6 0 -7 -5 -3 -12 4 -7 3 -8 -4 -4 -7 4
-12 15 -12 24 0 15 -2 15 -10 2 -9 -13 -10 -13 -10 0 0 13 -1 13 -10 0 -8 -13
-10 -13 -10 2 0 9 -5 20 -12 24 -7 4 -8 3 -4 -4 10 -17 -1 -15 -23 5 -11 9
-18 21 -15 27 3 6 -2 2 -10 -8 -14 -17 -16 -17 -16 -4 0 9 -5 20 -12 24 -7 4
-8 3 -4 -4 12 -20 -6 -13 -25 10 -11 11 -19 16 -19 9 0 -7 -5 -9 -10 -6 -6 4
-8 10 -5 15 8 13 -22 19 -35 7 -10 -9 -11 -9 -6 1 5 8 0 12 -13 12 -10 0 -22
6 -24 13 -4 8 -6 8 -6 -3 -1 -10 -6 -8 -16 8 -12 16 -24 21 -45 18 -16 -2 -27
0 -25 5 3 4 0 11 -6 15 -6 3 -15 0 -20 -7 -7 -11 -9 -11 -9 3 0 22 -20 34 -30
18 -5 -8 -9 -5 -13 9 -3 12 -11 21 -19 21 -10 0 -9 -3 2 -10 9 -6 10 -10 3
-10 -6 0 -15 4 -18 10 -3 5 -15 15 -27 21 -15 8 -19 8 -14 0 13 -20 -9 -12
-24 9 -14 20 -37 29 -25 10 3 -5 -7 -3 -21 5 -15 8 -31 12 -36 9 -4 -3 -4 6 2
20 8 21 7 24 -8 20 -12 -4 -12 -2 3 8 11 7 20 19 21 26 3 36 5 42 15 42 5 0 8
-4 5 -8 -3 -5 1 -9 9 -9 8 0 12 4 9 9 -3 4 0 8 5 8 6 0 11 -4 11 -10 0 -15 47
-12 53 3 4 9 6 9 6 0 1 -7 6 -13 13 -13 6 0 9 3 5 6 -9 9 16 33 28 26 6 -3 5
1 -2 9 -9 11 -7 14 13 15 13 1 24 -2 24 -7 0 -5 20 -8 44 -7 24 2 42 6 39 11
-2 4 -10 4 -16 0 -7 -4 -6 0 2 10 7 9 18 14 25 10 7 -4 6 -1 -1 9 -7 8 -10 17
-7 21 9 9 12 57 3 57 -4 0 -6 10 -4 22 3 12 -1 28 -8 37 -10 12 -9 13 3 6 12
-7 11 -3 -3 18 -11 17 -13 27 -6 27 8 0 8 4 0 13 -8 10 -7 17 2 26 10 11 7 12
-13 6 -17 -4 -21 -3 -11 3 11 8 11 14 0 33 -7 13 -12 32 -10 42 1 9 -3 17 -10
17 -8 0 -9 4 0 13 8 10 7 17 -1 25 -7 7 -8 12 -4 12 5 0 2 8 -5 17 -10 11 -10
14 -1 9 6 -4 12 -2 12 3 0 6 -6 11 -12 11 -9 0 -8 4 2 10 8 5 10 10 4 10 -15
0 -25 50 -10 50 6 0 4 5 -4 10 -8 5 -11 10 -6 10 4 0 1 11 -8 25 -9 14 -12 25
-6 25 8 0 7 6 0 20 -8 14 -8 20 0 20 8 0 8 6 0 20 -8 14 -8 20 0 20 8 0 8 6 0
20 -6 11 -7 20 -2 20 10 0 9 30 -1 47 -4 6 -3 14 3 18 6 4 7 12 3 18 -10 17
-11 47 -1 47 5 0 4 9 -2 20 -8 14 -8 20 0 20 8 0 8 6 0 20 -8 14 -8 20 0 20 8
0 8 6 0 20 -8 15 -8 20 2 20 9 0 9 3 0 12 -7 7 -8 17 -2 29 7 12 6 20 -2 25
-7 5 -8 3 -3 -6 5 -9 4 -11 -4 -6 -9 6 -9 11 1 24 7 9 8 13 3 10 -6 -4 -17 -3
-25 3 -12 7 -12 9 -1 9 11 0 11 3 1 15 -9 11 -9 15 -1 15 7 0 11 6 10 13 -3
25 1 48 9 44 4 -3 7 15 7 39 0 24 -3 44 -7 44 -5 0 -7 5 -5 12 3 18 21 37 30
31 4 -2 7 -1 6 4 -3 19 2 34 9 29 11 -6 12 2 15 92 2 51 7 76 17 83 13 9 12
10 -2 5 -10 -3 -18 -1 -18 4 0 6 4 10 9 10 4 0 8 17 8 38 0 23 4 36 11 35 7
-2 12 2 12 7 0 6 -6 10 -12 10 -9 0 -8 4 2 10 8 5 11 10 6 10 -5 0 -3 6 3 14
9 10 9 16 1 21 -8 5 -4 16 12 33 13 15 15 21 6 14 -14 -11 -16 -10 -11 7 3 12
9 21 13 21 5 0 6 9 3 20 -3 11 0 20 6 20 6 0 11 8 11 18 0 14 -2 15 -10 2 -7
-10 -10 -11 -10 -2 0 7 6 15 14 18 8 3 13 14 11 25 -2 10 1 19 6 19 6 0 7 5 4
10 -4 6 -12 8 -18 4 -7 -3 -3 2 8 10 11 10 20 29 20 47 0 16 7 34 15 39 13 8
13 10 1 10 -11 0 -10 4 5 16 10 8 13 12 6 9 -11 -6 -12 -3 -4 11 6 11 9 21 9
24 -3 12 30 49 38 42 4 -4 3 2 -3 13 -9 16 -7 24 12 40 12 11 15 16 7 10 -11
-8 -11 -4 2 22 20 38 21 47 5 37 -7 -4 -8 -3 -4 4 4 7 14 12 22 12 8 0 14 10
14 25 0 14 5 25 10 25 6 0 10 9 10 20 0 12 7 20 16 20 13 0 14 3 5 14 -10 11
-8 16 9 21 17 5 19 10 9 21 -9 11 -8 14 6 14 12 0 16 6 12 19 -3 14 -1 18 9
14 9 -3 14 2 14 17 0 11 4 19 9 16 5 -3 11 4 14 15 4 14 10 18 19 13 9 -6 9
-2 -2 12 -8 10 -11 16 -7 13 9 -7 57 36 57 50 0 5 7 15 17 22 15 13 15 12 4
-9 -7 -13 -10 -26 -8 -29 3 -2 8 5 12 16 3 12 11 18 17 15 6 -4 5 3 -2 16 -11
20 -10 21 9 11 17 -10 20 -9 15 4 -4 8 -1 15 5 15 6 0 11 6 11 14 0 7 7 20 17
27 15 13 15 12 4 -9 -7 -13 -10 -26 -8 -29 3 -2 8 5 12 16 3 12 11 18 17 15 6
-4 5 3 -2 16 -11 20 -10 21 9 10 12 -6 21 -7 20 -3 -4 22 2 34 14 27 8 -5 7
-2 -2 9 -12 16 -12 17 5 11 10 -4 16 -4 12 1 -4 4 -3 17 3 28 9 15 8 18 -2 12
-9 -6 -11 -2 -7 12 3 12 1 27 -4 34 -7 10 -8 9 -4 -6 6 -19 5 -19 -8 -2 -11
14 -29 17 -100 17 -67 0 -85 -3 -80 -12 5 -9 2 -9 -9 1 -15 12 -21 9 -19 -10
1 -4 -8 -4 -20 -1 -15 3 -19 2 -14 -7 9 -14 -16 -11 -26 4 -5 6 -8 3 -8 -7 0
-22 -20 -34 -30 -18 -6 9 -10 7 -15 -9 -3 -11 -11 -21 -16 -21 -6 0 -7 5 -3
12 5 7 3 8 -5 4 -7 -5 -10 -15 -6 -25 5 -13 4 -14 -6 -3 -15 14 -33 16 -24 2
5 -8 -19 -15 -28 -7 -6 5 -62 -45 -62 -56 0 -6 -10 -16 -22 -23 -13 -6 -20
-14 -15 -18 4 -5 0 -7 -8 -6 -33 5 -40 0 -36 -25 4 -22 2 -23 -14 -13 -15 10
-17 15 -7 27 7 8 11 23 9 34 -3 14 0 17 10 11 7 -4 5 2 -5 14 -11 11 -25 18
-33 15 -8 -3 -14 0 -14 6 0 6 -13 11 -30 11 -17 0 -30 -5 -30 -12 0 -9 -4 -8
-10 2 -7 11 -10 11 -10 2 0 -7 -5 -10 -10 -7 -6 4 -10 3 -9 -2 3 -20 -2 -25
-16 -13 -9 7 -18 10 -22 6 -3 -3 -1 -6 5 -6 6 0 9 -7 5 -16 -5 -13 -7 -13 -14
-2 -7 10 -11 7 -15 -9 -4 -13 -11 -23 -16 -23 -5 0 -6 6 -3 13 4 6 0 4 -8 -5
-8 -10 -18 -14 -22 -10 -5 4 -5 -1 -2 -10 4 -12 2 -15 -9 -11 -8 3 -14 -1 -14
-10 0 -8 -7 -21 -17 -28 -15 -13 -15 -12 -4 9 7 13 10 26 8 29 -3 2 -8 -5 -12
-16 -3 -12 -11 -18 -17 -15 -6 4 -5 -3 2 -16 11 -20 10 -21 -9 -10 -12 6 -21
7 -20 3 4 -22 -2 -34 -13 -27 -9 5 -8 2 1 -9 8 -10 11 -20 7 -24 -3 -3 -6 -1
-6 5 0 6 -9 10 -19 9 -13 -1 -17 -5 -11 -12 10 -12 -14 -37 -26 -27 -5 4 -3 0
4 -10 10 -12 10 -18 1 -24 -8 -5 -10 -3 -5 7 4 8 0 5 -9 -6 -9 -11 -21 -19
-27 -17 -6 2 -5 -5 3 -14 9 -12 9 -15 2 -10 -8 4 -13 1 -13 -9 0 -9 -4 -14 -9
-11 -5 4 -8 -2 -6 -11 3 -20 -33 -76 -44 -69 -4 3 -6 -8 -5 -23 2 -24 -1 -28
-18 -23 -11 3 -17 10 -14 19 3 8 1 11 -4 8 -9 -6 -15 9 -11 29 1 5 -6 3 -15
-5 -12 -9 -15 -9 -10 -1 5 8 -1 12 -18 12 -14 0 -26 -5 -26 -12 0 -8 -4 -7
-12 3 -7 8 -12 13 -11 11 4 -10 -41 -43 -53 -38 -8 3 -13 0 -11 -7 1 -7 -3
-11 -10 -10 -7 2 -10 -4 -7 -12 4 -10 0 -15 -12 -15 -16 0 -17 -2 -4 -11 12
-9 11 -10 -7 -6 -20 5 -22 3 -11 -16 10 -19 9 -20 -4 -9 -13 11 -16 10 -14 -5
0 -10 -4 -17 -11 -16 -7 2 -10 -4 -6 -13 3 -8 -3 -22 -13 -30 -11 -9 -14 -13
-7 -10 6 4 15 2 18 -4 4 -6 3 -10 -2 -9 -4 1 -15 1 -23 0 -13 -1 -13 -2 0 -11
12 -8 10 -10 -10 -10 -18 0 -21 -3 -11 -9 7 -5 10 -14 7 -20 -4 -6 -11 -9 -15
-6 -5 2 -6 -7 -3 -20 3 -16 0 -25 -8 -25 -9 0 -10 -3 -1 -14 9 -10 8 -15 -4
-19 -8 -4 -12 -13 -9 -22 4 -8 1 -15 -6 -15 -10 0 -10 -3 -1 -14 8 -10 9 -16
1 -21 -6 -3 -8 -10 -5 -15 3 -5 1 -12 -5 -15 -8 -5 -7 -12 2 -23 11 -13 11
-14 -1 -7 -11 6 -13 4 -9 -7 4 -8 2 -21 -2 -29 -5 -8 -4 -19 2 -26 7 -9 7 -13
-2 -13 -9 0 -9 -4 -2 -13 17 -20 1 -32 -43 -36 -22 -1 -46 -7 -52 -13 -9 -7
-13 -7 -13 2 0 8 -3 10 -6 7 -4 -4 -1 -14 7 -24 8 -9 9 -14 2 -10 -14 9 -45
-2 -37 -14 3 -5 -3 -9 -13 -9 -13 0 -15 -2 -5 -9 10 -6 10 -10 -2 -20 -8 -7
-19 -10 -25 -7 -5 3 -7 -2 -4 -13 3 -10 0 -22 -7 -26 -8 -5 -8 -10 1 -21 9
-11 9 -14 -1 -14 -7 0 -10 -6 -7 -14 3 -8 -1 -17 -10 -21 -12 -4 -13 -9 -5
-17 8 -8 8 -17 1 -31 -8 -13 -8 -17 -1 -13 7 4 8 -3 2 -23 -5 -19 -4 -33 3
-40 8 -8 8 -11 0 -11 -6 0 -9 -9 -6 -20 3 -11 0 -20 -6 -20 -6 0 -11 9 -11 19
0 11 -4 22 -10 26 -5 3 -7 12 -3 20 3 9 -1 15 -8 15 -11 0 -11 3 1 10 8 5 10
10 4 10 -6 0 -18 17 -28 37 -12 26 -14 34 -4 27 8 -5 5 -1 -5 9 -11 9 -16 17
-13 17 4 0 2 10 -5 21 -7 13 -7 19 -1 15 6 -3 14 -2 17 4 4 6 1 9 -6 8 -8 -2
-15 12 -20 36 -3 21 -14 43 -23 48 -14 8 -15 12 -4 26 10 12 10 14 1 8 -9 -5
-13 0 -13 15 0 12 -8 31 -17 42 -13 15 -14 18 -3 12 12 -7 13 -6 5 6 -17 23
-37 88 -30 99 3 6 0 13 -8 15 -8 4 -13 19 -12 40 0 18 -3 31 -7 29 -4 -3 -8
11 -8 31 0 20 -4 34 -9 30 -5 -3 -13 0 -17 6 -4 7 -3 9 4 5 6 -3 13 -2 16 3 3
5 -1 12 -10 15 -9 3 -14 12 -11 20 3 7 -1 25 -8 40 -10 19 -11 26 -2 26 8 0 8
3 2 8 -5 4 -11 14 -13 22 -2 8 -8 17 -13 18 -6 3 -5 10 2 18 9 11 8 14 -2 14
-9 0 -10 3 -2 11 8 8 7 18 -3 37 -8 15 -14 40 -14 55 0 16 -4 26 -9 22 -5 -3
-13 0 -17 6 -4 7 -3 9 4 5 6 -3 13 -2 16 3 3 5 -1 12 -9 15 -10 4 -14 14 -11
31 3 14 1 23 -4 20 -5 -3 -11 -1 -14 4 -4 5 -2 12 3 16 7 4 7 15 0 32 -5 15
-8 32 -5 39 3 7 -2 15 -10 18 -12 4 -12 10 -4 26 6 11 7 20 2 20 -4 0 -8 9 -9
20 -1 13 3 18 10 14 7 -3 4 1 -5 9 -13 10 -18 29 -18 71 0 33 -4 55 -9 51 -5
-3 -13 -1 -16 5 -4 6 -3 10 2 9 20 -4 23 2 8 17 -11 11 -13 20 -6 28 7 9 7 16
-1 24 -7 7 -9 12 -5 12 4 0 3 10 -4 21 -9 17 -8 20 3 13 8 -5 6 2 -5 19 -9 15
-14 27 -10 27 5 0 8 11 8 25 0 14 -3 25 -7 25 -4 0 -5 10 -3 22 3 12 -3 30
-12 40 -10 11 -12 18 -5 18 7 0 12 -5 12 -12 0 -6 2 -9 5 -6 3 3 -1 18 -9 33
-10 20 -12 34 -5 46 6 12 5 20 -1 24 -8 5 -8 11 -1 19 7 8 7 16 1 22 -6 6 -11
22 -12 37 -1 15 -6 27 -11 27 -4 0 -3 9 3 20 8 14 8 20 0 20 -7 0 -8 6 -1 18
7 13 6 23 -1 30 -9 9 -9 12 1 12 10 0 11 3 3 13 -7 8 -7 18 -2 27 5 9 5 19 -2
27 -7 9 -7 13 1 13 8 0 9 5 1 19 -7 14 -7 22 0 26 8 5 7 11 -1 21 -9 11 -9 14
1 14 9 0 9 4 2 13 -7 8 -7 18 -2 27 5 9 5 19 -2 27 -7 9 -7 13 1 13 8 0 9 5 1
19 -7 14 -7 22 0 26 8 5 7 11 -1 21 -9 11 -9 14 1 14 9 0 9 4 2 13 -7 8 -7 18
-2 27 5 9 5 19 -2 27 -6 8 -7 13 -1 13 7 0 7 15 3 40 -4 23 -3 43 2 46 5 3 4
12 -3 20 -6 8 -8 14 -3 14 5 0 8 31 7 70 -1 43 3 70 9 70 7 0 6 5 -1 14 -9 10
-8 16 4 26 8 7 12 17 8 23 -11 18 -11 47 1 47 6 0 6 4 -1 11 -13 13 -6 42 7
34 5 -3 12 0 16 6 5 8 3 9 -6 4 -10 -6 -12 -2 -7 16 4 13 7 34 7 47 0 16 4 21
13 16 8 -5 8 -2 -2 9 -11 14 -11 17 0 17 12 0 12 2 0 9 -8 5 -9 10 -3 12 6 2
12 15 14 29 2 14 7 31 12 39 6 9 5 12 -1 8 -5 -3 -10 0 -10 8 0 8 4 12 9 9 4
-3 8 -2 9 3 4 41 12 68 25 80 17 18 18 27 2 17 -9 -5 -9 -2 1 9 7 9 10 17 5
17 -5 0 -2 5 6 10 8 5 16 20 16 32 3 45 4 49 14 43 6 -3 10 -2 10 4 0 5 -5 13
-12 17 -7 5 -4 10 11 16 18 6 21 11 12 22 -9 11 -8 15 4 20 9 3 13 10 10 16
-3 5 -1 10 6 10 9 0 9 3 0 14 -9 11 -7 15 9 19 14 4 18 10 13 23 -5 13 -3 16
9 11 12 -4 14 -1 10 15 -3 13 1 24 11 30 9 4 14 15 11 22 -3 7 2 16 12 20 14
5 14 9 3 24 -7 9 -10 14 -5 10 5 -4 14 -1 21 6 19 19 46 86 34 86 -5 0 -9 9
-9 19 0 10 -7 22 -16 25 -28 11 -102 6 -107 -6 -4 -10 -8 -9 -16 2 -9 13 -11
13 -11 -2z m-340 -268 c0 -5 -5 -10 -11 -10 -5 0 -7 5 -4 10 3 6 8 10 11 10 2
0 4 -4 4 -10z m308 -215 c-3 -3 -9 2 -12 12 -6 14 -5 15 5 6 7 -7 10 -15 7
-18z m-983 -285 c3 -5 -1 -10 -10 -10 -9 0 -13 5 -10 10 3 6 8 10 10 10 2 0 7
-4 10 -10z m2582 -1535 c-9 -8 -21 -15 -27 -15 -7 0 -2 9 11 19 28 22 39 20
16 -4z m-143 -13 c3 -5 -1 -9 -9 -9 -8 0 -12 4 -9 9 3 4 7 8 9 8 2 0 6 -4 9
-8z m-701 -437 c-3 -9 -8 -14 -10 -11 -3 3 -2 9 2 15 9 16 15 13 8 -4z m-2449
-333 c3 -5 -1 -9 -9 -9 -8 0 -12 4 -9 9 3 4 7 8 9 8 2 0 6 -4 9 -8z m-104
-528 c0 -8 -19 -13 -24 -6 -3 5 1 9 9 9 8 0 15 -2 15 -3z m235 -564 c3 -5 1
-10 -4 -10 -6 0 -11 5 -11 10 0 6 2 10 4 10 3 0 8 -4 11 -10z m-45 -300 c0 -5
-2 -10 -4 -10 -3 0 -8 5 -11 10 -3 6 -1 10 4 10 6 0 11 -4 11 -10z m185 -259
c-6 -5 -25 10 -25 20 0 5 6 4 14 -3 8 -7 12 -15 11 -17z m80 -80 c-6 -5 -25
10 -25 20 0 5 6 4 14 -3 8 -7 12 -15 11 -17z m482 -1046 c0 -8 -4 -12 -9 -9
-5 3 -6 10 -3 15 9 13 12 11 12 -6z m4003 -5069 c0 -3 -4 -8 -10 -11 -5 -3
-10 -1 -10 4 0 6 5 11 10 11 6 0 10 -2 10 -4z m-5250 -154 c0 -1 -9 2 -20 8
-11 6 -20 15 -20 20 0 6 9 2 20 -7 11 -10 20 -19 20 -21z m104 -111 c-4 -4
-64 55 -64 64 0 4 15 -8 34 -27 19 -18 32 -35 30 -37z m4686 -155 c0 -2 -6 -9
-14 -15 -11 -9 -16 -9 -22 0 -4 7 -3 9 4 5 6 -3 13 -2 17 4 6 10 15 14 15 6z
m-4388 -50 c7 4 8 2 4 -5 -9 -13 -26 -5 -25 12 0 9 2 8 6 -1 2 -6 10 -9 15 -6z
m204 -122 c18 -14 18 -14 -6 -3 -31 14 -36 19 -24 19 6 0 19 -7 30 -16z m320
-160 c18 -14 18 -14 -6 -3 -31 14 -36 19 -24 19 6 0 19 -7 30 -16z m1474 -922
c0 -1 -9 2 -20 8 -11 6 -20 15 -20 20 0 6 9 2 20 -7 11 -10 20 -19 20 -21z
m92 -97 c7 -11 -2 -6 -20 12 -18 17 -32 34 -32 37 0 10 41 -28 52 -49z"/>
<path d="M6916 10108 c3 -5 10 -6 15 -3 13 9 11 12 -6 12 -8 0 -12 -4 -9 -9z"/>
<path d="M7545 9841 c-3 -5 -1 -12 5 -16 5 -3 10 1 10 9 0 18 -6 21 -15 7z"/>
<path d="M4357 9539 c7 -7 15 -10 18 -7 3 3 -2 9 -12 12 -14 6 -15 5 -6 -5z"/>
<path d="M4560 8491 c0 -6 4 -13 10 -16 6 -3 7 1 4 9 -7 18 -14 21 -14 7z"/>
<path d="M4425 8130 c3 -5 8 -10 11 -10 2 0 4 5 4 10 0 6 -5 10 -11 10 -5 0
-7 -4 -4 -10z"/>
<path d="M4790 7310 c0 -5 5 -10 11 -10 5 0 7 5 4 10 -3 6 -8 10 -11 10 -2 0
-4 -4 -4 -10z"/>
<path d="M8020 7211 c0 -6 4 -13 10 -16 6 -3 7 1 4 9 -7 18 -14 21 -14 7z"/>
<path d="M4986 7117 c3 -10 9 -15 12 -12 3 3 0 11 -7 18 -10 9 -11 8 -5 -6z"/>
<path d="M8900 6431 c0 -6 4 -13 10 -16 6 -3 7 1 4 9 -7 18 -14 21 -14 7z"/>
<path d="M3596 5537 c3 -10 9 -15 12 -12 3 3 0 11 -7 18 -10 9 -11 8 -5 -6z"/>
<path d="M3630 1910 c0 -5 5 -10 11 -10 5 0 7 5 4 10 -3 6 -8 10 -11 10 -2 0
-4 -4 -4 -10z"/>
<path d="M7474 794 c-18 -14 -18 -15 4 -4 12 6 22 13 22 15 0 8 -5 6 -26 -11z"/>
<path d="M6945 479 c-4 -6 -4 -13 -1 -16 3 -4 6 -1 6 6 0 7 5 9 12 5 7 -4 8
-3 4 4 -9 15 -13 15 -21 1z"/>
</g>
</svg>
